<?xml version="1.0"?>
<!-- Generated by SVGo -->
<svg width="377.842mm" height="158.004mm"
     viewBox="0.000 0.000 377.842 158.004"
     xmlns="http://www.w3.org/2000/svg" 
     xmlns:xlink="http://www.w3.org/1999/xlink">
<polygon points="370.842,5.001 370.999,5.007 371.155,5.025 371.309,5.056 371.460,5.098 371.607,5.153 371.750,5.218 371.887,5.295 372.017,5.382 372.141,5.480 372.256,5.586 372.363,5.702 372.460,5.825 372.547,5.956 372.624,6.093 372.690,6.235 372.744,6.382 372.787,6.534 372.817,6.688 372.836,6.844 372.842,7.001 372.842,151.004 372.836,151.161 372.817,151.317 372.787,151.471 372.744,151.622 372.690,151.770 372.624,151.912 372.547,152.049 372.460,152.180 372.363,152.303 372.256,152.419 372.141,152.525 372.017,152.622 371.887,152.710 371.750,152.786 371.607,152.852 371.460,152.906 371.309,152.949 371.155,152.980 370.999,152.998 370.842,153.004 7.001,153.004 6.844,152.998 6.688,152.980 6.534,152.949 6.382,152.906 6.235,152.852 6.093,152.786 5.956,152.710 5.825,152.622 5.702,152.525 5.586,152.419 5.480,152.303 5.382,152.180 5.295,152.049 5.218,151.912 5.153,151.770 5.098,151.622 5.056,151.471 5.025,151.317 5.007,151.161 5.000,151.004 5.001,7.001 5.007,6.844 5.025,6.688 5.056,6.534 5.098,6.382 5.153,6.235 5.218,6.093 5.295,5.956 5.382,5.825 5.480,5.702 5.586,5.586 5.702,5.480 5.825,5.382 5.956,5.295 6.093,5.218 6.235,5.153 6.382,5.098 6.534,5.056 6.688,5.025 6.844,5.007 7.001,5.000" style="fill:none;stroke-width:0.050000mm;stroke:black"/>
<polygon points="367.471,147.049 367.217,147.178 367.016,147.380 366.886,147.634 366.842,147.915 366.886,148.197 367.016,148.451 367.217,148.652 367.471,148.782 367.753,148.827 368.034,148.782 368.288,148.652 368.490,148.451 368.619,148.197 368.664,147.915 368.619,147.634 368.490,147.380 368.288,147.178 368.034,147.049 367.753,147.004" style="fill:none;stroke-width:0.050000mm;stroke:black"/>
<polygon points="248.250,147.049 247.996,147.178 247.795,147.380 247.665,147.634 247.621,147.915 247.665,148.197 247.795,148.451 247.996,148.652 248.250,148.782 248.532,148.827 248.813,148.782 249.067,148.652 249.269,148.451 249.398,148.197 249.443,147.915 249.398,147.634 249.269,147.380 249.067,147.178 248.813,147.049 248.532,147.004" style="fill:none;stroke-width:0.050000mm;stroke:black"/>
<polygon points="129.028,147.049 128.775,147.178 128.573,147.380 128.444,147.634 128.399,147.915 128.444,148.197 128.573,148.451 128.775,148.652 129.028,148.782 129.311,148.827 129.592,148.782 129.846,148.652 130.048,148.451 130.176,148.197 130.222,147.915 130.176,147.634 130.048,147.380 129.846,147.178 129.592,147.049 129.311,147.004" style="fill:none;stroke-width:0.050000mm;stroke:black"/>
<polygon points="9.808,147.049 9.554,147.178 9.352,147.380 9.223,147.634 9.178,147.915 9.223,148.197 9.352,148.451 9.554,148.652 9.808,148.782 10.089,148.827 10.371,148.782 10.625,148.652 10.826,148.451 10.956,148.197 11.000,147.915 10.956,147.634 10.826,147.380 10.625,147.178 10.371,147.049 10.089,147.004" style="fill:none;stroke-width:0.050000mm;stroke:black"/>
<polygon points="151.053,124.478 151.053,125.478 150.253,125.478 150.253,128.401 151.053,128.401 151.053,129.177 104.101,129.177 104.101,125.948 97.528,125.948 97.528,129.177 96.703,129.177 96.703,131.801 97.528,131.801 97.528,138.071 99.253,138.071 99.253,139.271 102.376,139.271 102.376,138.071 104.101,138.071 104.101,133.601 151.053,133.601 151.053,134.378 150.253,134.378 150.253,137.301 151.053,137.301 151.053,138.301 164.876,138.301 164.876,137.301 165.676,137.301 165.676,134.378 164.876,134.378 164.876,133.601 211.828,133.601 211.828,138.071 213.553,138.071 213.553,139.271 216.676,139.271 216.676,138.071 218.401,138.071 218.401,131.801 219.226,131.801 219.226,129.177 218.401,129.177 218.401,125.948 211.828,125.948 211.828,129.177 164.876,129.177 164.876,128.401 165.676,128.401 165.676,125.478 164.876,125.478 164.876,124.478" style="fill:none;stroke-width:0.050000mm;stroke:black"/>
<polygon points="22.466,124.478 22.466,125.478 21.666,125.478 21.666,128.401 22.466,128.401 22.466,134.378 21.666,134.378 21.666,137.301 22.466,137.301 22.466,138.301 36.288,138.301 36.288,137.301 37.088,137.301 37.088,134.378 36.288,134.378 36.288,128.401 37.088,128.401 37.088,125.478 36.288,125.478 36.288,124.478" style="fill:none;stroke-width:0.050000mm;stroke:black"/>
<polygon points="46.278,124.478 46.278,125.478 45.478,125.478 45.478,128.401 46.278,128.401 46.278,134.378 45.478,134.378 45.478,137.301 46.278,137.301 46.278,138.301 60.101,138.301 60.101,137.301 60.901,137.301 60.901,134.378 60.101,134.378 60.101,128.401 60.901,128.401 60.901,125.478 60.101,125.478 60.101,124.478" style="fill:none;stroke-width:0.050000mm;stroke:black"/>
<polygon points="70.091,124.478 70.091,125.478 69.291,125.478 69.291,128.401 70.091,128.401 70.091,134.378 69.291,134.378 69.291,137.301 70.091,137.301 70.091,138.301 83.913,138.301 83.913,137.301 84.713,137.301 84.713,134.378 83.913,134.378 83.913,128.401 84.713,128.401 84.713,125.478 83.913,125.478 83.913,124.478" style="fill:none;stroke-width:0.050000mm;stroke:black"/>
<polygon points="232.016,124.478 232.016,125.478 231.216,125.478 231.216,128.401 232.016,128.401 232.016,134.378 231.216,134.378 231.216,137.301 232.016,137.301 232.016,138.301 245.838,138.301 245.838,137.301 246.638,137.301 246.638,134.378 245.838,134.378 245.838,128.401 246.638,128.401 246.638,125.478 245.838,125.478 245.838,124.478" style="fill:none;stroke-width:0.050000mm;stroke:black"/>
<polygon points="255.828,124.478 255.828,125.478 255.028,125.478 255.028,128.401 255.828,128.401 255.828,134.378 255.028,134.378 255.028,137.301 255.828,137.301 255.828,138.301 269.651,138.301 269.651,137.301 270.451,137.301 270.451,134.378 269.651,134.378 269.651,128.401 270.451,128.401 270.451,125.478 269.651,125.478 269.651,124.478" style="fill:none;stroke-width:0.050000mm;stroke:black"/>
<polygon points="279.641,124.478 279.641,125.478 278.841,125.478 278.841,128.401 279.641,128.401 279.641,134.378 278.841,134.378 278.841,137.301 279.641,137.301 279.641,138.301 293.463,138.301 293.463,137.301 294.263,137.301 294.263,134.378 293.463,134.378 293.463,128.401 294.263,128.401 294.263,125.478 293.463,125.478 293.463,124.478" style="fill:none;stroke-width:0.050000mm;stroke:black"/>
<polygon points="308.216,124.478 308.216,125.478 307.416,125.478 307.416,128.401 308.216,128.401 308.216,134.378 307.416,134.378 307.416,137.301 308.216,137.301 308.216,138.301 322.038,138.301 322.038,137.301 322.838,137.301 322.838,134.378 322.038,134.378 322.038,128.401 322.838,128.401 322.838,125.478 322.038,125.478 322.038,124.478" style="fill:none;stroke-width:0.050000mm;stroke:black"/>
<polygon points="327.266,124.478 327.266,125.478 326.466,125.478 326.466,128.401 327.266,128.401 327.266,134.378 326.466,134.378 326.466,137.301 327.266,137.301 327.266,138.301 341.088,138.301 341.088,137.301 341.888,137.301 341.888,134.378 341.088,134.378 341.088,128.401 341.888,128.401 341.888,125.478 341.088,125.478 341.088,124.478" style="fill:none;stroke-width:0.050000mm;stroke:black"/>
<polygon points="346.316,124.478 346.316,125.478 345.516,125.478 345.516,128.401 346.316,128.401 346.316,134.378 345.516,134.378 345.516,137.301 346.316,137.301 346.316,138.301 360.138,138.301 360.138,137.301 360.938,137.301 360.938,134.378 360.138,134.378 360.138,128.401 360.938,128.401 360.938,125.478 360.138,125.478 360.138,124.478" style="fill:none;stroke-width:0.050000mm;stroke:black"/>
<polygon points="29.610,105.428 29.610,106.428 28.810,106.428 28.810,109.351 29.610,109.351 29.610,110.128 27.907,110.128 27.907,106.898 21.335,106.898 21.335,110.128 20.510,110.128 20.510,112.751 21.335,112.751 21.335,119.021 23.060,119.021 23.060,120.221 26.182,120.221 26.182,119.021 27.907,119.021 27.907,114.551 29.610,114.551 29.610,115.328 28.810,115.328 28.810,118.251 29.610,118.251 29.610,119.251 43.432,119.251 43.432,118.251 44.232,118.251 44.232,115.328 43.432,115.328 43.432,114.551 45.135,114.551 45.135,119.021 46.860,119.021 46.860,120.221 49.982,120.221 49.982,119.021 51.707,119.021 51.707,112.751 52.532,112.751 52.532,110.128 51.707,110.128 51.707,106.898 45.135,106.898 45.135,110.128 43.432,110.128 43.432,109.351 44.232,109.351 44.232,106.428 43.432,106.428 43.432,105.428" style="fill:none;stroke-width:0.050000mm;stroke:black"/>
<polygon points="267.735,105.428 267.735,106.428 266.935,106.428 266.935,109.351 267.735,109.351 267.735,110.128 266.032,110.128 266.032,106.898 259.460,106.898 259.460,110.128 258.635,110.128 258.635,112.751 259.460,112.751 259.460,119.021 261.185,119.021 261.185,120.221 264.307,120.221 264.307,119.021 266.032,119.021 266.032,114.551 267.735,114.551 267.735,115.328 266.935,115.328 266.935,118.251 267.735,118.251 267.735,119.251 281.557,119.251 281.557,118.251 282.357,118.251 282.357,115.328 281.557,115.328 281.557,114.551 283.260,114.551 283.260,119.021 284.985,119.021 284.985,120.221 288.107,120.221 288.107,119.021 289.832,119.021 289.832,112.751 290.657,112.751 290.657,110.128 289.832,110.128 289.832,106.898 283.260,106.898 283.260,110.128 281.557,110.128 281.557,109.351 282.357,109.351 282.357,106.428 281.557,106.428 281.557,105.428" style="fill:none;stroke-width:0.050000mm;stroke:black"/>
<polygon points="60.566,105.428 60.566,106.428 59.766,106.428 59.766,109.351 60.566,109.351 60.566,115.328 59.766,115.328 59.766,118.251 60.566,118.251 60.566,119.251 74.388,119.251 74.388,118.251 75.188,118.251 75.188,115.328 74.388,115.328 74.388,109.351 75.188,109.351 75.188,106.428 74.388,106.428 74.388,105.428" style="fill:none;stroke-width:0.050000mm;stroke:black"/>
<polygon points="79.616,105.428 79.616,106.428 78.816,106.428 78.816,109.351 79.616,109.351 79.616,115.328 78.816,115.328 78.816,118.251 79.616,118.251 79.616,119.251 93.438,119.251 93.438,118.251 94.238,118.251 94.238,115.328 93.438,115.328 93.438,109.351 94.238,109.351 94.238,106.428 93.438,106.428 93.438,105.428" style="fill:none;stroke-width:0.050000mm;stroke:black"/>
<polygon points="98.666,105.428 98.666,106.428 97.866,106.428 97.866,109.351 98.666,109.351 98.666,115.328 97.866,115.328 97.866,118.251 98.666,118.251 98.666,119.251 112.488,119.251 112.488,118.251 113.288,118.251 113.288,115.328 112.488,115.328 112.488,109.351 113.288,109.351 113.288,106.428 112.488,106.428 112.488,105.428" style="fill:none;stroke-width:0.050000mm;stroke:black"/>
<polygon points="117.716,105.428 117.716,106.428 116.916,106.428 116.916,109.351 117.716,109.351 117.716,115.328 116.916,115.328 116.916,118.251 117.716,118.251 117.716,119.251 131.538,119.251 131.538,118.251 132.338,118.251 132.338,115.328 131.538,115.328 131.538,109.351 132.338,109.351 132.338,106.428 131.538,106.428 131.538,105.428" style="fill:none;stroke-width:0.050000mm;stroke:black"/>
<polygon points="136.766,105.428 136.766,106.428 135.966,106.428 135.966,109.351 136.766,109.351 136.766,115.328 135.966,115.328 135.966,118.251 136.766,118.251 136.766,119.251 150.588,119.251 150.588,118.251 151.388,118.251 151.388,115.328 150.588,115.328 150.588,109.351 151.388,109.351 151.388,106.428 150.588,106.428 150.588,105.428" style="fill:none;stroke-width:0.050000mm;stroke:black"/>
<polygon points="155.816,105.428 155.816,106.428 155.016,106.428 155.016,109.351 155.816,109.351 155.816,115.328 155.016,115.328 155.016,118.251 155.816,118.251 155.816,119.251 169.638,119.251 169.638,118.251 170.438,118.251 170.438,115.328 169.638,115.328 169.638,109.351 170.438,109.351 170.438,106.428 169.638,106.428 169.638,105.428" style="fill:none;stroke-width:0.050000mm;stroke:black"/>
<polygon points="174.866,105.428 174.866,106.428 174.066,106.428 174.066,109.351 174.866,109.351 174.866,115.328 174.066,115.328 174.066,118.251 174.866,118.251 174.866,119.251 188.688,119.251 188.688,118.251 189.488,118.251 189.488,115.328 188.688,115.328 188.688,109.351 189.488,109.351 189.488,106.428 188.688,106.428 188.688,105.428" style="fill:none;stroke-width:0.050000mm;stroke:black"/>
<polygon points="193.916,105.428 193.916,106.428 193.116,106.428 193.116,109.351 193.916,109.351 193.916,115.328 193.116,115.328 193.116,118.251 193.916,118.251 193.916,119.251 207.738,119.251 207.738,118.251 208.538,118.251 208.538,115.328 207.738,115.328 207.738,109.351 208.538,109.351 208.538,106.428 207.738,106.428 207.738,105.428" style="fill:none;stroke-width:0.050000mm;stroke:black"/>
<polygon points="212.966,105.428 212.966,106.428 212.166,106.428 212.166,109.351 212.966,109.351 212.966,115.328 212.166,115.328 212.166,118.251 212.966,118.251 212.966,119.251 226.788,119.251 226.788,118.251 227.588,118.251 227.588,115.328 226.788,115.328 226.788,109.351 227.588,109.351 227.588,106.428 226.788,106.428 226.788,105.428" style="fill:none;stroke-width:0.050000mm;stroke:black"/>
<polygon points="232.016,105.428 232.016,106.428 231.216,106.428 231.216,109.351 232.016,109.351 232.016,115.328 231.216,115.328 231.216,118.251 232.016,118.251 232.016,119.251 245.838,119.251 245.838,118.251 246.638,118.251 246.638,115.328 245.838,115.328 245.838,109.351 246.638,109.351 246.638,106.428 245.838,106.428 245.838,105.428" style="fill:none;stroke-width:0.050000mm;stroke:black"/>
<polygon points="308.216,105.428 308.216,106.428 307.416,106.428 307.416,109.351 308.216,109.351 308.216,115.328 307.416,115.328 307.416,118.251 308.216,118.251 308.216,119.251 322.038,119.251 322.038,118.251 322.838,118.251 322.838,115.328 322.038,115.328 322.038,109.351 322.838,109.351 322.838,106.428 322.038,106.428 322.038,105.428" style="fill:none;stroke-width:0.050000mm;stroke:black"/>
<polygon points="327.266,105.428 327.266,106.428 326.466,106.428 326.466,109.351 327.266,109.351 327.266,115.328 326.466,115.328 326.466,118.251 327.266,118.251 327.266,119.251 341.088,119.251 341.088,118.251 341.888,118.251 341.888,115.328 341.088,115.328 341.088,109.351 341.888,109.351 341.888,106.428 341.088,106.428 341.088,105.428" style="fill:none;stroke-width:0.050000mm;stroke:black"/>
<polygon points="346.316,105.428 346.316,106.428 345.516,106.428 345.516,109.351 346.316,109.351 346.316,115.328 345.516,115.328 345.516,118.251 346.316,118.251 346.316,119.251 360.138,119.251 360.138,118.251 360.938,118.251 360.938,115.328 360.138,115.328 360.138,109.351 360.938,109.351 360.938,106.428 360.138,106.428 360.138,105.428" style="fill:none;stroke-width:0.050000mm;stroke:black"/>
<polygon points="272.497,86.378 272.497,87.378 271.697,87.378 271.697,90.301 272.497,90.301 272.497,91.078 270.794,91.078 270.794,87.848 264.222,87.848 264.222,91.078 263.397,91.078 263.397,93.701 264.222,93.701 264.222,99.971 265.947,99.971 265.947,101.171 269.069,101.171 269.069,99.971 270.794,99.971 270.794,95.501 272.497,95.501 272.497,96.278 271.697,96.278 271.697,99.201 272.497,99.201 272.497,100.201 286.319,100.201 286.319,99.201 287.119,99.201 287.119,96.278 286.319,96.278 286.319,95.501 288.022,95.501 288.022,99.971 289.747,99.971 289.747,101.171 292.869,101.171 292.869,99.971 294.594,99.971 294.594,93.701 295.419,93.701 295.419,91.078 294.594,91.078 294.594,87.848 288.022,87.848 288.022,91.078 286.319,91.078 286.319,90.301 287.119,90.301 287.119,87.378 286.319,87.378 286.319,86.378" style="fill:none;stroke-width:0.050000mm;stroke:black"/>
<polygon points="24.847,86.378 24.847,87.378 24.047,87.378 24.047,90.301 24.847,90.301 24.847,96.278 24.047,96.278 24.047,99.201 24.847,99.201 24.847,100.201 38.669,100.201 38.669,99.201 39.469,99.201 39.469,96.278 38.669,96.278 38.669,90.301 39.469,90.301 39.469,87.378 38.669,87.378 38.669,86.378" style="fill:none;stroke-width:0.050000mm;stroke:black"/>
<polygon points="51.041,86.378 51.041,87.378 50.241,87.378 50.241,90.301 51.041,90.301 51.041,96.278 50.241,96.278 50.241,99.201 51.041,99.201 51.041,100.201 64.862,100.201 64.862,99.201 65.663,99.201 65.663,96.278 64.862,96.278 64.862,90.301 65.663,90.301 65.663,87.378 64.862,87.378 64.862,86.378" style="fill:none;stroke-width:0.050000mm;stroke:black"/>
<polygon points="70.091,86.378 70.091,87.378 69.291,87.378 69.291,90.301 70.091,90.301 70.091,96.278 69.291,96.278 69.291,99.201 70.091,99.201 70.091,100.201 83.913,100.201 83.913,99.201 84.713,99.201 84.713,96.278 83.913,96.278 83.913,90.301 84.713,90.301 84.713,87.378 83.913,87.378 83.913,86.378" style="fill:none;stroke-width:0.050000mm;stroke:black"/>
<polygon points="89.141,86.378 89.141,87.378 88.341,87.378 88.341,90.301 89.141,90.301 89.141,96.278 88.341,96.278 88.341,99.201 89.141,99.201 89.141,100.201 102.963,100.201 102.963,99.201 103.763,99.201 103.763,96.278 102.963,96.278 102.963,90.301 103.763,90.301 103.763,87.378 102.963,87.378 102.963,86.378" style="fill:none;stroke-width:0.050000mm;stroke:black"/>
<polygon points="108.191,86.378 108.191,87.378 107.391,87.378 107.391,90.301 108.191,90.301 108.191,96.278 107.391,96.278 107.391,99.201 108.191,99.201 108.191,100.201 122.013,100.201 122.013,99.201 122.813,99.201 122.813,96.278 122.013,96.278 122.013,90.301 122.813,90.301 122.813,87.378 122.013,87.378 122.013,86.378" style="fill:none;stroke-width:0.050000mm;stroke:black"/>
<polygon points="127.241,86.378 127.241,87.378 126.441,87.378 126.441,90.301 127.241,90.301 127.241,96.278 126.441,96.278 126.441,99.201 127.241,99.201 127.241,100.201 141.063,100.201 141.063,99.201 141.863,99.201 141.863,96.278 141.063,96.278 141.063,90.301 141.863,90.301 141.863,87.378 141.063,87.378 141.063,86.378" style="fill:none;stroke-width:0.050000mm;stroke:black"/>
<polygon points="146.291,86.378 146.291,87.378 145.491,87.378 145.491,90.301 146.291,90.301 146.291,96.278 145.491,96.278 145.491,99.201 146.291,99.201 146.291,100.201 160.113,100.201 160.113,99.201 160.913,99.201 160.913,96.278 160.113,96.278 160.113,90.301 160.913,90.301 160.913,87.378 160.113,87.378 160.113,86.378" style="fill:none;stroke-width:0.050000mm;stroke:black"/>
<polygon points="165.341,86.378 165.341,87.378 164.541,87.378 164.541,90.301 165.341,90.301 165.341,96.278 164.541,96.278 164.541,99.201 165.341,99.201 165.341,100.201 179.163,100.201 179.163,99.201 179.963,99.201 179.963,96.278 179.163,96.278 179.163,90.301 179.963,90.301 179.963,87.378 179.163,87.378 179.163,86.378" style="fill:none;stroke-width:0.050000mm;stroke:black"/>
<polygon points="184.391,86.378 184.391,87.378 183.591,87.378 183.591,90.301 184.391,90.301 184.391,96.278 183.591,96.278 183.591,99.201 184.391,99.201 184.391,100.201 198.213,100.201 198.213,99.201 199.013,99.201 199.013,96.278 198.213,96.278 198.213,90.301 199.013,90.301 199.013,87.378 198.213,87.378 198.213,86.378" style="fill:none;stroke-width:0.050000mm;stroke:black"/>
<polygon points="203.441,86.378 203.441,87.378 202.641,87.378 202.641,90.301 203.441,90.301 203.441,96.278 202.641,96.278 202.641,99.201 203.441,99.201 203.441,100.201 217.263,100.201 217.263,99.201 218.063,99.201 218.063,96.278 217.263,96.278 217.263,90.301 218.063,90.301 218.063,87.378 217.263,87.378 217.263,86.378" style="fill:none;stroke-width:0.050000mm;stroke:black"/>
<polygon points="222.491,86.378 222.491,87.378 221.691,87.378 221.691,90.301 222.491,90.301 222.491,96.278 221.691,96.278 221.691,99.201 222.491,99.201 222.491,100.201 236.313,100.201 236.313,99.201 237.113,99.201 237.113,96.278 236.313,96.278 236.313,90.301 237.113,90.301 237.113,87.378 236.313,87.378 236.313,86.378" style="fill:none;stroke-width:0.050000mm;stroke:black"/>
<polygon points="241.541,86.378 241.541,87.378 240.741,87.378 240.741,90.301 241.541,90.301 241.541,96.278 240.741,96.278 240.741,99.201 241.541,99.201 241.541,100.201 255.363,100.201 255.363,99.201 256.162,99.201 256.162,96.278 255.363,96.278 255.363,90.301 256.162,90.301 256.162,87.378 255.363,87.378 255.363,86.378" style="fill:none;stroke-width:0.050000mm;stroke:black"/>
<polygon points="308.216,86.378 308.216,87.378 307.416,87.378 307.416,90.301 308.216,90.301 308.216,96.278 307.416,96.278 307.416,99.201 308.216,99.201 308.216,100.201 322.038,100.201 322.038,99.201 322.838,99.201 322.838,96.278 322.038,96.278 322.038,90.301 322.838,90.301 322.838,87.378 322.038,87.378 322.038,86.378" style="fill:none;stroke-width:0.050000mm;stroke:black"/>
<polygon points="327.266,86.378 327.266,87.378 326.466,87.378 326.466,90.301 327.266,90.301 327.266,96.278 326.466,96.278 326.466,99.201 327.266,99.201 327.266,100.201 341.088,100.201 341.088,99.201 341.888,99.201 341.888,96.278 341.088,96.278 341.088,90.301 341.888,90.301 341.888,87.378 341.088,87.378 341.088,86.378" style="fill:none;stroke-width:0.050000mm;stroke:black"/>
<polygon points="346.316,86.378 346.316,87.378 345.516,87.378 345.516,90.301 346.316,90.301 346.316,96.278 345.516,96.278 345.516,99.201 346.316,99.201 346.316,100.201 360.138,100.201 360.138,99.201 360.938,99.201 360.938,96.278 360.138,96.278 360.138,90.301 360.938,90.301 360.938,87.378 360.138,87.378 360.138,86.378" style="fill:none;stroke-width:0.050000mm;stroke:black"/>
<polygon points="22.466,67.328 22.466,68.328 21.666,68.328 21.666,71.251 22.466,71.251 22.466,77.228 21.666,77.228 21.666,80.151 22.466,80.151 22.466,81.151 36.288,81.151 36.288,80.151 37.088,80.151 37.088,77.228 36.288,77.228 36.288,71.251 37.088,71.251 37.088,68.328 36.288,68.328 36.288,67.328" style="fill:none;stroke-width:0.050000mm;stroke:black"/>
<polygon points="46.278,67.328 46.278,68.328 45.478,68.328 45.478,71.251 46.278,71.251 46.278,77.228 45.478,77.228 45.478,80.151 46.278,80.151 46.278,81.151 60.101,81.151 60.101,80.151 60.901,80.151 60.901,77.228 60.101,77.228 60.101,71.251 60.901,71.251 60.901,68.328 60.101,68.328 60.101,67.328" style="fill:none;stroke-width:0.050000mm;stroke:black"/>
<polygon points="65.328,67.328 65.328,68.328 64.528,68.328 64.528,71.251 65.328,71.251 65.328,77.228 64.528,77.228 64.528,80.151 65.328,80.151 65.328,81.151 79.151,81.151 79.151,80.151 79.951,80.151 79.951,77.228 79.151,77.228 79.151,71.251 79.951,71.251 79.951,68.328 79.151,68.328 79.151,67.328" style="fill:none;stroke-width:0.050000mm;stroke:black"/>
<polygon points="84.378,67.328 84.378,68.328 83.578,68.328 83.578,71.251 84.378,71.251 84.378,77.228 83.578,77.228 83.578,80.151 84.378,80.151 84.378,81.151 98.201,81.151 98.201,80.151 99.001,80.151 99.001,77.228 98.201,77.228 98.201,71.251 99.001,71.251 99.001,68.328 98.201,68.328 98.201,67.328" style="fill:none;stroke-width:0.050000mm;stroke:black"/>
<polygon points="103.428,67.328 103.428,68.328 102.628,68.328 102.628,71.251 103.428,71.251 103.428,77.228 102.628,77.228 102.628,80.151 103.428,80.151 103.428,81.151 117.251,81.151 117.251,80.151 118.051,80.151 118.051,77.228 117.251,77.228 117.251,71.251 118.051,71.251 118.051,68.328 117.251,68.328 117.251,67.328" style="fill:none;stroke-width:0.050000mm;stroke:black"/>
<polygon points="122.478,67.328 122.478,68.328 121.678,68.328 121.678,71.251 122.478,71.251 122.478,77.228 121.678,77.228 121.678,80.151 122.478,80.151 122.478,81.151 136.301,81.151 136.301,80.151 137.101,80.151 137.101,77.228 136.301,77.228 136.301,71.251 137.101,71.251 137.101,68.328 136.301,68.328 136.301,67.328" style="fill:none;stroke-width:0.050000mm;stroke:black"/>
<polygon points="141.528,67.328 141.528,68.328 140.728,68.328 140.728,71.251 141.528,71.251 141.528,77.228 140.728,77.228 140.728,80.151 141.528,80.151 141.528,81.151 155.351,81.151 155.351,80.151 156.151,80.151 156.151,77.228 155.351,77.228 155.351,71.251 156.151,71.251 156.151,68.328 155.351,68.328 155.351,67.328" style="fill:none;stroke-width:0.050000mm;stroke:black"/>
<polygon points="160.578,67.328 160.578,68.328 159.778,68.328 159.778,71.251 160.578,71.251 160.578,77.228 159.778,77.228 159.778,80.151 160.578,80.151 160.578,81.151 174.401,81.151 174.401,80.151 175.201,80.151 175.201,77.228 174.401,77.228 174.401,71.251 175.201,71.251 175.201,68.328 174.401,68.328 174.401,67.328" style="fill:none;stroke-width:0.050000mm;stroke:black"/>
<polygon points="179.628,67.328 179.628,68.328 178.828,68.328 178.828,71.251 179.628,71.251 179.628,77.228 178.828,77.228 178.828,80.151 179.628,80.151 179.628,81.151 193.451,81.151 193.451,80.151 194.251,80.151 194.251,77.228 193.451,77.228 193.451,71.251 194.251,71.251 194.251,68.328 193.451,68.328 193.451,67.328" style="fill:none;stroke-width:0.050000mm;stroke:black"/>
<polygon points="198.678,67.328 198.678,68.328 197.878,68.328 197.878,71.251 198.678,71.251 198.678,77.228 197.878,77.228 197.878,80.151 198.678,80.151 198.678,81.151 212.501,81.151 212.501,80.151 213.301,80.151 213.301,77.228 212.501,77.228 212.501,71.251 213.301,71.251 213.301,68.328 212.501,68.328 212.501,67.328" style="fill:none;stroke-width:0.050000mm;stroke:black"/>
<polygon points="217.728,67.328 217.728,68.328 216.928,68.328 216.928,71.251 217.728,71.251 217.728,77.228 216.928,77.228 216.928,80.151 217.728,80.151 217.728,81.151 231.551,81.151 231.551,80.151 232.351,80.151 232.351,77.228 231.551,77.228 231.551,71.251 232.351,71.251 232.351,68.328 231.551,68.328 231.551,67.328" style="fill:none;stroke-width:0.050000mm;stroke:black"/>
<polygon points="236.778,67.328 236.778,68.328 235.978,68.328 235.978,71.251 236.778,71.251 236.778,77.228 235.978,77.228 235.978,80.151 236.778,80.151 236.778,81.151 250.601,81.151 250.601,80.151 251.401,80.151 251.401,77.228 250.601,77.228 250.601,71.251 251.401,71.251 251.401,68.328 250.601,68.328 250.601,67.328" style="fill:none;stroke-width:0.050000mm;stroke:black"/>
<polygon points="255.828,67.328 255.828,68.328 255.028,68.328 255.028,71.251 255.828,71.251 255.828,77.228 255.028,77.228 255.028,80.151 255.828,80.151 255.828,81.151 269.651,81.151 269.651,80.151 270.451,80.151 270.451,77.228 269.651,77.228 269.651,71.251 270.451,71.251 270.451,68.328 269.651,68.328 269.651,67.328" style="fill:none;stroke-width:0.050000mm;stroke:black"/>
<polygon points="279.641,67.328 279.641,68.328 278.841,68.328 278.841,71.251 279.641,71.251 279.641,77.228 278.841,77.228 278.841,80.151 279.641,80.151 279.641,81.151 293.463,81.151 293.463,80.151 294.263,80.151 294.263,77.228 293.463,77.228 293.463,71.251 294.263,71.251 294.263,68.328 293.463,68.328 293.463,67.328" style="fill:none;stroke-width:0.050000mm;stroke:black"/>
<polygon points="308.216,67.328 308.216,68.328 307.416,68.328 307.416,71.251 308.216,71.251 308.216,77.228 307.416,77.228 307.416,80.151 308.216,80.151 308.216,81.151 322.038,81.151 322.038,80.151 322.838,80.151 322.838,77.228 322.038,77.228 322.038,71.251 322.838,71.251 322.838,68.328 322.038,68.328 322.038,67.328" style="fill:none;stroke-width:0.050000mm;stroke:black"/>
<polygon points="327.266,67.328 327.266,68.328 326.466,68.328 326.466,71.251 327.266,71.251 327.266,77.228 326.466,77.228 326.466,80.151 327.266,80.151 327.266,81.151 341.088,81.151 341.088,80.151 341.888,80.151 341.888,77.228 341.088,77.228 341.088,71.251 341.888,71.251 341.888,68.328 341.088,68.328 341.088,67.328" style="fill:none;stroke-width:0.050000mm;stroke:black"/>
<polygon points="346.316,67.328 346.316,68.328 345.516,68.328 345.516,71.251 346.316,71.251 346.316,77.228 345.516,77.228 345.516,80.151 346.316,80.151 346.316,81.151 360.138,81.151 360.138,80.151 360.938,80.151 360.938,77.228 360.138,77.228 360.138,71.251 360.938,71.251 360.938,68.328 360.138,68.328 360.138,67.328" style="fill:none;stroke-width:0.050000mm;stroke:black"/>
<polygon points="367.471,78.136 367.217,78.265 367.016,78.467 366.886,78.721 366.842,79.002 366.886,79.284 367.016,79.538 367.217,79.739 367.471,79.869 367.753,79.913 368.034,79.869 368.288,79.739 368.490,79.538 368.619,79.284 368.664,79.002 368.619,78.721 368.490,78.467 368.288,78.265 368.034,78.136 367.753,78.091" style="fill:none;stroke-width:0.050000mm;stroke:black"/>
<polygon points="9.808,78.136 9.554,78.265 9.352,78.467 9.223,78.721 9.178,79.002 9.223,79.284 9.352,79.538 9.554,79.739 9.808,79.869 10.089,79.913 10.371,79.869 10.625,79.739 10.826,79.538 10.956,79.284 11.000,79.002 10.956,78.721 10.826,78.467 10.625,78.265 10.371,78.136 10.089,78.091" style="fill:none;stroke-width:0.050000mm;stroke:black"/>
<polygon points="274.878,48.278 274.878,49.278 274.078,49.278 274.078,52.201 274.878,52.201 274.878,52.978 273.176,52.978 273.176,49.748 266.603,49.748 266.603,52.978 265.778,52.978 265.778,55.601 266.603,55.601 266.603,61.871 268.328,61.871 268.328,63.071 271.451,63.071 271.451,61.871 273.176,61.871 273.176,57.401 274.878,57.401 274.878,58.178 274.078,58.178 274.078,61.101 274.878,61.101 274.878,62.101 288.701,62.101 288.701,61.101 289.501,61.101 289.501,58.178 288.701,58.178 288.701,57.401 290.403,57.401 290.403,61.871 292.128,61.871 292.128,63.071 295.251,63.071 295.251,61.871 296.976,61.871 296.976,55.601 297.801,55.601 297.801,52.978 296.976,52.978 296.976,49.748 290.403,49.748 290.403,52.978 288.701,52.978 288.701,52.201 289.501,52.201 289.501,49.278 288.701,49.278 288.701,48.278" style="fill:none;stroke-width:0.050000mm;stroke:black"/>
<polygon points="17.703,48.278 17.703,49.278 16.903,49.278 16.903,52.201 17.703,52.201 17.703,58.178 16.903,58.178 16.903,61.101 17.703,61.101 17.703,62.101 31.526,62.101 31.526,61.101 32.326,61.101 32.326,58.178 31.526,58.178 31.526,52.201 32.326,52.201 32.326,49.278 31.526,49.278 31.526,48.278" style="fill:none;stroke-width:0.050000mm;stroke:black"/>
<polygon points="36.753,48.278 36.753,49.278 35.953,49.278 35.953,52.201 36.753,52.201 36.753,58.178 35.953,58.178 35.953,61.101 36.753,61.101 36.753,62.101 50.575,62.101 50.575,61.101 51.376,61.101 51.376,58.178 50.575,58.178 50.575,52.201 51.376,52.201 51.376,49.278 50.575,49.278 50.575,48.278" style="fill:none;stroke-width:0.050000mm;stroke:black"/>
<polygon points="55.803,48.278 55.803,49.278 55.003,49.278 55.003,52.201 55.803,52.201 55.803,58.178 55.003,58.178 55.003,61.101 55.803,61.101 55.803,62.101 69.626,62.101 69.626,61.101 70.426,61.101 70.426,58.178 69.626,58.178 69.626,52.201 70.426,52.201 70.426,49.278 69.626,49.278 69.626,48.278" style="fill:none;stroke-width:0.050000mm;stroke:black"/>
<polygon points="74.853,48.278 74.853,49.278 74.053,49.278 74.053,52.201 74.853,52.201 74.853,58.178 74.053,58.178 74.053,61.101 74.853,61.101 74.853,62.101 88.676,62.101 88.676,61.101 89.476,61.101 89.476,58.178 88.676,58.178 88.676,52.201 89.476,52.201 89.476,49.278 88.676,49.278 88.676,48.278" style="fill:none;stroke-width:0.050000mm;stroke:black"/>
<polygon points="93.903,48.278 93.903,49.278 93.103,49.278 93.103,52.201 93.903,52.201 93.903,58.178 93.103,58.178 93.103,61.101 93.903,61.101 93.903,62.101 107.726,62.101 107.726,61.101 108.525,61.101 108.525,58.178 107.726,58.178 107.726,52.201 108.525,52.201 108.525,49.278 107.726,49.278 107.726,48.278" style="fill:none;stroke-width:0.050000mm;stroke:black"/>
<polygon points="112.953,48.278 112.953,49.278 112.153,49.278 112.153,52.201 112.953,52.201 112.953,58.178 112.153,58.178 112.153,61.101 112.953,61.101 112.953,62.101 126.775,62.101 126.775,61.101 127.575,61.101 127.575,58.178 126.775,58.178 126.775,52.201 127.575,52.201 127.575,49.278 126.775,49.278 126.775,48.278" style="fill:none;stroke-width:0.050000mm;stroke:black"/>
<polygon points="132.003,48.278 132.003,49.278 131.203,49.278 131.203,52.201 132.003,52.201 132.003,58.178 131.203,58.178 131.203,61.101 132.003,61.101 132.003,62.101 145.826,62.101 145.826,61.101 146.625,61.101 146.625,58.178 145.826,58.178 145.826,52.201 146.625,52.201 146.625,49.278 145.826,49.278 145.826,48.278" style="fill:none;stroke-width:0.050000mm;stroke:black"/>
<polygon points="151.053,48.278 151.053,49.278 150.253,49.278 150.253,52.201 151.053,52.201 151.053,58.178 150.253,58.178 150.253,61.101 151.053,61.101 151.053,62.101 164.876,62.101 164.876,61.101 165.675,61.101 165.675,58.178 164.876,58.178 164.876,52.201 165.675,52.201 165.675,49.278 164.876,49.278 164.876,48.278" style="fill:none;stroke-width:0.050000mm;stroke:black"/>
<polygon points="170.103,48.278 170.103,49.278 169.303,49.278 169.303,52.201 170.103,52.201 170.103,58.178 169.303,58.178 169.303,61.101 170.103,61.101 170.103,62.101 183.926,62.101 183.926,61.101 184.726,61.101 184.726,58.178 183.926,58.178 183.926,52.201 184.726,52.201 184.726,49.278 183.926,49.278 183.926,48.278" style="fill:none;stroke-width:0.050000mm;stroke:black"/>
<polygon points="189.153,48.278 189.153,49.278 188.353,49.278 188.353,52.201 189.153,52.201 189.153,58.178 188.353,58.178 188.353,61.101 189.153,61.101 189.153,62.101 202.976,62.101 202.976,61.101 203.776,61.101 203.776,58.178 202.976,58.178 202.976,52.201 203.776,52.201 203.776,49.278 202.976,49.278 202.976,48.278" style="fill:none;stroke-width:0.050000mm;stroke:black"/>
<polygon points="208.203,48.278 208.203,49.278 207.403,49.278 207.403,52.201 208.203,52.201 208.203,58.178 207.403,58.178 207.403,61.101 208.203,61.101 208.203,62.101 222.026,62.101 222.026,61.101 222.826,61.101 222.826,58.178 222.026,58.178 222.026,52.201 222.826,52.201 222.826,49.278 222.026,49.278 222.026,48.278" style="fill:none;stroke-width:0.050000mm;stroke:black"/>
<polygon points="227.253,48.278 227.253,49.278 226.453,49.278 226.453,52.201 227.253,52.201 227.253,58.178 226.453,58.178 226.453,61.101 227.253,61.101 227.253,62.101 241.076,62.101 241.076,61.101 241.876,61.101 241.876,58.178 241.076,58.178 241.076,52.201 241.876,52.201 241.876,49.278 241.076,49.278 241.076,48.278" style="fill:none;stroke-width:0.050000mm;stroke:black"/>
<polygon points="246.303,48.278 246.303,49.278 245.503,49.278 245.503,52.201 246.303,52.201 246.303,58.178 245.503,58.178 245.503,61.101 246.303,61.101 246.303,62.101 260.126,62.101 260.126,61.101 260.926,61.101 260.926,58.178 260.126,58.178 260.126,52.201 260.926,52.201 260.926,49.278 260.126,49.278 260.126,48.278" style="fill:none;stroke-width:0.050000mm;stroke:black"/>
<polygon points="308.216,48.278 308.216,49.278 307.416,49.278 307.416,52.201 308.216,52.201 308.216,58.178 307.416,58.178 307.416,61.101 308.216,61.101 308.216,62.101 322.038,62.101 322.038,61.101 322.838,61.101 322.838,58.178 322.038,58.178 322.038,52.201 322.838,52.201 322.838,49.278 322.038,49.278 322.038,48.278" style="fill:none;stroke-width:0.050000mm;stroke:black"/>
<polygon points="327.266,48.278 327.266,49.278 326.466,49.278 326.466,52.201 327.266,52.201 327.266,58.178 326.466,58.178 326.466,61.101 327.266,61.101 327.266,62.101 341.088,62.101 341.088,61.101 341.888,61.101 341.888,58.178 341.088,58.178 341.088,52.201 341.888,52.201 341.888,49.278 341.088,49.278 341.088,48.278" style="fill:none;stroke-width:0.050000mm;stroke:black"/>
<polygon points="346.316,48.278 346.316,49.278 345.516,49.278 345.516,52.201 346.316,52.201 346.316,58.178 345.516,58.178 345.516,61.101 346.316,61.101 346.316,62.101 360.138,62.101 360.138,61.101 360.938,61.101 360.938,58.178 360.138,58.178 360.138,52.201 360.938,52.201 360.938,49.278 360.138,49.278 360.138,48.278" style="fill:none;stroke-width:0.050000mm;stroke:black"/>
<polygon points="17.703,19.703 17.703,20.703 16.903,20.703 16.903,23.626 17.703,23.626 17.703,29.603 16.903,29.603 16.903,32.526 17.703,32.526 17.703,33.526 31.526,33.526 31.526,32.526 32.326,32.526 32.326,29.603 31.526,29.603 31.526,23.626 32.326,23.626 32.326,20.703 31.526,20.703 31.526,19.703" style="fill:none;stroke-width:0.050000mm;stroke:black"/>
<polygon points="55.803,19.703 55.803,20.703 55.003,20.703 55.003,23.626 55.803,23.626 55.803,29.603 55.003,29.603 55.003,32.526 55.803,32.526 55.803,33.526 69.626,33.526 69.626,32.526 70.426,32.526 70.426,29.603 69.626,29.603 69.626,23.626 70.426,23.626 70.426,20.703 69.626,20.703 69.626,19.703" style="fill:none;stroke-width:0.050000mm;stroke:black"/>
<polygon points="74.853,19.703 74.853,20.703 74.053,20.703 74.053,23.626 74.853,23.626 74.853,29.603 74.053,29.603 74.053,32.526 74.853,32.526 74.853,33.526 88.676,33.526 88.676,32.526 89.476,32.526 89.476,29.603 88.676,29.603 88.676,23.626 89.476,23.626 89.476,20.703 88.676,20.703 88.676,19.703" style="fill:none;stroke-width:0.050000mm;stroke:black"/>
<polygon points="93.903,19.703 93.903,20.703 93.103,20.703 93.103,23.626 93.903,23.626 93.903,29.603 93.103,29.603 93.103,32.526 93.903,32.526 93.903,33.526 107.726,33.526 107.726,32.526 108.526,32.526 108.526,29.603 107.726,29.603 107.726,23.626 108.526,23.626 108.526,20.703 107.726,20.703 107.726,19.703" style="fill:none;stroke-width:0.050000mm;stroke:black"/>
<polygon points="112.953,19.703 112.953,20.703 112.153,20.703 112.153,23.626 112.953,23.626 112.953,29.603 112.153,29.603 112.153,32.526 112.953,32.526 112.953,33.526 126.776,33.526 126.776,32.526 127.576,32.526 127.576,29.603 126.776,29.603 126.776,23.626 127.576,23.626 127.576,20.703 126.776,20.703 126.776,19.703" style="fill:none;stroke-width:0.050000mm;stroke:black"/>
<polygon points="141.528,19.703 141.528,20.703 140.728,20.703 140.728,23.626 141.528,23.626 141.528,29.603 140.728,29.603 140.728,32.526 141.528,32.526 141.528,33.526 155.351,33.526 155.351,32.526 156.150,32.526 156.150,29.603 155.351,29.603 155.351,23.626 156.150,23.626 156.150,20.703 155.351,20.703 155.351,19.703" style="fill:none;stroke-width:0.050000mm;stroke:black"/>
<polygon points="160.578,19.703 160.578,20.703 159.778,20.703 159.778,23.626 160.578,23.626 160.578,29.603 159.778,29.603 159.778,32.526 160.578,32.526 160.578,33.526 174.401,33.526 174.401,32.526 175.201,32.526 175.201,29.603 174.401,29.603 174.401,23.626 175.201,23.626 175.201,20.703 174.401,20.703 174.401,19.703" style="fill:none;stroke-width:0.050000mm;stroke:black"/>
<polygon points="179.628,19.703 179.628,20.703 178.828,20.703 178.828,23.626 179.628,23.626 179.628,29.603 178.828,29.603 178.828,32.526 179.628,32.526 179.628,33.526 193.451,33.526 193.451,32.526 194.251,32.526 194.251,29.603 193.451,29.603 193.451,23.626 194.251,23.626 194.251,20.703 193.451,20.703 193.451,19.703" style="fill:none;stroke-width:0.050000mm;stroke:black"/>
<polygon points="198.678,19.703 198.678,20.703 197.878,20.703 197.878,23.626 198.678,23.626 198.678,29.603 197.878,29.603 197.878,32.526 198.678,32.526 198.678,33.526 212.501,33.526 212.501,32.526 213.301,32.526 213.301,29.603 212.501,29.603 212.501,23.626 213.301,23.626 213.301,20.703 212.501,20.703 212.501,19.703" style="fill:none;stroke-width:0.050000mm;stroke:black"/>
<polygon points="227.253,19.703 227.253,20.703 226.453,20.703 226.453,23.626 227.253,23.626 227.253,29.603 226.453,29.603 226.453,32.526 227.253,32.526 227.253,33.526 241.076,33.526 241.076,32.526 241.876,32.526 241.876,29.603 241.076,29.603 241.076,23.626 241.876,23.626 241.876,20.703 241.076,20.703 241.076,19.703" style="fill:none;stroke-width:0.050000mm;stroke:black"/>
<polygon points="246.303,19.703 246.303,20.703 245.503,20.703 245.503,23.626 246.303,23.626 246.303,29.603 245.503,29.603 245.503,32.526 246.303,32.526 246.303,33.526 260.126,33.526 260.126,32.526 260.926,32.526 260.926,29.603 260.126,29.603 260.126,23.626 260.926,23.626 260.926,20.703 260.126,20.703 260.126,19.703" style="fill:none;stroke-width:0.050000mm;stroke:black"/>
<polygon points="265.353,19.703 265.353,20.703 264.553,20.703 264.553,23.626 265.353,23.626 265.353,29.603 264.553,29.603 264.553,32.526 265.353,32.526 265.353,33.526 279.176,33.526 279.176,32.526 279.976,32.526 279.976,29.603 279.176,29.603 279.176,23.626 279.976,23.626 279.976,20.703 279.176,20.703 279.176,19.703" style="fill:none;stroke-width:0.050000mm;stroke:black"/>
<polygon points="284.403,19.703 284.403,20.703 283.603,20.703 283.603,23.626 284.403,23.626 284.403,29.603 283.603,29.603 283.603,32.526 284.403,32.526 284.403,33.526 298.226,33.526 298.226,32.526 299.026,32.526 299.026,29.603 298.226,29.603 298.226,23.626 299.026,23.626 299.026,20.703 298.226,20.703 298.226,19.703" style="fill:none;stroke-width:0.050000mm;stroke:black"/>
<polygon points="308.216,19.703 308.216,20.703 307.416,20.703 307.416,23.626 308.216,23.626 308.216,29.603 307.416,29.603 307.416,32.526 308.216,32.526 308.216,33.526 322.038,33.526 322.038,32.526 322.838,32.526 322.838,29.603 322.038,29.603 322.038,23.626 322.838,23.626 322.838,20.703 322.038,20.703 322.038,19.703" style="fill:none;stroke-width:0.050000mm;stroke:black"/>
<polygon points="327.266,19.703 327.266,20.703 326.466,20.703 326.466,23.626 327.266,23.626 327.266,29.603 326.466,29.603 326.466,32.526 327.266,32.526 327.266,33.526 341.088,33.526 341.088,32.526 341.888,32.526 341.888,29.603 341.088,29.603 341.088,23.626 341.888,23.626 341.888,20.703 341.088,20.703 341.088,19.703" style="fill:none;stroke-width:0.050000mm;stroke:black"/>
<polygon points="346.316,19.703 346.316,20.703 345.516,20.703 345.516,23.626 346.316,23.626 346.316,29.603 345.516,29.603 345.516,32.526 346.316,32.526 346.316,33.526 360.138,33.526 360.138,32.526 360.938,32.526 360.938,29.603 360.138,29.603 360.138,23.626 360.938,23.626 360.938,20.703 360.138,20.703 360.138,19.703" style="fill:none;stroke-width:0.050000mm;stroke:black"/>
<polygon points="129.028,9.223 128.775,9.352 128.573,9.554 128.444,9.808 128.399,10.089 128.444,10.371 128.573,10.625 128.775,10.826 129.028,10.956 129.311,11.000 129.592,10.956 129.846,10.826 130.048,10.625 130.176,10.371 130.222,10.089 130.176,9.808 130.048,9.554 129.846,9.352 129.592,9.223 129.311,9.178" style="fill:none;stroke-width:0.050000mm;stroke:black"/>
<polygon points="248.250,9.223 247.996,9.352 247.795,9.554 247.665,9.808 247.621,10.089 247.665,10.371 247.795,10.625 247.996,10.826 248.250,10.956 248.532,11.000 248.813,10.956 249.067,10.826 249.269,10.625 249.398,10.371 249.443,10.089 249.398,9.808 249.269,9.554 249.067,9.352 248.813,9.223 248.532,9.178" style="fill:none;stroke-width:0.050000mm;stroke:black"/>
<polygon points="367.471,9.223 367.217,9.352 367.016,9.554 366.886,9.808 366.842,10.089 366.886,10.371 367.016,10.625 367.217,10.826 367.471,10.956 367.753,11.000 368.034,10.956 368.288,10.826 368.490,10.625 368.619,10.371 368.664,10.089 368.619,9.808 368.490,9.554 368.288,9.352 368.034,9.223 367.753,9.178" style="fill:none;stroke-width:0.050000mm;stroke:black"/>
<polygon points="9.808,9.223 9.554,9.352 9.352,9.554 9.223,9.808 9.178,10.089 9.223,10.371 9.352,10.625 9.554,10.826 9.808,10.956 10.089,11.000 10.371,10.956 10.625,10.826 10.826,10.625 10.956,10.371 11.000,10.089 10.956,9.808 10.826,9.554 10.625,9.352 10.371,9.223 10.089,9.178" style="fill:none;stroke-width:0.050000mm;stroke:black"/>
</svg>
