  0
SECTION
  2
HEADER
  9
$ACADVER
  1
AC1009
  9
$EXTMIN
 10
0.0
 20
0.0
 30
0.0
  9
$EXTMAX
 10
1000.0
 20
1000.0
 30
0.0
  9
$FILLMODE
 70
 0
  9
$SPLFRAME
 70
 1
  0
ENDSEC
  0
SECTION
  2
TABLES
  0
TABLE
  2
LAYER
 70
1
  0
LAYER
  2
0
 70
     0
 62
     7
  6
CONTINUOUS
  0
ENDTAB
  0
ENDSEC
  0
SECTION
  2
ENTITIES
  0
LINE
  8
0
 62
     0
 10
365.936
 20
148.092
 30
0.0
 11
366.092
 21
148.087
 31
0.0
  0
LINE
  8
0
 62
     0
 10
366.092
 20
148.087
 30
0.0
 11
366.247
 21
148.069
 31
0.0
  0
LINE
  8
0
 62
     0
 10
366.247
 20
148.069
 30
0.0
 11
366.402
 21
148.037
 31
0.0
  0
LINE
  8
0
 62
     0
 10
366.402
 20
148.037
 30
0.0
 11
366.554
 21
147.996
 31
0.0
  0
LINE
  8
0
 62
     0
 10
366.554
 20
147.996
 30
0.0
 11
366.698
 21
147.941
 31
0.0
  0
LINE
  8
0
 62
     0
 10
366.698
 20
147.941
 30
0.0
 11
366.843
 21
147.876
 31
0.0
  0
LINE
  8
0
 62
     0
 10
366.843
 20
147.876
 30
0.0
 11
366.981
 21
147.799
 31
0.0
  0
LINE
  8
0
 62
     0
 10
366.981
 20
147.799
 30
0.0
 11
367.111
 21
147.712
 31
0.0
  0
LINE
  8
0
 62
     0
 10
367.111
 20
147.712
 30
0.0
 11
367.235
 21
147.614
 31
0.0
  0
LINE
  8
0
 62
     0
 10
367.235
 20
147.614
 30
0.0
 11
367.348
 21
147.508
 31
0.0
  0
LINE
  8
0
 62
     0
 10
367.348
 20
147.508
 30
0.0
 11
367.457
 21
147.392
 31
0.0
  0
LINE
  8
0
 62
     0
 10
367.457
 20
147.392
 30
0.0
 11
367.552
 21
147.268
 31
0.0
  0
LINE
  8
0
 62
     0
 10
367.552
 20
147.268
 30
0.0
 11
367.64
 21
147.137
 31
0.0
  0
LINE
  8
0
 62
     0
 10
367.64
 20
147.137
 30
0.0
 11
367.718
 21
147.001
 31
0.0
  0
LINE
  8
0
 62
     0
 10
367.718
 20
147.001
 30
0.0
 11
367.785
 21
146.859
 31
0.0
  0
LINE
  8
0
 62
     0
 10
367.785
 20
146.859
 30
0.0
 11
367.838
 21
146.711
 31
0.0
  0
LINE
  8
0
 62
     0
 10
367.838
 20
146.711
 30
0.0
 11
367.88
 21
146.56
 31
0.0
  0
LINE
  8
0
 62
     0
 10
367.88
 20
146.56
 30
0.0
 11
367.912
 21
146.406
 31
0.0
  0
LINE
  8
0
 62
     0
 10
367.912
 20
146.406
 30
0.0
 11
367.93
 21
146.25
 31
0.0
  0
LINE
  8
0
 62
     0
 10
367.93
 20
146.25
 30
0.0
 11
367.937
 21
146.093
 31
0.0
  0
LINE
  8
0
 62
     0
 10
367.937
 20
146.093
 30
0.0
 11
367.937
 21
2.08911
 31
0.0
  0
LINE
  8
0
 62
     0
 10
367.937
 20
2.08911
 30
0.0
 11
367.93
 21
1.93201
 31
0.0
  0
LINE
  8
0
 62
     0
 10
367.93
 20
1.93201
 30
0.0
 11
367.912
 21
1.77629
 31
0.0
  0
LINE
  8
0
 62
     0
 10
367.912
 20
1.77629
 30
0.0
 11
367.88
 21
1.62195
 31
0.0
  0
LINE
  8
0
 62
     0
 10
367.88
 20
1.62195
 30
0.0
 11
367.838
 21
1.47175
 31
0.0
  0
LINE
  8
0
 62
     0
 10
367.838
 20
1.47175
 30
0.0
 11
367.785
 21
1.32292
 31
0.0
  0
LINE
  8
0
 62
     0
 10
367.785
 20
1.32292
 30
0.0
 11
367.718
 21
1.18098
 31
0.0
  0
LINE
  8
0
 62
     0
 10
367.718
 20
1.18098
 30
0.0
 11
367.64
 21
1.04455
 31
0.0
  0
LINE
  8
0
 62
     0
 10
367.64
 20
1.04455
 30
0.0
 11
367.552
 21
0.913638
 31
0.0
  0
LINE
  8
0
 62
     0
 10
367.552
 20
0.913638
 30
0.0
 11
367.457
 21
0.790995
 31
0.0
  0
LINE
  8
0
 62
     0
 10
367.457
 20
0.790995
 30
0.0
 11
367.348
 21
0.675238
 31
0.0
  0
LINE
  8
0
 62
     0
 10
367.348
 20
0.675238
 30
0.0
 11
367.235
 21
0.569129
 31
0.0
  0
LINE
  8
0
 62
     0
 10
367.235
 20
0.569129
 30
0.0
 11
367.111
 21
0.47129
 31
0.0
  0
LINE
  8
0
 62
     0
 10
367.111
 20
0.47129
 30
0.0
 11
366.981
 21
0.383096
 31
0.0
  0
LINE
  8
0
 62
     0
 10
366.981
 20
0.383096
 30
0.0
 11
366.843
 21
0.307303
 31
0.0
  0
LINE
  8
0
 62
     0
 10
366.843
 20
0.307303
 30
0.0
 11
366.698
 21
0.241157
 31
0.0
  0
LINE
  8
0
 62
     0
 10
366.698
 20
0.241157
 30
0.0
 11
366.554
 21
0.187413
 31
0.0
  0
LINE
  8
0
 62
     0
 10
366.554
 20
0.187413
 30
0.0
 11
366.402
 21
0.144694
 31
0.0
  0
LINE
  8
0
 62
     0
 10
366.402
 20
0.144694
 30
0.0
 11
366.247
 21
0.112999
 31
0.0
  0
LINE
  8
0
 62
     0
 10
366.247
 20
0.112999
 30
0.0
 11
366.092
 21
0.0950846
 31
0.0
  0
LINE
  8
0
 62
     0
 10
366.092
 20
0.0950846
 30
0.0
 11
365.936
 21
0.0895724
 31
0.0
  0
LINE
  8
0
 62
     0
 10
365.936
 20
0.0895724
 30
0.0
 11
2.09462
 21
0.0895724
 31
0.0
  0
LINE
  8
0
 62
     0
 10
2.09462
 20
0.0895724
 30
0.0
 11
1.93752
 21
0.0950846
 31
0.0
  0
LINE
  8
0
 62
     0
 10
1.93752
 20
0.0950846
 30
0.0
 11
1.7818
 21
0.112999
 31
0.0
  0
LINE
  8
0
 62
     0
 10
1.7818
 20
0.112999
 30
0.0
 11
1.62746
 21
0.144694
 31
0.0
  0
LINE
  8
0
 62
     0
 10
1.62746
 20
0.144694
 30
0.0
 11
1.47588
 21
0.187413
 31
0.0
  0
LINE
  8
0
 62
     0
 10
1.47588
 20
0.187413
 30
0.0
 11
1.32843
 21
0.241157
 31
0.0
  0
LINE
  8
0
 62
     0
 10
1.32843
 20
0.241157
 30
0.0
 11
1.18649
 21
0.307303
 31
0.0
  0
LINE
  8
0
 62
     0
 10
1.18649
 20
0.307303
 30
0.0
 11
1.05006
 21
0.383096
 31
0.0
  0
LINE
  8
0
 62
     0
 10
1.05006
 20
0.383096
 30
0.0
 11
0.919152
 21
0.47129
 31
0.0
  0
LINE
  8
0
 62
     0
 10
0.919152
 20
0.47129
 30
0.0
 11
0.795129
 21
0.569129
 31
0.0
  0
LINE
  8
0
 62
     0
 10
0.795129
 20
0.569129
 30
0.0
 11
0.679372
 21
0.675238
 31
0.0
  0
LINE
  8
0
 62
     0
 10
0.679372
 20
0.675238
 30
0.0
 11
0.573264
 21
0.790995
 31
0.0
  0
LINE
  8
0
 62
     0
 10
0.573264
 20
0.790995
 30
0.0
 11
0.475424
 21
0.913638
 31
0.0
  0
LINE
  8
0
 62
     0
 10
0.475424
 20
0.913638
 30
0.0
 11
0.388606
 21
1.04455
 31
0.0
  0
LINE
  8
0
 62
     0
 10
0.388606
 20
1.04455
 30
0.0
 11
0.311437
 21
1.18098
 31
0.0
  0
LINE
  8
0
 62
     0
 10
0.311437
 20
1.18098
 30
0.0
 11
0.246669
 21
1.32292
 31
0.0
  0
LINE
  8
0
 62
     0
 10
0.246669
 20
1.32292
 30
0.0
 11
0.191547
 21
1.47175
 31
0.0
  0
LINE
  8
0
 62
     0
 10
0.191547
 20
1.47175
 30
0.0
 11
0.150206
 21
1.62195
 31
0.0
  0
LINE
  8
0
 62
     0
 10
0.150206
 20
1.62195
 30
0.0
 11
0.118511
 21
1.77629
 31
0.0
  0
LINE
  8
0
 62
     0
 10
0.118511
 20
1.77629
 30
0.0
 11
0.100597
 21
1.93201
 31
0.0
  0
LINE
  8
0
 62
     0
 10
0.100597
 20
1.93201
 30
0.0
 11
0.0937066
 21
2.08911
 31
0.0
  0
LINE
  8
0
 62
     0
 10
0.0937066
 20
2.08911
 30
0.0
 11
0.0950846
 21
146.093
 31
0.0
  0
LINE
  8
0
 62
     0
 10
0.0950846
 20
146.093
 30
0.0
 11
0.100597
 21
146.25
 31
0.0
  0
LINE
  8
0
 62
     0
 10
0.100597
 20
146.25
 30
0.0
 11
0.118511
 21
146.406
 31
0.0
  0
LINE
  8
0
 62
     0
 10
0.118511
 20
146.406
 30
0.0
 11
0.150206
 21
146.56
 31
0.0
  0
LINE
  8
0
 62
     0
 10
0.150206
 20
146.56
 30
0.0
 11
0.191547
 21
146.711
 31
0.0
  0
LINE
  8
0
 62
     0
 10
0.191547
 20
146.711
 30
0.0
 11
0.246669
 21
146.859
 31
0.0
  0
LINE
  8
0
 62
     0
 10
0.246669
 20
146.859
 30
0.0
 11
0.311437
 21
147.001
 31
0.0
  0
LINE
  8
0
 62
     0
 10
0.311437
 20
147.001
 30
0.0
 11
0.388606
 21
147.137
 31
0.0
  0
LINE
  8
0
 62
     0
 10
0.388606
 20
147.137
 30
0.0
 11
0.475424
 21
147.268
 31
0.0
  0
LINE
  8
0
 62
     0
 10
0.475424
 20
147.268
 30
0.0
 11
0.573264
 21
147.392
 31
0.0
  0
LINE
  8
0
 62
     0
 10
0.573264
 20
147.392
 30
0.0
 11
0.679372
 21
147.508
 31
0.0
  0
LINE
  8
0
 62
     0
 10
0.679372
 20
147.508
 30
0.0
 11
0.795129
 21
147.614
 31
0.0
  0
LINE
  8
0
 62
     0
 10
0.795129
 20
147.614
 30
0.0
 11
0.919152
 21
147.712
 31
0.0
  0
LINE
  8
0
 62
     0
 10
0.919152
 20
147.712
 30
0.0
 11
1.05006
 21
147.799
 31
0.0
  0
LINE
  8
0
 62
     0
 10
1.05006
 20
147.799
 30
0.0
 11
1.18649
 21
147.876
 31
0.0
  0
LINE
  8
0
 62
     0
 10
1.18649
 20
147.876
 30
0.0
 11
1.32843
 21
147.941
 31
0.0
  0
LINE
  8
0
 62
     0
 10
1.32843
 20
147.941
 30
0.0
 11
1.47588
 21
147.996
 31
0.0
  0
LINE
  8
0
 62
     0
 10
1.47588
 20
147.996
 30
0.0
 11
1.62746
 21
148.037
 31
0.0
  0
LINE
  8
0
 62
     0
 10
1.62746
 20
148.037
 30
0.0
 11
1.7818
 21
148.069
 31
0.0
  0
LINE
  8
0
 62
     0
 10
1.7818
 20
148.069
 30
0.0
 11
1.93752
 21
148.087
 31
0.0
  0
LINE
  8
0
 62
     0
 10
1.93752
 20
148.087
 30
0.0
 11
2.09462
 21
148.094
 31
0.0
  0
LINE
  8
0
 62
     0
 10
2.09462
 20
148.094
 30
0.0
 11
365.936
 21
148.092
 31
0.0
  0
LINE
  8
0
 62
     0
 10
362.564
 20
6.04407
 30
0.0
 11
362.31
 21
5.91591
 31
0.0
  0
LINE
  8
0
 62
     0
 10
362.31
 20
5.91591
 30
0.0
 11
362.109
 21
5.71334
 31
0.0
  0
LINE
  8
0
 62
     0
 10
362.109
 20
5.71334
 30
0.0
 11
361.982
 21
5.4598
 31
0.0
  0
LINE
  8
0
 62
     0
 10
361.982
 20
5.4598
 30
0.0
 11
361.936
 21
5.17867
 31
0.0
  0
LINE
  8
0
 62
     0
 10
361.936
 20
5.17867
 30
0.0
 11
361.982
 21
4.89617
 31
0.0
  0
LINE
  8
0
 62
     0
 10
361.982
 20
4.89617
 30
0.0
 11
362.109
 21
4.64263
 31
0.0
  0
LINE
  8
0
 62
     0
 10
362.109
 20
4.64263
 30
0.0
 11
362.31
 21
4.4414
 31
0.0
  0
LINE
  8
0
 62
     0
 10
362.31
 20
4.4414
 30
0.0
 11
362.564
 21
4.3119
 31
0.0
  0
LINE
  8
0
 62
     0
 10
362.564
 20
4.3119
 30
0.0
 11
362.846
 21
4.26642
 31
0.0
  0
LINE
  8
0
 62
     0
 10
362.846
 20
4.26642
 30
0.0
 11
363.128
 21
4.3119
 31
0.0
  0
LINE
  8
0
 62
     0
 10
363.128
 20
4.3119
 30
0.0
 11
363.382
 21
4.4414
 31
0.0
  0
LINE
  8
0
 62
     0
 10
363.382
 20
4.4414
 30
0.0
 11
363.583
 21
4.64263
 31
0.0
  0
LINE
  8
0
 62
     0
 10
363.583
 20
4.64263
 30
0.0
 11
363.714
 21
4.89617
 31
0.0
  0
LINE
  8
0
 62
     0
 10
363.714
 20
4.89617
 30
0.0
 11
363.76
 21
5.17867
 31
0.0
  0
LINE
  8
0
 62
     0
 10
363.76
 20
5.17867
 30
0.0
 11
363.714
 21
5.4598
 31
0.0
  0
LINE
  8
0
 62
     0
 10
363.714
 20
5.4598
 30
0.0
 11
363.583
 21
5.71334
 31
0.0
  0
LINE
  8
0
 62
     0
 10
363.583
 20
5.71334
 30
0.0
 11
363.382
 21
5.91591
 31
0.0
  0
LINE
  8
0
 62
     0
 10
363.382
 20
5.91591
 30
0.0
 11
363.128
 21
6.04407
 31
0.0
  0
LINE
  8
0
 62
     0
 10
363.128
 20
6.04407
 30
0.0
 11
362.846
 21
6.08954
 31
0.0
  0
LINE
  8
0
 62
     0
 10
362.846
 20
6.08954
 30
0.0
 11
362.564
 21
6.04407
 31
0.0
  0
LINE
  8
0
 62
     0
 10
243.344
 20
6.04407
 30
0.0
 11
243.09
 21
5.91591
 31
0.0
  0
LINE
  8
0
 62
     0
 10
243.09
 20
5.91591
 30
0.0
 11
242.889
 21
5.71334
 31
0.0
  0
LINE
  8
0
 62
     0
 10
242.889
 20
5.71334
 30
0.0
 11
242.759
 21
5.4598
 31
0.0
  0
LINE
  8
0
 62
     0
 10
242.759
 20
5.4598
 30
0.0
 11
242.715
 21
5.17867
 31
0.0
  0
LINE
  8
0
 62
     0
 10
242.715
 20
5.17867
 30
0.0
 11
242.759
 21
4.89617
 31
0.0
  0
LINE
  8
0
 62
     0
 10
242.759
 20
4.89617
 30
0.0
 11
242.889
 21
4.64263
 31
0.0
  0
LINE
  8
0
 62
     0
 10
242.889
 20
4.64263
 30
0.0
 11
243.09
 21
4.4414
 31
0.0
  0
LINE
  8
0
 62
     0
 10
243.09
 20
4.4414
 30
0.0
 11
243.344
 21
4.3119
 31
0.0
  0
LINE
  8
0
 62
     0
 10
243.344
 20
4.3119
 30
0.0
 11
243.626
 21
4.26642
 31
0.0
  0
LINE
  8
0
 62
     0
 10
243.626
 20
4.26642
 30
0.0
 11
243.907
 21
4.3119
 31
0.0
  0
LINE
  8
0
 62
     0
 10
243.907
 20
4.3119
 30
0.0
 11
244.161
 21
4.4414
 31
0.0
  0
LINE
  8
0
 62
     0
 10
244.161
 20
4.4414
 30
0.0
 11
244.364
 21
4.64263
 31
0.0
  0
LINE
  8
0
 62
     0
 10
244.364
 20
4.64263
 30
0.0
 11
244.492
 21
4.89617
 31
0.0
  0
LINE
  8
0
 62
     0
 10
244.492
 20
4.89617
 30
0.0
 11
244.537
 21
5.17867
 31
0.0
  0
LINE
  8
0
 62
     0
 10
244.537
 20
5.17867
 30
0.0
 11
244.492
 21
5.4598
 31
0.0
  0
LINE
  8
0
 62
     0
 10
244.492
 20
5.4598
 30
0.0
 11
244.364
 21
5.71334
 31
0.0
  0
LINE
  8
0
 62
     0
 10
244.364
 20
5.71334
 30
0.0
 11
244.161
 21
5.91591
 31
0.0
  0
LINE
  8
0
 62
     0
 10
244.161
 20
5.91591
 30
0.0
 11
243.907
 21
6.04407
 31
0.0
  0
LINE
  8
0
 62
     0
 10
243.907
 20
6.04407
 30
0.0
 11
243.626
 21
6.08954
 31
0.0
  0
LINE
  8
0
 62
     0
 10
243.626
 20
6.08954
 30
0.0
 11
243.344
 21
6.04407
 31
0.0
  0
LINE
  8
0
 62
     0
 10
124.121
 20
6.04407
 30
0.0
 11
123.869
 21
5.91591
 31
0.0
  0
LINE
  8
0
 62
     0
 10
123.869
 20
5.91591
 30
0.0
 11
123.667
 21
5.71334
 31
0.0
  0
LINE
  8
0
 62
     0
 10
123.667
 20
5.71334
 30
0.0
 11
123.539
 21
5.4598
 31
0.0
  0
LINE
  8
0
 62
     0
 10
123.539
 20
5.4598
 30
0.0
 11
123.493
 21
5.17867
 31
0.0
  0
LINE
  8
0
 62
     0
 10
123.493
 20
5.17867
 30
0.0
 11
123.539
 21
4.89617
 31
0.0
  0
LINE
  8
0
 62
     0
 10
123.539
 20
4.89617
 30
0.0
 11
123.667
 21
4.64263
 31
0.0
  0
LINE
  8
0
 62
     0
 10
123.667
 20
4.64263
 30
0.0
 11
123.869
 21
4.4414
 31
0.0
  0
LINE
  8
0
 62
     0
 10
123.869
 20
4.4414
 30
0.0
 11
124.121
 21
4.3119
 31
0.0
  0
LINE
  8
0
 62
     0
 10
124.121
 20
4.3119
 30
0.0
 11
124.405
 21
4.26642
 31
0.0
  0
LINE
  8
0
 62
     0
 10
124.405
 20
4.26642
 30
0.0
 11
124.686
 21
4.3119
 31
0.0
  0
LINE
  8
0
 62
     0
 10
124.686
 20
4.3119
 30
0.0
 11
124.94
 21
4.4414
 31
0.0
  0
LINE
  8
0
 62
     0
 10
124.94
 20
4.4414
 30
0.0
 11
125.142
 21
4.64263
 31
0.0
  0
LINE
  8
0
 62
     0
 10
125.142
 20
4.64263
 30
0.0
 11
125.269
 21
4.89617
 31
0.0
  0
LINE
  8
0
 62
     0
 10
125.269
 20
4.89617
 30
0.0
 11
125.316
 21
5.17867
 31
0.0
  0
LINE
  8
0
 62
     0
 10
125.316
 20
5.17867
 30
0.0
 11
125.269
 21
5.4598
 31
0.0
  0
LINE
  8
0
 62
     0
 10
125.269
 20
5.4598
 30
0.0
 11
125.142
 21
5.71334
 31
0.0
  0
LINE
  8
0
 62
     0
 10
125.142
 20
5.71334
 30
0.0
 11
124.94
 21
5.91591
 31
0.0
  0
LINE
  8
0
 62
     0
 10
124.94
 20
5.91591
 30
0.0
 11
124.686
 21
6.04407
 31
0.0
  0
LINE
  8
0
 62
     0
 10
124.686
 20
6.04407
 30
0.0
 11
124.405
 21
6.08954
 31
0.0
  0
LINE
  8
0
 62
     0
 10
124.405
 20
6.08954
 30
0.0
 11
124.121
 21
6.04407
 31
0.0
  0
LINE
  8
0
 62
     0
 10
4.90167
 20
6.04407
 30
0.0
 11
4.64813
 21
5.91591
 31
0.0
  0
LINE
  8
0
 62
     0
 10
4.64813
 20
5.91591
 30
0.0
 11
4.44556
 21
5.71334
 31
0.0
  0
LINE
  8
0
 62
     0
 10
4.44556
 20
5.71334
 30
0.0
 11
4.3174
 21
5.4598
 31
0.0
  0
LINE
  8
0
 62
     0
 10
4.3174
 20
5.4598
 30
0.0
 11
4.27193
 21
5.17867
 31
0.0
  0
LINE
  8
0
 62
     0
 10
4.27193
 20
5.17867
 30
0.0
 11
4.3174
 21
4.89617
 31
0.0
  0
LINE
  8
0
 62
     0
 10
4.3174
 20
4.89617
 30
0.0
 11
4.44556
 21
4.64263
 31
0.0
  0
LINE
  8
0
 62
     0
 10
4.44556
 20
4.64263
 30
0.0
 11
4.64813
 21
4.4414
 31
0.0
  0
LINE
  8
0
 62
     0
 10
4.64813
 20
4.4414
 30
0.0
 11
4.90167
 21
4.3119
 31
0.0
  0
LINE
  8
0
 62
     0
 10
4.90167
 20
4.3119
 30
0.0
 11
5.1828
 21
4.26642
 31
0.0
  0
LINE
  8
0
 62
     0
 10
5.1828
 20
4.26642
 30
0.0
 11
5.4653
 21
4.3119
 31
0.0
  0
LINE
  8
0
 62
     0
 10
5.4653
 20
4.3119
 30
0.0
 11
5.71885
 21
4.4414
 31
0.0
  0
LINE
  8
0
 62
     0
 10
5.71885
 20
4.4414
 30
0.0
 11
5.92007
 21
4.64263
 31
0.0
  0
LINE
  8
0
 62
     0
 10
5.92007
 20
4.64263
 30
0.0
 11
6.04957
 21
4.89617
 31
0.0
  0
LINE
  8
0
 62
     0
 10
6.04957
 20
4.89617
 30
0.0
 11
6.09367
 21
5.17867
 31
0.0
  0
LINE
  8
0
 62
     0
 10
6.09367
 20
5.17867
 30
0.0
 11
6.04957
 21
5.4598
 31
0.0
  0
LINE
  8
0
 62
     0
 10
6.04957
 20
5.4598
 30
0.0
 11
5.92007
 21
5.71334
 31
0.0
  0
LINE
  8
0
 62
     0
 10
5.92007
 20
5.71334
 30
0.0
 11
5.71885
 21
5.91591
 31
0.0
  0
LINE
  8
0
 62
     0
 10
5.71885
 20
5.91591
 30
0.0
 11
5.4653
 21
6.04407
 31
0.0
  0
LINE
  8
0
 62
     0
 10
5.4653
 20
6.04407
 30
0.0
 11
5.1828
 21
6.08954
 31
0.0
  0
LINE
  8
0
 62
     0
 10
5.1828
 20
6.08954
 30
0.0
 11
4.90167
 21
6.04407
 31
0.0
  0
LINE
  8
0
 62
     0
 10
10.1823
 20
107.43
 30
0.0
 11
295.934
 21
107.43
 31
0.0
  0
LINE
  8
0
 62
     0
 10
295.934
 20
107.43
 30
0.0
 11
295.934
 21
12.1791
 31
0.0
  0
LINE
  8
0
 62
     0
 10
295.934
 20
12.1791
 30
0.0
 11
10.1823
 21
12.1791
 31
0.0
  0
LINE
  8
0
 62
     0
 10
10.1823
 20
12.1791
 30
0.0
 11
10.1823
 21
107.43
 31
0.0
  0
LINE
  8
0
 62
     0
 10
300.695
 20
107.43
 30
0.0
 11
357.847
 21
107.43
 31
0.0
  0
LINE
  8
0
 62
     0
 10
357.847
 20
107.43
 30
0.0
 11
357.847
 21
12.1791
 31
0.0
  0
LINE
  8
0
 62
     0
 10
357.847
 20
12.1791
 30
0.0
 11
300.695
 21
12.1791
 31
0.0
  0
LINE
  8
0
 62
     0
 10
300.695
 20
12.1791
 30
0.0
 11
300.695
 21
107.43
 31
0.0
  0
LINE
  8
0
 62
     0
 10
362.564
 20
74.9572
 30
0.0
 11
362.31
 21
74.8288
 31
0.0
  0
LINE
  8
0
 62
     0
 10
362.31
 20
74.8288
 30
0.0
 11
362.109
 21
74.6263
 31
0.0
  0
LINE
  8
0
 62
     0
 10
362.109
 20
74.6263
 30
0.0
 11
361.982
 21
74.3726
 31
0.0
  0
LINE
  8
0
 62
     0
 10
361.982
 20
74.3726
 30
0.0
 11
361.936
 21
74.0914
 31
0.0
  0
LINE
  8
0
 62
     0
 10
361.936
 20
74.0914
 30
0.0
 11
361.982
 21
73.8092
 31
0.0
  0
LINE
  8
0
 62
     0
 10
361.982
 20
73.8092
 30
0.0
 11
362.109
 21
73.5556
 31
0.0
  0
LINE
  8
0
 62
     0
 10
362.109
 20
73.5556
 30
0.0
 11
362.31
 21
73.3545
 31
0.0
  0
LINE
  8
0
 62
     0
 10
362.31
 20
73.3545
 30
0.0
 11
362.564
 21
73.2247
 31
0.0
  0
LINE
  8
0
 62
     0
 10
362.564
 20
73.2247
 30
0.0
 11
362.846
 21
73.1806
 31
0.0
  0
LINE
  8
0
 62
     0
 10
362.846
 20
73.1806
 30
0.0
 11
363.128
 21
73.2247
 31
0.0
  0
LINE
  8
0
 62
     0
 10
363.128
 20
73.2247
 30
0.0
 11
363.382
 21
73.3545
 31
0.0
  0
LINE
  8
0
 62
     0
 10
363.382
 20
73.3545
 30
0.0
 11
363.583
 21
73.5556
 31
0.0
  0
LINE
  8
0
 62
     0
 10
363.583
 20
73.5556
 30
0.0
 11
363.714
 21
73.8092
 31
0.0
  0
LINE
  8
0
 62
     0
 10
363.714
 20
73.8092
 30
0.0
 11
363.76
 21
74.0914
 31
0.0
  0
LINE
  8
0
 62
     0
 10
363.76
 20
74.0914
 30
0.0
 11
363.714
 21
74.3726
 31
0.0
  0
LINE
  8
0
 62
     0
 10
363.714
 20
74.3726
 30
0.0
 11
363.583
 21
74.6263
 31
0.0
  0
LINE
  8
0
 62
     0
 10
363.583
 20
74.6263
 30
0.0
 11
363.382
 21
74.8288
 31
0.0
  0
LINE
  8
0
 62
     0
 10
363.382
 20
74.8288
 30
0.0
 11
363.128
 21
74.9572
 31
0.0
  0
LINE
  8
0
 62
     0
 10
363.128
 20
74.9572
 30
0.0
 11
362.846
 21
75.0023
 31
0.0
  0
LINE
  8
0
 62
     0
 10
362.846
 20
75.0023
 30
0.0
 11
362.564
 21
74.9572
 31
0.0
  0
LINE
  8
0
 62
     0
 10
4.90167
 20
74.9572
 30
0.0
 11
4.64813
 21
74.8288
 31
0.0
  0
LINE
  8
0
 62
     0
 10
4.64813
 20
74.8288
 30
0.0
 11
4.44556
 21
74.6263
 31
0.0
  0
LINE
  8
0
 62
     0
 10
4.44556
 20
74.6263
 30
0.0
 11
4.3174
 21
74.3726
 31
0.0
  0
LINE
  8
0
 62
     0
 10
4.3174
 20
74.3726
 30
0.0
 11
4.27193
 21
74.0914
 31
0.0
  0
LINE
  8
0
 62
     0
 10
4.27193
 20
74.0914
 30
0.0
 11
4.3174
 21
73.8092
 31
0.0
  0
LINE
  8
0
 62
     0
 10
4.3174
 20
73.8092
 30
0.0
 11
4.44556
 21
73.5556
 31
0.0
  0
LINE
  8
0
 62
     0
 10
4.44556
 20
73.5556
 30
0.0
 11
4.64813
 21
73.3545
 31
0.0
  0
LINE
  8
0
 62
     0
 10
4.64813
 20
73.3545
 30
0.0
 11
4.90167
 21
73.2247
 31
0.0
  0
LINE
  8
0
 62
     0
 10
4.90167
 20
73.2247
 30
0.0
 11
5.1828
 21
73.1806
 31
0.0
  0
LINE
  8
0
 62
     0
 10
5.1828
 20
73.1806
 30
0.0
 11
5.4653
 21
73.2247
 31
0.0
  0
LINE
  8
0
 62
     0
 10
5.4653
 20
73.2247
 30
0.0
 11
5.71885
 21
73.3545
 31
0.0
  0
LINE
  8
0
 62
     0
 10
5.71885
 20
73.3545
 30
0.0
 11
5.92007
 21
73.5556
 31
0.0
  0
LINE
  8
0
 62
     0
 10
5.92007
 20
73.5556
 30
0.0
 11
6.04957
 21
73.8092
 31
0.0
  0
LINE
  8
0
 62
     0
 10
6.04957
 20
73.8092
 30
0.0
 11
6.09367
 21
74.0914
 31
0.0
  0
LINE
  8
0
 62
     0
 10
6.09367
 20
74.0914
 30
0.0
 11
6.04957
 21
74.3726
 31
0.0
  0
LINE
  8
0
 62
     0
 10
6.04957
 20
74.3726
 30
0.0
 11
5.92007
 21
74.6263
 31
0.0
  0
LINE
  8
0
 62
     0
 10
5.92007
 20
74.6263
 30
0.0
 11
5.71885
 21
74.8288
 31
0.0
  0
LINE
  8
0
 62
     0
 10
5.71885
 20
74.8288
 30
0.0
 11
5.4653
 21
74.9572
 31
0.0
  0
LINE
  8
0
 62
     0
 10
5.4653
 20
74.9572
 30
0.0
 11
5.1828
 21
75.0023
 31
0.0
  0
LINE
  8
0
 62
     0
 10
5.1828
 20
75.0023
 30
0.0
 11
4.90167
 21
74.9572
 31
0.0
  0
LINE
  8
0
 62
     0
 10
10.1823
 20
136.005
 30
0.0
 11
29.2337
 21
136.005
 31
0.0
  0
LINE
  8
0
 62
     0
 10
29.2337
 20
136.005
 30
0.0
 11
29.2337
 21
116.954
 31
0.0
  0
LINE
  8
0
 62
     0
 10
29.2337
 20
116.954
 30
0.0
 11
10.1823
 21
116.954
 31
0.0
  0
LINE
  8
0
 62
     0
 10
10.1823
 20
116.954
 30
0.0
 11
10.1823
 21
136.005
 31
0.0
  0
LINE
  8
0
 62
     0
 10
48.2822
 20
136.005
 30
0.0
 11
124.484
 21
136.005
 31
0.0
  0
LINE
  8
0
 62
     0
 10
124.484
 20
136.005
 30
0.0
 11
124.484
 21
116.954
 31
0.0
  0
LINE
  8
0
 62
     0
 10
124.484
 20
116.954
 30
0.0
 11
48.2822
 21
116.954
 31
0.0
  0
LINE
  8
0
 62
     0
 10
48.2822
 20
116.954
 30
0.0
 11
48.2822
 21
136.005
 31
0.0
  0
LINE
  8
0
 62
     0
 10
134.007
 20
136.005
 30
0.0
 11
210.209
 21
136.005
 31
0.0
  0
LINE
  8
0
 62
     0
 10
210.209
 20
136.005
 30
0.0
 11
210.209
 21
116.954
 31
0.0
  0
LINE
  8
0
 62
     0
 10
210.209
 20
116.954
 30
0.0
 11
134.007
 21
116.954
 31
0.0
  0
LINE
  8
0
 62
     0
 10
134.007
 20
116.954
 30
0.0
 11
134.007
 21
136.005
 31
0.0
  0
LINE
  8
0
 62
     0
 10
219.732
 20
136.005
 30
0.0
 11
295.934
 21
136.005
 31
0.0
  0
LINE
  8
0
 62
     0
 10
295.934
 20
136.005
 30
0.0
 11
295.934
 21
116.954
 31
0.0
  0
LINE
  8
0
 62
     0
 10
295.934
 20
116.954
 30
0.0
 11
219.732
 21
116.954
 31
0.0
  0
LINE
  8
0
 62
     0
 10
219.732
 20
116.954
 30
0.0
 11
219.732
 21
136.005
 31
0.0
  0
LINE
  8
0
 62
     0
 10
300.695
 20
136.005
 30
0.0
 11
357.847
 21
136.005
 31
0.0
  0
LINE
  8
0
 62
     0
 10
357.847
 20
136.005
 30
0.0
 11
357.847
 21
116.954
 31
0.0
  0
LINE
  8
0
 62
     0
 10
357.847
 20
116.954
 30
0.0
 11
300.695
 21
116.954
 31
0.0
  0
LINE
  8
0
 62
     0
 10
300.695
 20
116.954
 30
0.0
 11
300.695
 21
136.005
 31
0.0
  0
LINE
  8
0
 62
     0
 10
124.121
 20
143.87
 30
0.0
 11
123.869
 21
143.742
 31
0.0
  0
LINE
  8
0
 62
     0
 10
123.869
 20
143.742
 30
0.0
 11
123.667
 21
143.539
 31
0.0
  0
LINE
  8
0
 62
     0
 10
123.667
 20
143.539
 30
0.0
 11
123.539
 21
143.286
 31
0.0
  0
LINE
  8
0
 62
     0
 10
123.539
 20
143.286
 30
0.0
 11
123.493
 21
143.004
 31
0.0
  0
LINE
  8
0
 62
     0
 10
123.493
 20
143.004
 30
0.0
 11
123.539
 21
142.722
 31
0.0
  0
LINE
  8
0
 62
     0
 10
123.539
 20
142.722
 30
0.0
 11
123.667
 21
142.469
 31
0.0
  0
LINE
  8
0
 62
     0
 10
123.667
 20
142.469
 30
0.0
 11
123.869
 21
142.267
 31
0.0
  0
LINE
  8
0
 62
     0
 10
123.869
 20
142.267
 30
0.0
 11
124.121
 21
142.138
 31
0.0
  0
LINE
  8
0
 62
     0
 10
124.121
 20
142.138
 30
0.0
 11
124.405
 21
142.094
 31
0.0
  0
LINE
  8
0
 62
     0
 10
124.405
 20
142.094
 30
0.0
 11
124.686
 21
142.138
 31
0.0
  0
LINE
  8
0
 62
     0
 10
124.686
 20
142.138
 30
0.0
 11
124.94
 21
142.267
 31
0.0
  0
LINE
  8
0
 62
     0
 10
124.94
 20
142.267
 30
0.0
 11
125.142
 21
142.469
 31
0.0
  0
LINE
  8
0
 62
     0
 10
125.142
 20
142.469
 30
0.0
 11
125.269
 21
142.722
 31
0.0
  0
LINE
  8
0
 62
     0
 10
125.269
 20
142.722
 30
0.0
 11
125.316
 21
143.004
 31
0.0
  0
LINE
  8
0
 62
     0
 10
125.316
 20
143.004
 30
0.0
 11
125.269
 21
143.286
 31
0.0
  0
LINE
  8
0
 62
     0
 10
125.269
 20
143.286
 30
0.0
 11
125.142
 21
143.539
 31
0.0
  0
LINE
  8
0
 62
     0
 10
125.142
 20
143.539
 30
0.0
 11
124.94
 21
143.742
 31
0.0
  0
LINE
  8
0
 62
     0
 10
124.94
 20
143.742
 30
0.0
 11
124.686
 21
143.87
 31
0.0
  0
LINE
  8
0
 62
     0
 10
124.686
 20
143.87
 30
0.0
 11
124.405
 21
143.915
 31
0.0
  0
LINE
  8
0
 62
     0
 10
124.405
 20
143.915
 30
0.0
 11
124.121
 21
143.87
 31
0.0
  0
LINE
  8
0
 62
     0
 10
243.344
 20
143.87
 30
0.0
 11
243.09
 21
143.742
 31
0.0
  0
LINE
  8
0
 62
     0
 10
243.09
 20
143.742
 30
0.0
 11
242.889
 21
143.539
 31
0.0
  0
LINE
  8
0
 62
     0
 10
242.889
 20
143.539
 30
0.0
 11
242.759
 21
143.286
 31
0.0
  0
LINE
  8
0
 62
     0
 10
242.759
 20
143.286
 30
0.0
 11
242.715
 21
143.004
 31
0.0
  0
LINE
  8
0
 62
     0
 10
242.715
 20
143.004
 30
0.0
 11
242.759
 21
142.722
 31
0.0
  0
LINE
  8
0
 62
     0
 10
242.759
 20
142.722
 30
0.0
 11
242.889
 21
142.469
 31
0.0
  0
LINE
  8
0
 62
     0
 10
242.889
 20
142.469
 30
0.0
 11
243.09
 21
142.267
 31
0.0
  0
LINE
  8
0
 62
     0
 10
243.09
 20
142.267
 30
0.0
 11
243.344
 21
142.138
 31
0.0
  0
LINE
  8
0
 62
     0
 10
243.344
 20
142.138
 30
0.0
 11
243.626
 21
142.094
 31
0.0
  0
LINE
  8
0
 62
     0
 10
243.626
 20
142.094
 30
0.0
 11
243.907
 21
142.138
 31
0.0
  0
LINE
  8
0
 62
     0
 10
243.907
 20
142.138
 30
0.0
 11
244.161
 21
142.267
 31
0.0
  0
LINE
  8
0
 62
     0
 10
244.161
 20
142.267
 30
0.0
 11
244.364
 21
142.469
 31
0.0
  0
LINE
  8
0
 62
     0
 10
244.364
 20
142.469
 30
0.0
 11
244.492
 21
142.722
 31
0.0
  0
LINE
  8
0
 62
     0
 10
244.492
 20
142.722
 30
0.0
 11
244.537
 21
143.004
 31
0.0
  0
LINE
  8
0
 62
     0
 10
244.537
 20
143.004
 30
0.0
 11
244.492
 21
143.286
 31
0.0
  0
LINE
  8
0
 62
     0
 10
244.492
 20
143.286
 30
0.0
 11
244.364
 21
143.539
 31
0.0
  0
LINE
  8
0
 62
     0
 10
244.364
 20
143.539
 30
0.0
 11
244.161
 21
143.742
 31
0.0
  0
LINE
  8
0
 62
     0
 10
244.161
 20
143.742
 30
0.0
 11
243.907
 21
143.87
 31
0.0
  0
LINE
  8
0
 62
     0
 10
243.907
 20
143.87
 30
0.0
 11
243.626
 21
143.915
 31
0.0
  0
LINE
  8
0
 62
     0
 10
243.626
 20
143.915
 30
0.0
 11
243.344
 21
143.87
 31
0.0
  0
LINE
  8
0
 62
     0
 10
362.564
 20
143.87
 30
0.0
 11
362.31
 21
143.742
 31
0.0
  0
LINE
  8
0
 62
     0
 10
362.31
 20
143.742
 30
0.0
 11
362.109
 21
143.539
 31
0.0
  0
LINE
  8
0
 62
     0
 10
362.109
 20
143.539
 30
0.0
 11
361.982
 21
143.286
 31
0.0
  0
LINE
  8
0
 62
     0
 10
361.982
 20
143.286
 30
0.0
 11
361.936
 21
143.004
 31
0.0
  0
LINE
  8
0
 62
     0
 10
361.936
 20
143.004
 30
0.0
 11
361.982
 21
142.722
 31
0.0
  0
LINE
  8
0
 62
     0
 10
361.982
 20
142.722
 30
0.0
 11
362.109
 21
142.469
 31
0.0
  0
LINE
  8
0
 62
     0
 10
362.109
 20
142.469
 30
0.0
 11
362.31
 21
142.267
 31
0.0
  0
LINE
  8
0
 62
     0
 10
362.31
 20
142.267
 30
0.0
 11
362.564
 21
142.138
 31
0.0
  0
LINE
  8
0
 62
     0
 10
362.564
 20
142.138
 30
0.0
 11
362.846
 21
142.094
 31
0.0
  0
LINE
  8
0
 62
     0
 10
362.846
 20
142.094
 30
0.0
 11
363.128
 21
142.138
 31
0.0
  0
LINE
  8
0
 62
     0
 10
363.128
 20
142.138
 30
0.0
 11
363.382
 21
142.267
 31
0.0
  0
LINE
  8
0
 62
     0
 10
363.382
 20
142.267
 30
0.0
 11
363.583
 21
142.469
 31
0.0
  0
LINE
  8
0
 62
     0
 10
363.583
 20
142.469
 30
0.0
 11
363.714
 21
142.722
 31
0.0
  0
LINE
  8
0
 62
     0
 10
363.714
 20
142.722
 30
0.0
 11
363.76
 21
143.004
 31
0.0
  0
LINE
  8
0
 62
     0
 10
363.76
 20
143.004
 30
0.0
 11
363.714
 21
143.286
 31
0.0
  0
LINE
  8
0
 62
     0
 10
363.714
 20
143.286
 30
0.0
 11
363.583
 21
143.539
 31
0.0
  0
LINE
  8
0
 62
     0
 10
363.583
 20
143.539
 30
0.0
 11
363.382
 21
143.742
 31
0.0
  0
LINE
  8
0
 62
     0
 10
363.382
 20
143.742
 30
0.0
 11
363.128
 21
143.87
 31
0.0
  0
LINE
  8
0
 62
     0
 10
363.128
 20
143.87
 30
0.0
 11
362.846
 21
143.915
 31
0.0
  0
LINE
  8
0
 62
     0
 10
362.846
 20
143.915
 30
0.0
 11
362.564
 21
143.87
 31
0.0
  0
LINE
  8
0
 62
     0
 10
4.90167
 20
143.87
 30
0.0
 11
4.64813
 21
143.742
 31
0.0
  0
LINE
  8
0
 62
     0
 10
4.64813
 20
143.742
 30
0.0
 11
4.44556
 21
143.539
 31
0.0
  0
LINE
  8
0
 62
     0
 10
4.44556
 20
143.539
 30
0.0
 11
4.3174
 21
143.286
 31
0.0
  0
LINE
  8
0
 62
     0
 10
4.3174
 20
143.286
 30
0.0
 11
4.27193
 21
143.004
 31
0.0
  0
LINE
  8
0
 62
     0
 10
4.27193
 20
143.004
 30
0.0
 11
4.3174
 21
142.722
 31
0.0
  0
LINE
  8
0
 62
     0
 10
4.3174
 20
142.722
 30
0.0
 11
4.44556
 21
142.469
 31
0.0
  0
LINE
  8
0
 62
     0
 10
4.44556
 20
142.469
 30
0.0
 11
4.64813
 21
142.267
 31
0.0
  0
LINE
  8
0
 62
     0
 10
4.64813
 20
142.267
 30
0.0
 11
4.90167
 21
142.138
 31
0.0
  0
LINE
  8
0
 62
     0
 10
4.90167
 20
142.138
 30
0.0
 11
5.1828
 21
142.094
 31
0.0
  0
LINE
  8
0
 62
     0
 10
5.1828
 20
142.094
 30
0.0
 11
5.4653
 21
142.138
 31
0.0
  0
LINE
  8
0
 62
     0
 10
5.4653
 20
142.138
 30
0.0
 11
5.71885
 21
142.267
 31
0.0
  0
LINE
  8
0
 62
     0
 10
5.71885
 20
142.267
 30
0.0
 11
5.92007
 21
142.469
 31
0.0
  0
LINE
  8
0
 62
     0
 10
5.92007
 20
142.469
 30
0.0
 11
6.04957
 21
142.722
 31
0.0
  0
LINE
  8
0
 62
     0
 10
6.04957
 20
142.722
 30
0.0
 11
6.09367
 21
143.004
 31
0.0
  0
LINE
  8
0
 62
     0
 10
6.09367
 20
143.004
 30
0.0
 11
6.04957
 21
143.286
 31
0.0
  0
LINE
  8
0
 62
     0
 10
6.04957
 20
143.286
 30
0.0
 11
5.92007
 21
143.539
 31
0.0
  0
LINE
  8
0
 62
     0
 10
5.92007
 20
143.539
 30
0.0
 11
5.71885
 21
143.742
 31
0.0
  0
LINE
  8
0
 62
     0
 10
5.71885
 20
143.742
 30
0.0
 11
5.4653
 21
143.87
 31
0.0
  0
LINE
  8
0
 62
     0
 10
5.4653
 20
143.87
 30
0.0
 11
5.1828
 21
143.915
 31
0.0
  0
LINE
  8
0
 62
     0
 10
5.1828
 20
143.915
 30
0.0
 11
4.90167
 21
143.87
 31
0.0
  0
ENDSEC
  0
EOF
