<?xml version="1.0"?>
<!-- Generated by SVGo -->
<svg width="377.842mm" height="158.004mm"
     viewBox="0.000 0.000 377.842 158.004"
     xmlns="http://www.w3.org/2000/svg" 
     xmlns:xlink="http://www.w3.org/1999/xlink">
<polygon points="370.842,5.001 370.999,5.007 371.155,5.025 371.309,5.056 371.460,5.098 371.607,5.153 371.750,5.218 371.887,5.295 372.017,5.382 372.141,5.480 372.256,5.586 372.363,5.702 372.460,5.825 372.547,5.956 372.624,6.093 372.690,6.235 372.744,6.382 372.787,6.534 372.817,6.688 372.836,6.844 372.842,7.001 372.842,151.004 372.836,151.161 372.817,151.317 372.787,151.471 372.744,151.622 372.690,151.770 372.624,151.912 372.547,152.049 372.460,152.180 372.363,152.303 372.256,152.419 372.141,152.525 372.017,152.622 371.887,152.710 371.750,152.786 371.607,152.852 371.460,152.906 371.309,152.949 371.155,152.980 370.999,152.998 370.842,153.004 7.001,153.004 6.844,152.998 6.688,152.980 6.534,152.949 6.382,152.906 6.235,152.852 6.093,152.786 5.956,152.710 5.825,152.622 5.702,152.525 5.586,152.419 5.480,152.303 5.382,152.180 5.295,152.049 5.218,151.912 5.153,151.770 5.098,151.622 5.056,151.471 5.025,151.317 5.007,151.161 5.000,151.004 5.001,7.001 5.007,6.844 5.025,6.688 5.056,6.534 5.098,6.382 5.153,6.235 5.218,6.093 5.295,5.956 5.382,5.825 5.480,5.702 5.586,5.586 5.702,5.480 5.825,5.382 5.956,5.295 6.093,5.218 6.235,5.153 6.382,5.098 6.534,5.056 6.688,5.025 6.844,5.007 7.001,5.000" style="fill:none;stroke-width:0.050000mm;stroke:black"/>
<polygon points="367.471,147.049 367.217,147.178 367.016,147.380 366.886,147.634 366.842,147.915 366.886,148.197 367.016,148.451 367.217,148.652 367.471,148.782 367.753,148.827 368.034,148.782 368.288,148.652 368.490,148.451 368.619,148.197 368.664,147.915 368.619,147.634 368.490,147.380 368.288,147.178 368.034,147.049 367.753,147.004" style="fill:none;stroke-width:0.050000mm;stroke:black"/>
<polygon points="248.250,147.049 247.996,147.178 247.795,147.380 247.665,147.634 247.621,147.915 247.665,148.197 247.795,148.451 247.996,148.652 248.250,148.782 248.532,148.827 248.813,148.782 249.067,148.652 249.269,148.451 249.398,148.197 249.443,147.915 249.398,147.634 249.269,147.380 249.067,147.178 248.813,147.049 248.532,147.004" style="fill:none;stroke-width:0.050000mm;stroke:black"/>
<polygon points="129.028,147.049 128.775,147.178 128.573,147.380 128.444,147.634 128.399,147.915 128.444,148.197 128.573,148.451 128.775,148.652 129.028,148.782 129.311,148.827 129.592,148.782 129.846,148.652 130.048,148.451 130.176,148.197 130.222,147.915 130.176,147.634 130.048,147.380 129.846,147.178 129.592,147.049 129.311,147.004" style="fill:none;stroke-width:0.050000mm;stroke:black"/>
<polygon points="9.808,147.049 9.554,147.178 9.352,147.380 9.223,147.634 9.178,147.915 9.223,148.197 9.352,148.451 9.554,148.652 9.808,148.782 10.089,148.827 10.371,148.782 10.625,148.652 10.826,148.451 10.956,148.197 11.000,147.915 10.956,147.634 10.826,147.380 10.625,147.178 10.371,147.049 10.089,147.004" style="fill:none;stroke-width:0.050000mm;stroke:black"/>
<polygon points="15.088,45.663 15.088,140.915 300.840,140.915 300.840,45.663" style="fill:none;stroke-width:0.050000mm;stroke:black"/>
<polygon points="305.601,45.663 305.601,140.915 362.753,140.915 362.753,45.663" style="fill:none;stroke-width:0.050000mm;stroke:black"/>
<polygon points="367.471,78.136 367.217,78.265 367.016,78.467 366.886,78.721 366.842,79.002 366.886,79.284 367.016,79.538 367.217,79.739 367.471,79.869 367.753,79.913 368.034,79.869 368.288,79.739 368.490,79.538 368.619,79.284 368.664,79.002 368.619,78.721 368.490,78.467 368.288,78.265 368.034,78.136 367.753,78.091" style="fill:none;stroke-width:0.050000mm;stroke:black"/>
<polygon points="9.808,78.136 9.554,78.265 9.352,78.467 9.223,78.721 9.178,79.002 9.223,79.284 9.352,79.538 9.554,79.739 9.808,79.869 10.089,79.913 10.371,79.869 10.625,79.739 10.826,79.538 10.956,79.284 11.000,79.002 10.956,78.721 10.826,78.467 10.625,78.265 10.371,78.136 10.089,78.091" style="fill:none;stroke-width:0.050000mm;stroke:black"/>
<polygon points="15.088,17.088 15.088,36.140 34.140,36.140 34.140,17.088" style="fill:none;stroke-width:0.050000mm;stroke:black"/>
<polygon points="53.188,17.088 53.188,36.140 129.390,36.140 129.390,17.088" style="fill:none;stroke-width:0.050000mm;stroke:black"/>
<polygon points="138.913,17.088 138.913,36.140 215.115,36.140 215.115,17.088" style="fill:none;stroke-width:0.050000mm;stroke:black"/>
<polygon points="224.638,17.088 224.638,36.140 300.840,36.140 300.840,17.088" style="fill:none;stroke-width:0.050000mm;stroke:black"/>
<polygon points="305.601,17.088 305.601,36.140 362.753,36.140 362.753,17.088" style="fill:none;stroke-width:0.050000mm;stroke:black"/>
<polygon points="129.028,9.223 128.775,9.352 128.573,9.554 128.444,9.808 128.399,10.089 128.444,10.371 128.573,10.625 128.775,10.826 129.028,10.956 129.311,11.000 129.592,10.956 129.846,10.826 130.048,10.625 130.176,10.371 130.222,10.089 130.176,9.808 130.048,9.554 129.846,9.352 129.592,9.223 129.311,9.178" style="fill:none;stroke-width:0.050000mm;stroke:black"/>
<polygon points="248.250,9.223 247.996,9.352 247.795,9.554 247.665,9.808 247.621,10.089 247.665,10.371 247.795,10.625 247.996,10.826 248.250,10.956 248.532,11.000 248.813,10.956 249.067,10.826 249.269,10.625 249.398,10.371 249.443,10.089 249.398,9.808 249.269,9.554 249.067,9.352 248.813,9.223 248.532,9.178" style="fill:none;stroke-width:0.050000mm;stroke:black"/>
<polygon points="367.471,9.223 367.217,9.352 367.016,9.554 366.886,9.808 366.842,10.089 366.886,10.371 367.016,10.625 367.217,10.826 367.471,10.956 367.753,11.000 368.034,10.956 368.288,10.826 368.490,10.625 368.619,10.371 368.664,10.089 368.619,9.808 368.490,9.554 368.288,9.352 368.034,9.223 367.753,9.178" style="fill:none;stroke-width:0.050000mm;stroke:black"/>
<polygon points="9.808,9.223 9.554,9.352 9.352,9.554 9.223,9.808 9.178,10.089 9.223,10.371 9.352,10.625 9.554,10.826 9.808,10.956 10.089,11.000 10.371,10.956 10.625,10.826 10.826,10.625 10.956,10.371 11.000,10.089 10.956,9.808 10.826,9.554 10.625,9.352 10.371,9.223 10.089,9.178" style="fill:none;stroke-width:0.050000mm;stroke:black"/>
</svg>
