  0
SECTION
  2
HEADER
  9
$ACADVER
  1
AC1009
  9
$EXTMIN
 10
0.0
 20
0.0
 30
0.0
  9
$EXTMAX
 10
1000.0
 20
1000.0
 30
0.0
  9
$FILLMODE
 70
 0
  9
$SPLFRAME
 70
 1
  0
ENDSEC
  0
SECTION
  2
TABLES
  0
TABLE
  2
LAYER
 70
1
  0
LAYER
  2
0
 70
     0
 62
     7
  6
CONTINUOUS
  0
ENDTAB
  0
ENDSEC
  0
SECTION
  2
ENTITIES
  0
LINE
  8
0
 62
     0
 10
242.095
 20
92.093
 30
0.0
 11
242.409
 21
92.0821
 31
0.0
  0
LINE
  8
0
 62
     0
 10
242.409
 20
92.0821
 30
0.0
 11
242.721
 21
92.0447
 31
0.0
  0
LINE
  8
0
 62
     0
 10
242.721
 20
92.0447
 30
0.0
 11
243.029
 21
91.9826
 31
0.0
  0
LINE
  8
0
 62
     0
 10
243.029
 20
91.9826
 30
0.0
 11
243.331
 21
91.8986
 31
0.0
  0
LINE
  8
0
 62
     0
 10
243.331
 20
91.8986
 30
0.0
 11
243.626
 21
91.7896
 31
0.0
  0
LINE
  8
0
 62
     0
 10
243.626
 20
91.7896
 30
0.0
 11
243.911
 21
91.6587
 31
0.0
  0
LINE
  8
0
 62
     0
 10
243.911
 20
91.6587
 30
0.0
 11
244.184
 21
91.5046
 31
0.0
  0
LINE
  8
0
 62
     0
 10
244.184
 20
91.5046
 30
0.0
 11
244.446
 21
91.331
 31
0.0
  0
LINE
  8
0
 62
     0
 10
244.446
 20
91.331
 30
0.0
 11
244.693
 21
91.1352
 31
0.0
  0
LINE
  8
0
 62
     0
 10
244.693
 20
91.1352
 30
0.0
 11
244.924
 21
90.9214
 31
0.0
  0
LINE
  8
0
 62
     0
 10
244.924
 20
90.9214
 30
0.0
 11
245.136
 21
90.6914
 31
0.0
  0
LINE
  8
0
 62
     0
 10
245.136
 20
90.6914
 30
0.0
 11
245.332
 21
90.4448
 31
0.0
  0
LINE
  8
0
 62
     0
 10
245.332
 20
90.4448
 30
0.0
 11
245.506
 21
90.1831
 31
0.0
  0
LINE
  8
0
 62
     0
 10
245.506
 20
90.1831
 30
0.0
 11
245.66
 21
89.9086
 31
0.0
  0
LINE
  8
0
 62
     0
 10
245.66
 20
89.9086
 30
0.0
 11
245.791
 21
89.625
 31
0.0
  0
LINE
  8
0
 62
     0
 10
245.791
 20
89.625
 30
0.0
 11
245.9
 21
89.33
 31
0.0
  0
LINE
  8
0
 62
     0
 10
245.9
 20
89.33
 30
0.0
 11
245.985
 21
89.0266
 31
0.0
  0
LINE
  8
0
 62
     0
 10
245.985
 20
89.0266
 30
0.0
 11
246.046
 21
88.7194
 31
0.0
  0
LINE
  8
0
 62
     0
 10
246.046
 20
88.7194
 30
0.0
 11
246.083
 21
88.4068
 31
0.0
  0
LINE
  8
0
 62
     0
 10
246.083
 20
88.4068
 30
0.0
 11
246.094
 21
88.0939
 31
0.0
  0
LINE
  8
0
 62
     0
 10
246.094
 20
88.0939
 30
0.0
 11
246.094
 21
4.09279
 31
0.0
  0
LINE
  8
0
 62
     0
 10
246.094
 20
4.09279
 30
0.0
 11
246.083
 21
3.77857
 31
0.0
  0
LINE
  8
0
 62
     0
 10
246.083
 20
3.77857
 30
0.0
 11
246.046
 21
3.46715
 31
0.0
  0
LINE
  8
0
 62
     0
 10
246.046
 20
3.46715
 30
0.0
 11
245.985
 21
3.15984
 31
0.0
  0
LINE
  8
0
 62
     0
 10
245.985
 20
3.15984
 30
0.0
 11
245.9
 21
2.85667
 31
0.0
  0
LINE
  8
0
 62
     0
 10
245.9
 20
2.85667
 30
0.0
 11
245.791
 21
2.56177
 31
0.0
  0
LINE
  8
0
 62
     0
 10
245.791
 20
2.56177
 30
0.0
 11
245.66
 21
2.2779
 31
0.0
  0
LINE
  8
0
 62
     0
 10
245.66
 20
2.2779
 30
0.0
 11
245.506
 21
2.00367
 31
0.0
  0
LINE
  8
0
 62
     0
 10
245.506
 20
2.00367
 30
0.0
 11
245.332
 21
1.74184
 31
0.0
  0
LINE
  8
0
 62
     0
 10
245.332
 20
1.74184
 30
0.0
 11
245.136
 21
1.49517
 31
0.0
  0
LINE
  8
0
 62
     0
 10
245.136
 20
1.49517
 30
0.0
 11
244.924
 21
1.26366
 31
0.0
  0
LINE
  8
0
 62
     0
 10
244.924
 20
1.26366
 30
0.0
 11
244.693
 21
1.05144
 31
0.0
  0
LINE
  8
0
 62
     0
 10
244.693
 20
1.05144
 30
0.0
 11
244.446
 21
0.855761
 31
0.0
  0
LINE
  8
0
 62
     0
 10
244.446
 20
0.855761
 30
0.0
 11
244.184
 21
0.682128
 31
0.0
  0
LINE
  8
0
 62
     0
 10
244.184
 20
0.682128
 30
0.0
 11
243.911
 21
0.527787
 31
0.0
  0
LINE
  8
0
 62
     0
 10
243.911
 20
0.527787
 30
0.0
 11
243.626
 21
0.396875
 31
0.0
  0
LINE
  8
0
 62
     0
 10
243.626
 20
0.396875
 30
0.0
 11
243.331
 21
0.28801
 31
0.0
  0
LINE
  8
0
 62
     0
 10
243.331
 20
0.28801
 30
0.0
 11
243.029
 21
0.202572
 31
0.0
  0
LINE
  8
0
 62
     0
 10
243.029
 20
0.202572
 30
0.0
 11
242.721
 21
0.141938
 31
0.0
  0
LINE
  8
0
 62
     0
 10
242.721
 20
0.141938
 30
0.0
 11
242.409
 21
0.104731
 31
0.0
  0
LINE
  8
0
 62
     0
 10
242.409
 20
0.104731
 30
0.0
 11
242.095
 21
0.0923286
 31
0.0
  0
LINE
  8
0
 62
     0
 10
242.095
 20
0.0923286
 30
0.0
 11
4.09416
 21
0.0923286
 31
0.0
  0
LINE
  8
0
 62
     0
 10
4.09416
 20
0.0923286
 30
0.0
 11
3.78135
 21
0.104731
 31
0.0
  0
LINE
  8
0
 62
     0
 10
3.78135
 20
0.104731
 30
0.0
 11
3.46852
 21
0.141938
 31
0.0
  0
LINE
  8
0
 62
     0
 10
3.46852
 20
0.141938
 30
0.0
 11
3.16122
 21
0.202572
 31
0.0
  0
LINE
  8
0
 62
     0
 10
3.16122
 20
0.202572
 30
0.0
 11
2.85805
 21
0.28801
 31
0.0
  0
LINE
  8
0
 62
     0
 10
2.85805
 20
0.28801
 30
0.0
 11
2.56315
 21
0.396875
 31
0.0
  0
LINE
  8
0
 62
     0
 10
2.56315
 20
0.396875
 30
0.0
 11
2.27928
 21
0.527787
 31
0.0
  0
LINE
  8
0
 62
     0
 10
2.27928
 20
0.527787
 30
0.0
 11
2.00504
 21
0.682128
 31
0.0
  0
LINE
  8
0
 62
     0
 10
2.00504
 20
0.682128
 30
0.0
 11
1.74322
 21
0.855761
 31
0.0
  0
LINE
  8
0
 62
     0
 10
1.74322
 20
0.855761
 30
0.0
 11
1.49655
 21
1.05144
 31
0.0
  0
LINE
  8
0
 62
     0
 10
1.49655
 20
1.05144
 30
0.0
 11
1.26642
 21
1.26366
 31
0.0
  0
LINE
  8
0
 62
     0
 10
1.26642
 20
1.26366
 30
0.0
 11
1.05282
 21
1.49517
 31
0.0
  0
LINE
  8
0
 62
     0
 10
1.05282
 20
1.49517
 30
0.0
 11
0.857141
 21
1.74184
 31
0.0
  0
LINE
  8
0
 62
     0
 10
0.857141
 20
1.74184
 30
0.0
 11
0.683507
 21
2.00367
 31
0.0
  0
LINE
  8
0
 62
     0
 10
0.683507
 20
2.00367
 30
0.0
 11
0.529167
 21
2.2779
 31
0.0
  0
LINE
  8
0
 62
     0
 10
0.529167
 20
2.2779
 30
0.0
 11
0.398254
 21
2.56177
 31
0.0
  0
LINE
  8
0
 62
     0
 10
0.398254
 20
2.56177
 30
0.0
 11
0.289388
 21
2.85667
 31
0.0
  0
LINE
  8
0
 62
     0
 10
0.289388
 20
2.85667
 30
0.0
 11
0.205328
 21
3.15984
 31
0.0
  0
LINE
  8
0
 62
     0
 10
0.205328
 20
3.15984
 30
0.0
 11
0.143316
 21
3.46715
 31
0.0
  0
LINE
  8
0
 62
     0
 10
0.143316
 20
3.46715
 30
0.0
 11
0.106109
 21
3.77857
 31
0.0
  0
LINE
  8
0
 62
     0
 10
0.106109
 20
3.77857
 30
0.0
 11
0.0937066
 21
4.09279
 31
0.0
  0
LINE
  8
0
 62
     0
 10
0.0937066
 20
4.09279
 30
0.0
 11
0.0937066
 21
88.0939
 31
0.0
  0
LINE
  8
0
 62
     0
 10
0.0937066
 20
88.0939
 30
0.0
 11
0.106109
 21
88.4068
 31
0.0
  0
LINE
  8
0
 62
     0
 10
0.106109
 20
88.4068
 30
0.0
 11
0.143316
 21
88.7194
 31
0.0
  0
LINE
  8
0
 62
     0
 10
0.143316
 20
88.7194
 30
0.0
 11
0.205328
 21
89.0266
 31
0.0
  0
LINE
  8
0
 62
     0
 10
0.205328
 20
89.0266
 30
0.0
 11
0.289388
 21
89.33
 31
0.0
  0
LINE
  8
0
 62
     0
 10
0.289388
 20
89.33
 30
0.0
 11
0.398254
 21
89.625
 31
0.0
  0
LINE
  8
0
 62
     0
 10
0.398254
 20
89.625
 30
0.0
 11
0.529167
 21
89.9086
 31
0.0
  0
LINE
  8
0
 62
     0
 10
0.529167
 20
89.9086
 30
0.0
 11
0.683507
 21
90.1831
 31
0.0
  0
LINE
  8
0
 62
     0
 10
0.683507
 20
90.1831
 30
0.0
 11
0.857141
 21
90.4448
 31
0.0
  0
LINE
  8
0
 62
     0
 10
0.857141
 20
90.4448
 30
0.0
 11
1.05282
 21
90.6914
 31
0.0
  0
LINE
  8
0
 62
     0
 10
1.05282
 20
90.6914
 30
0.0
 11
1.26642
 21
90.9214
 31
0.0
  0
LINE
  8
0
 62
     0
 10
1.26642
 20
90.9214
 30
0.0
 11
1.49655
 21
91.1352
 31
0.0
  0
LINE
  8
0
 62
     0
 10
1.49655
 20
91.1352
 30
0.0
 11
1.74322
 21
91.331
 31
0.0
  0
LINE
  8
0
 62
     0
 10
1.74322
 20
91.331
 30
0.0
 11
2.00504
 21
91.5046
 31
0.0
  0
LINE
  8
0
 62
     0
 10
2.00504
 20
91.5046
 30
0.0
 11
2.27928
 21
91.6587
 31
0.0
  0
LINE
  8
0
 62
     0
 10
2.27928
 20
91.6587
 30
0.0
 11
2.56315
 21
91.7896
 31
0.0
  0
LINE
  8
0
 62
     0
 10
2.56315
 20
91.7896
 30
0.0
 11
2.85805
 21
91.8986
 31
0.0
  0
LINE
  8
0
 62
     0
 10
2.85805
 20
91.8986
 30
0.0
 11
3.16122
 21
91.9826
 31
0.0
  0
LINE
  8
0
 62
     0
 10
3.16122
 20
91.9826
 30
0.0
 11
3.46852
 21
92.0447
 31
0.0
  0
LINE
  8
0
 62
     0
 10
3.46852
 20
92.0447
 30
0.0
 11
3.78135
 21
92.0821
 31
0.0
  0
LINE
  8
0
 62
     0
 10
3.78135
 20
92.0821
 30
0.0
 11
4.09416
 21
92.0944
 31
0.0
  0
LINE
  8
0
 62
     0
 10
4.09416
 20
92.0944
 30
0.0
 11
242.095
 21
92.093
 31
0.0
  0
LINE
  8
0
 62
     0
 10
241.785
 20
5.04363
 30
0.0
 11
241.508
 21
4.90167
 31
0.0
  0
LINE
  8
0
 62
     0
 10
241.508
 20
4.90167
 30
0.0
 11
241.286
 21
4.67981
 31
0.0
  0
LINE
  8
0
 62
     0
 10
241.286
 20
4.67981
 30
0.0
 11
241.144
 21
4.40284
 31
0.0
  0
LINE
  8
0
 62
     0
 10
241.144
 20
4.40284
 30
0.0
 11
241.096
 21
4.09279
 31
0.0
  0
LINE
  8
0
 62
     0
 10
241.096
 20
4.09279
 30
0.0
 11
241.144
 21
3.78273
 31
0.0
  0
LINE
  8
0
 62
     0
 10
241.144
 20
3.78273
 30
0.0
 11
241.286
 21
3.50573
 31
0.0
  0
LINE
  8
0
 62
     0
 10
241.286
 20
3.50573
 30
0.0
 11
241.508
 21
3.28386
 31
0.0
  0
LINE
  8
0
 62
     0
 10
241.508
 20
3.28386
 30
0.0
 11
241.785
 21
3.14193
 31
0.0
  0
LINE
  8
0
 62
     0
 10
241.785
 20
3.14193
 30
0.0
 11
242.095
 21
3.09232
 31
0.0
  0
LINE
  8
0
 62
     0
 10
242.095
 20
3.09232
 30
0.0
 11
242.405
 21
3.14193
 31
0.0
  0
LINE
  8
0
 62
     0
 10
242.405
 20
3.14193
 30
0.0
 11
242.682
 21
3.28386
 31
0.0
  0
LINE
  8
0
 62
     0
 10
242.682
 20
3.28386
 30
0.0
 11
242.906
 21
3.50573
 31
0.0
  0
LINE
  8
0
 62
     0
 10
242.906
 20
3.50573
 30
0.0
 11
243.047
 21
3.78273
 31
0.0
  0
LINE
  8
0
 62
     0
 10
243.047
 20
3.78273
 30
0.0
 11
243.096
 21
4.09279
 31
0.0
  0
LINE
  8
0
 62
     0
 10
243.096
 20
4.09279
 30
0.0
 11
243.047
 21
4.40284
 31
0.0
  0
LINE
  8
0
 62
     0
 10
243.047
 20
4.40284
 30
0.0
 11
242.906
 21
4.67981
 31
0.0
  0
LINE
  8
0
 62
     0
 10
242.906
 20
4.67981
 30
0.0
 11
242.682
 21
4.90167
 31
0.0
  0
LINE
  8
0
 62
     0
 10
242.682
 20
4.90167
 30
0.0
 11
242.405
 21
5.04363
 31
0.0
  0
LINE
  8
0
 62
     0
 10
242.405
 20
5.04363
 30
0.0
 11
242.095
 21
5.09185
 31
0.0
  0
LINE
  8
0
 62
     0
 10
242.095
 20
5.09185
 30
0.0
 11
241.785
 21
5.04363
 31
0.0
  0
LINE
  8
0
 62
     0
 10
162.453
 20
5.04363
 30
0.0
 11
162.174
 21
4.90167
 31
0.0
  0
LINE
  8
0
 62
     0
 10
162.174
 20
4.90167
 30
0.0
 11
161.953
 21
4.67981
 31
0.0
  0
LINE
  8
0
 62
     0
 10
161.953
 20
4.67981
 30
0.0
 11
161.811
 21
4.40284
 31
0.0
  0
LINE
  8
0
 62
     0
 10
161.811
 20
4.40284
 30
0.0
 11
161.762
 21
4.09279
 31
0.0
  0
LINE
  8
0
 62
     0
 10
161.762
 20
4.09279
 30
0.0
 11
161.811
 21
3.78273
 31
0.0
  0
LINE
  8
0
 62
     0
 10
161.811
 20
3.78273
 30
0.0
 11
161.953
 21
3.50573
 31
0.0
  0
LINE
  8
0
 62
     0
 10
161.953
 20
3.50573
 30
0.0
 11
162.174
 21
3.28386
 31
0.0
  0
LINE
  8
0
 62
     0
 10
162.174
 20
3.28386
 30
0.0
 11
162.453
 21
3.14193
 31
0.0
  0
LINE
  8
0
 62
     0
 10
162.453
 20
3.14193
 30
0.0
 11
162.761
 21
3.09232
 31
0.0
  0
LINE
  8
0
 62
     0
 10
162.761
 20
3.09232
 30
0.0
 11
163.07
 21
3.14193
 31
0.0
  0
LINE
  8
0
 62
     0
 10
163.07
 20
3.14193
 30
0.0
 11
163.35
 21
3.28386
 31
0.0
  0
LINE
  8
0
 62
     0
 10
163.35
 20
3.28386
 30
0.0
 11
163.57
 21
3.50573
 31
0.0
  0
LINE
  8
0
 62
     0
 10
163.57
 20
3.50573
 30
0.0
 11
163.712
 21
3.78273
 31
0.0
  0
LINE
  8
0
 62
     0
 10
163.712
 20
3.78273
 30
0.0
 11
163.762
 21
4.09279
 31
0.0
  0
LINE
  8
0
 62
     0
 10
163.762
 20
4.09279
 30
0.0
 11
163.712
 21
4.40284
 31
0.0
  0
LINE
  8
0
 62
     0
 10
163.712
 20
4.40284
 30
0.0
 11
163.57
 21
4.67981
 31
0.0
  0
LINE
  8
0
 62
     0
 10
163.57
 20
4.67981
 30
0.0
 11
163.35
 21
4.90167
 31
0.0
  0
LINE
  8
0
 62
     0
 10
163.35
 20
4.90167
 30
0.0
 11
163.07
 21
5.04363
 31
0.0
  0
LINE
  8
0
 62
     0
 10
163.07
 20
5.04363
 30
0.0
 11
162.761
 21
5.09185
 31
0.0
  0
LINE
  8
0
 62
     0
 10
162.761
 20
5.09185
 30
0.0
 11
162.453
 21
5.04363
 31
0.0
  0
LINE
  8
0
 62
     0
 10
83.119
 20
5.04363
 30
0.0
 11
82.8393
 21
4.90167
 31
0.0
  0
LINE
  8
0
 62
     0
 10
82.8393
 20
4.90167
 30
0.0
 11
82.6188
 21
4.67981
 31
0.0
  0
LINE
  8
0
 62
     0
 10
82.6188
 20
4.67981
 30
0.0
 11
82.477
 21
4.40284
 31
0.0
  0
LINE
  8
0
 62
     0
 10
82.477
 20
4.40284
 30
0.0
 11
82.4272
 21
4.09279
 31
0.0
  0
LINE
  8
0
 62
     0
 10
82.4272
 20
4.09279
 30
0.0
 11
82.477
 21
3.78273
 31
0.0
  0
LINE
  8
0
 62
     0
 10
82.477
 20
3.78273
 30
0.0
 11
82.6188
 21
3.50573
 31
0.0
  0
LINE
  8
0
 62
     0
 10
82.6188
 20
3.50573
 30
0.0
 11
82.8393
 21
3.28386
 31
0.0
  0
LINE
  8
0
 62
     0
 10
82.8393
 20
3.28386
 30
0.0
 11
83.119
 21
3.14193
 31
0.0
  0
LINE
  8
0
 62
     0
 10
83.119
 20
3.14193
 30
0.0
 11
83.4277
 21
3.09232
 31
0.0
  0
LINE
  8
0
 62
     0
 10
83.4277
 20
3.09232
 30
0.0
 11
83.7364
 21
3.14193
 31
0.0
  0
LINE
  8
0
 62
     0
 10
83.7364
 20
3.14193
 30
0.0
 11
84.0161
 21
3.28386
 31
0.0
  0
LINE
  8
0
 62
     0
 10
84.0161
 20
3.28386
 30
0.0
 11
84.2366
 21
3.50573
 31
0.0
  0
LINE
  8
0
 62
     0
 10
84.2366
 20
3.50573
 30
0.0
 11
84.3788
 21
3.78273
 31
0.0
  0
LINE
  8
0
 62
     0
 10
84.3788
 20
3.78273
 30
0.0
 11
84.4282
 21
4.09279
 31
0.0
  0
LINE
  8
0
 62
     0
 10
84.4282
 20
4.09279
 30
0.0
 11
84.3788
 21
4.40284
 31
0.0
  0
LINE
  8
0
 62
     0
 10
84.3788
 20
4.40284
 30
0.0
 11
84.2366
 21
4.67981
 31
0.0
  0
LINE
  8
0
 62
     0
 10
84.2366
 20
4.67981
 30
0.0
 11
84.0161
 21
4.90167
 31
0.0
  0
LINE
  8
0
 62
     0
 10
84.0161
 20
4.90167
 30
0.0
 11
83.7364
 21
5.04363
 31
0.0
  0
LINE
  8
0
 62
     0
 10
83.7364
 20
5.04363
 30
0.0
 11
83.4277
 21
5.09185
 31
0.0
  0
LINE
  8
0
 62
     0
 10
83.4277
 20
5.09185
 30
0.0
 11
83.119
 21
5.04363
 31
0.0
  0
LINE
  8
0
 62
     0
 10
3.78411
 20
5.04363
 30
0.0
 11
3.50711
 21
4.90167
 31
0.0
  0
LINE
  8
0
 62
     0
 10
3.50711
 20
4.90167
 30
0.0
 11
3.28386
 21
4.67981
 31
0.0
  0
LINE
  8
0
 62
     0
 10
3.28386
 20
4.67981
 30
0.0
 11
3.14331
 21
4.40284
 31
0.0
  0
LINE
  8
0
 62
     0
 10
3.14331
 20
4.40284
 30
0.0
 11
3.09507
 21
4.09279
 31
0.0
  0
LINE
  8
0
 62
     0
 10
3.09507
 20
4.09279
 30
0.0
 11
3.14331
 21
3.78273
 31
0.0
  0
LINE
  8
0
 62
     0
 10
3.14331
 20
3.78273
 30
0.0
 11
3.28386
 21
3.50573
 31
0.0
  0
LINE
  8
0
 62
     0
 10
3.28386
 20
3.50573
 30
0.0
 11
3.50711
 21
3.28386
 31
0.0
  0
LINE
  8
0
 62
     0
 10
3.50711
 20
3.28386
 30
0.0
 11
3.78411
 21
3.14193
 31
0.0
  0
LINE
  8
0
 62
     0
 10
3.78411
 20
3.14193
 30
0.0
 11
4.09416
 21
3.09232
 31
0.0
  0
LINE
  8
0
 62
     0
 10
4.09416
 20
3.09232
 30
0.0
 11
4.40422
 21
3.14193
 31
0.0
  0
LINE
  8
0
 62
     0
 10
4.40422
 20
3.14193
 30
0.0
 11
4.68118
 21
3.28386
 31
0.0
  0
LINE
  8
0
 62
     0
 10
4.68118
 20
3.28386
 30
0.0
 11
4.90442
 21
3.50573
 31
0.0
  0
LINE
  8
0
 62
     0
 10
4.90442
 20
3.50573
 30
0.0
 11
5.04638
 21
3.78273
 31
0.0
  0
LINE
  8
0
 62
     0
 10
5.04638
 20
3.78273
 30
0.0
 11
5.0946
 21
4.09279
 31
0.0
  0
LINE
  8
0
 62
     0
 10
5.0946
 20
4.09279
 30
0.0
 11
5.04638
 21
4.40284
 31
0.0
  0
LINE
  8
0
 62
     0
 10
5.04638
 20
4.40284
 30
0.0
 11
4.90442
 21
4.67981
 31
0.0
  0
LINE
  8
0
 62
     0
 10
4.90442
 20
4.67981
 30
0.0
 11
4.68118
 21
4.90167
 31
0.0
  0
LINE
  8
0
 62
     0
 10
4.68118
 20
4.90167
 30
0.0
 11
4.40422
 21
5.04363
 31
0.0
  0
LINE
  8
0
 62
     0
 10
4.40422
 20
5.04363
 30
0.0
 11
4.09416
 21
5.09185
 31
0.0
  0
LINE
  8
0
 62
     0
 10
4.09416
 20
5.09185
 30
0.0
 11
3.78411
 21
5.04363
 31
0.0
  0
LINE
  8
0
 62
     0
 10
10.7942
 20
23.993
 30
0.0
 11
26.3949
 21
23.993
 31
0.0
  0
LINE
  8
0
 62
     0
 10
26.3949
 20
23.993
 30
0.0
 11
26.3949
 21
11.1938
 31
0.0
  0
LINE
  8
0
 62
     0
 10
26.3949
 20
11.1938
 30
0.0
 11
10.7942
 21
11.1938
 31
0.0
  0
LINE
  8
0
 62
     0
 10
10.7942
 20
11.1938
 30
0.0
 11
10.7942
 21
23.993
 31
0.0
  0
LINE
  8
0
 62
     0
 10
29.7946
 20
23.993
 30
0.0
 11
45.3954
 21
23.993
 31
0.0
  0
LINE
  8
0
 62
     0
 10
45.3954
 20
23.993
 30
0.0
 11
45.3954
 21
11.1938
 31
0.0
  0
LINE
  8
0
 62
     0
 10
45.3954
 20
11.1938
 30
0.0
 11
29.7946
 21
11.1938
 31
0.0
  0
LINE
  8
0
 62
     0
 10
29.7946
 20
11.1938
 30
0.0
 11
29.7946
 21
23.993
 31
0.0
  0
LINE
  8
0
 62
     0
 10
48.7948
 20
23.993
 30
0.0
 11
64.3943
 21
23.993
 31
0.0
  0
LINE
  8
0
 62
     0
 10
64.3943
 20
23.993
 30
0.0
 11
64.3943
 21
11.1938
 31
0.0
  0
LINE
  8
0
 62
     0
 10
64.3943
 20
11.1938
 30
0.0
 11
48.7948
 21
11.1938
 31
0.0
  0
LINE
  8
0
 62
     0
 10
48.7948
 20
11.1938
 30
0.0
 11
48.7948
 21
23.993
 31
0.0
  0
LINE
  8
0
 62
     0
 10
67.7954
 20
23.993
 30
0.0
 11
83.3949
 21
23.993
 31
0.0
  0
LINE
  8
0
 62
     0
 10
83.3949
 20
23.993
 30
0.0
 11
83.3949
 21
11.1938
 31
0.0
  0
LINE
  8
0
 62
     0
 10
83.3949
 20
11.1938
 30
0.0
 11
67.7954
 21
11.1938
 31
0.0
  0
LINE
  8
0
 62
     0
 10
67.7954
 20
11.1938
 30
0.0
 11
67.7954
 21
23.993
 31
0.0
  0
LINE
  8
0
 62
     0
 10
86.7943
 20
23.993
 30
0.0
 11
102.395
 21
23.993
 31
0.0
  0
LINE
  8
0
 62
     0
 10
102.395
 20
23.993
 30
0.0
 11
102.395
 21
11.1938
 31
0.0
  0
LINE
  8
0
 62
     0
 10
102.395
 20
11.1938
 30
0.0
 11
86.7943
 21
11.1938
 31
0.0
  0
LINE
  8
0
 62
     0
 10
86.7943
 20
11.1938
 30
0.0
 11
86.7943
 21
23.993
 31
0.0
  0
LINE
  8
0
 62
     0
 10
105.795
 20
23.993
 30
0.0
 11
121.394
 21
23.993
 31
0.0
  0
LINE
  8
0
 62
     0
 10
121.394
 20
23.993
 30
0.0
 11
121.394
 21
11.1938
 31
0.0
  0
LINE
  8
0
 62
     0
 10
121.394
 20
11.1938
 30
0.0
 11
105.795
 21
11.1938
 31
0.0
  0
LINE
  8
0
 62
     0
 10
105.795
 20
11.1938
 30
0.0
 11
105.795
 21
23.993
 31
0.0
  0
LINE
  8
0
 62
     0
 10
124.794
 20
23.993
 30
0.0
 11
140.395
 21
23.993
 31
0.0
  0
LINE
  8
0
 62
     0
 10
140.395
 20
23.993
 30
0.0
 11
140.395
 21
11.1938
 31
0.0
  0
LINE
  8
0
 62
     0
 10
140.395
 20
11.1938
 30
0.0
 11
124.794
 21
11.1938
 31
0.0
  0
LINE
  8
0
 62
     0
 10
124.794
 20
11.1938
 30
0.0
 11
124.794
 21
23.993
 31
0.0
  0
LINE
  8
0
 62
     0
 10
143.794
 20
23.993
 30
0.0
 11
159.395
 21
23.993
 31
0.0
  0
LINE
  8
0
 62
     0
 10
159.395
 20
23.993
 30
0.0
 11
159.395
 21
11.1938
 31
0.0
  0
LINE
  8
0
 62
     0
 10
159.395
 20
11.1938
 30
0.0
 11
143.794
 21
11.1938
 31
0.0
  0
LINE
  8
0
 62
     0
 10
143.794
 20
11.1938
 30
0.0
 11
143.794
 21
23.993
 31
0.0
  0
LINE
  8
0
 62
     0
 10
162.795
 20
23.993
 30
0.0
 11
178.395
 21
23.993
 31
0.0
  0
LINE
  8
0
 62
     0
 10
178.395
 20
23.993
 30
0.0
 11
178.395
 21
11.1938
 31
0.0
  0
LINE
  8
0
 62
     0
 10
178.395
 20
11.1938
 30
0.0
 11
162.795
 21
11.1938
 31
0.0
  0
LINE
  8
0
 62
     0
 10
162.795
 20
11.1938
 30
0.0
 11
162.795
 21
23.993
 31
0.0
  0
LINE
  8
0
 62
     0
 10
181.795
 20
23.993
 30
0.0
 11
197.394
 21
23.993
 31
0.0
  0
LINE
  8
0
 62
     0
 10
197.394
 20
23.993
 30
0.0
 11
197.394
 21
11.1938
 31
0.0
  0
LINE
  8
0
 62
     0
 10
197.394
 20
11.1938
 30
0.0
 11
181.795
 21
11.1938
 31
0.0
  0
LINE
  8
0
 62
     0
 10
181.795
 20
11.1938
 30
0.0
 11
181.795
 21
23.993
 31
0.0
  0
LINE
  8
0
 62
     0
 10
200.795
 20
23.993
 30
0.0
 11
216.395
 21
23.993
 31
0.0
  0
LINE
  8
0
 62
     0
 10
216.395
 20
23.993
 30
0.0
 11
216.395
 21
11.1938
 31
0.0
  0
LINE
  8
0
 62
     0
 10
216.395
 20
11.1938
 30
0.0
 11
200.795
 21
11.1938
 31
0.0
  0
LINE
  8
0
 62
     0
 10
200.795
 20
11.1938
 30
0.0
 11
200.795
 21
23.993
 31
0.0
  0
LINE
  8
0
 62
     0
 10
219.794
 20
23.993
 30
0.0
 11
235.395
 21
23.993
 31
0.0
  0
LINE
  8
0
 62
     0
 10
235.395
 20
23.993
 30
0.0
 11
235.395
 21
11.1938
 31
0.0
  0
LINE
  8
0
 62
     0
 10
235.395
 20
11.1938
 30
0.0
 11
219.794
 21
11.1938
 31
0.0
  0
LINE
  8
0
 62
     0
 10
219.794
 20
11.1938
 30
0.0
 11
219.794
 21
23.993
 31
0.0
  0
LINE
  8
0
 62
     0
 10
10.7942
 20
42.9934
 30
0.0
 11
26.3949
 21
42.9934
 31
0.0
  0
LINE
  8
0
 62
     0
 10
26.3949
 20
42.9934
 30
0.0
 11
26.3949
 21
30.1928
 31
0.0
  0
LINE
  8
0
 62
     0
 10
26.3949
 20
30.1928
 30
0.0
 11
10.7942
 21
30.1928
 31
0.0
  0
LINE
  8
0
 62
     0
 10
10.7942
 20
30.1928
 30
0.0
 11
10.7942
 21
42.9934
 31
0.0
  0
LINE
  8
0
 62
     0
 10
29.7946
 20
42.9934
 30
0.0
 11
45.3954
 21
42.9934
 31
0.0
  0
LINE
  8
0
 62
     0
 10
45.3954
 20
42.9934
 30
0.0
 11
45.3954
 21
30.1928
 31
0.0
  0
LINE
  8
0
 62
     0
 10
45.3954
 20
30.1928
 30
0.0
 11
29.7946
 21
30.1928
 31
0.0
  0
LINE
  8
0
 62
     0
 10
29.7946
 20
30.1928
 30
0.0
 11
29.7946
 21
42.9934
 31
0.0
  0
LINE
  8
0
 62
     0
 10
48.7948
 20
42.9934
 30
0.0
 11
64.3943
 21
42.9934
 31
0.0
  0
LINE
  8
0
 62
     0
 10
64.3943
 20
42.9934
 30
0.0
 11
64.3943
 21
30.1928
 31
0.0
  0
LINE
  8
0
 62
     0
 10
64.3943
 20
30.1928
 30
0.0
 11
48.7948
 21
30.1928
 31
0.0
  0
LINE
  8
0
 62
     0
 10
48.7948
 20
30.1928
 30
0.0
 11
48.7948
 21
42.9934
 31
0.0
  0
LINE
  8
0
 62
     0
 10
67.7954
 20
42.9934
 30
0.0
 11
83.3949
 21
42.9934
 31
0.0
  0
LINE
  8
0
 62
     0
 10
83.3949
 20
42.9934
 30
0.0
 11
83.3949
 21
30.1928
 31
0.0
  0
LINE
  8
0
 62
     0
 10
83.3949
 20
30.1928
 30
0.0
 11
67.7954
 21
30.1928
 31
0.0
  0
LINE
  8
0
 62
     0
 10
67.7954
 20
30.1928
 30
0.0
 11
67.7954
 21
42.9934
 31
0.0
  0
LINE
  8
0
 62
     0
 10
86.7943
 20
42.9934
 30
0.0
 11
102.395
 21
42.9934
 31
0.0
  0
LINE
  8
0
 62
     0
 10
102.395
 20
42.9934
 30
0.0
 11
102.395
 21
30.1928
 31
0.0
  0
LINE
  8
0
 62
     0
 10
102.395
 20
30.1928
 30
0.0
 11
86.7943
 21
30.1928
 31
0.0
  0
LINE
  8
0
 62
     0
 10
86.7943
 20
30.1928
 30
0.0
 11
86.7943
 21
42.9934
 31
0.0
  0
LINE
  8
0
 62
     0
 10
105.795
 20
42.9934
 30
0.0
 11
121.394
 21
42.9934
 31
0.0
  0
LINE
  8
0
 62
     0
 10
121.394
 20
42.9934
 30
0.0
 11
121.394
 21
30.1928
 31
0.0
  0
LINE
  8
0
 62
     0
 10
121.394
 20
30.1928
 30
0.0
 11
105.795
 21
30.1928
 31
0.0
  0
LINE
  8
0
 62
     0
 10
105.795
 20
30.1928
 30
0.0
 11
105.795
 21
42.9934
 31
0.0
  0
LINE
  8
0
 62
     0
 10
124.794
 20
42.9934
 30
0.0
 11
140.395
 21
42.9934
 31
0.0
  0
LINE
  8
0
 62
     0
 10
140.395
 20
42.9934
 30
0.0
 11
140.395
 21
30.1928
 31
0.0
  0
LINE
  8
0
 62
     0
 10
140.395
 20
30.1928
 30
0.0
 11
124.794
 21
30.1928
 31
0.0
  0
LINE
  8
0
 62
     0
 10
124.794
 20
30.1928
 30
0.0
 11
124.794
 21
42.9934
 31
0.0
  0
LINE
  8
0
 62
     0
 10
143.794
 20
42.9934
 30
0.0
 11
159.395
 21
42.9934
 31
0.0
  0
LINE
  8
0
 62
     0
 10
159.395
 20
42.9934
 30
0.0
 11
159.395
 21
30.1928
 31
0.0
  0
LINE
  8
0
 62
     0
 10
159.395
 20
30.1928
 30
0.0
 11
143.794
 21
30.1928
 31
0.0
  0
LINE
  8
0
 62
     0
 10
143.794
 20
30.1928
 30
0.0
 11
143.794
 21
42.9934
 31
0.0
  0
LINE
  8
0
 62
     0
 10
162.795
 20
42.9934
 30
0.0
 11
178.395
 21
42.9934
 31
0.0
  0
LINE
  8
0
 62
     0
 10
178.395
 20
42.9934
 30
0.0
 11
178.395
 21
30.1928
 31
0.0
  0
LINE
  8
0
 62
     0
 10
178.395
 20
30.1928
 30
0.0
 11
162.795
 21
30.1928
 31
0.0
  0
LINE
  8
0
 62
     0
 10
162.795
 20
30.1928
 30
0.0
 11
162.795
 21
42.9934
 31
0.0
  0
LINE
  8
0
 62
     0
 10
181.795
 20
42.9934
 30
0.0
 11
197.394
 21
42.9934
 31
0.0
  0
LINE
  8
0
 62
     0
 10
197.394
 20
42.9934
 30
0.0
 11
197.394
 21
30.1928
 31
0.0
  0
LINE
  8
0
 62
     0
 10
197.394
 20
30.1928
 30
0.0
 11
181.795
 21
30.1928
 31
0.0
  0
LINE
  8
0
 62
     0
 10
181.795
 20
30.1928
 30
0.0
 11
181.795
 21
42.9934
 31
0.0
  0
LINE
  8
0
 62
     0
 10
200.795
 20
42.9934
 30
0.0
 11
216.395
 21
42.9934
 31
0.0
  0
LINE
  8
0
 62
     0
 10
216.395
 20
42.9934
 30
0.0
 11
216.395
 21
30.1928
 31
0.0
  0
LINE
  8
0
 62
     0
 10
216.395
 20
30.1928
 30
0.0
 11
200.795
 21
30.1928
 31
0.0
  0
LINE
  8
0
 62
     0
 10
200.795
 20
30.1928
 30
0.0
 11
200.795
 21
42.9934
 31
0.0
  0
LINE
  8
0
 62
     0
 10
219.794
 20
42.9934
 30
0.0
 11
235.395
 21
42.9934
 31
0.0
  0
LINE
  8
0
 62
     0
 10
235.395
 20
42.9934
 30
0.0
 11
235.395
 21
30.1928
 31
0.0
  0
LINE
  8
0
 62
     0
 10
235.395
 20
30.1928
 30
0.0
 11
219.794
 21
30.1928
 31
0.0
  0
LINE
  8
0
 62
     0
 10
219.794
 20
30.1928
 30
0.0
 11
219.794
 21
42.9934
 31
0.0
  0
LINE
  8
0
 62
     0
 10
10.7942
 20
61.9936
 30
0.0
 11
26.3949
 21
61.9936
 31
0.0
  0
LINE
  8
0
 62
     0
 10
26.3949
 20
61.9936
 30
0.0
 11
26.3949
 21
49.1931
 31
0.0
  0
LINE
  8
0
 62
     0
 10
26.3949
 20
49.1931
 30
0.0
 11
10.7942
 21
49.1931
 31
0.0
  0
LINE
  8
0
 62
     0
 10
10.7942
 20
49.1931
 30
0.0
 11
10.7942
 21
61.9936
 31
0.0
  0
LINE
  8
0
 62
     0
 10
29.7946
 20
61.9936
 30
0.0
 11
45.3954
 21
61.9936
 31
0.0
  0
LINE
  8
0
 62
     0
 10
45.3954
 20
61.9936
 30
0.0
 11
45.3954
 21
49.1931
 31
0.0
  0
LINE
  8
0
 62
     0
 10
45.3954
 20
49.1931
 30
0.0
 11
29.7946
 21
49.1931
 31
0.0
  0
LINE
  8
0
 62
     0
 10
29.7946
 20
49.1931
 30
0.0
 11
29.7946
 21
61.9936
 31
0.0
  0
LINE
  8
0
 62
     0
 10
48.7948
 20
61.9936
 30
0.0
 11
64.3943
 21
61.9936
 31
0.0
  0
LINE
  8
0
 62
     0
 10
64.3943
 20
61.9936
 30
0.0
 11
64.3943
 21
49.1931
 31
0.0
  0
LINE
  8
0
 62
     0
 10
64.3943
 20
49.1931
 30
0.0
 11
48.7948
 21
49.1931
 31
0.0
  0
LINE
  8
0
 62
     0
 10
48.7948
 20
49.1931
 30
0.0
 11
48.7948
 21
61.9936
 31
0.0
  0
LINE
  8
0
 62
     0
 10
67.7954
 20
61.9936
 30
0.0
 11
83.3949
 21
61.9936
 31
0.0
  0
LINE
  8
0
 62
     0
 10
83.3949
 20
61.9936
 30
0.0
 11
83.3949
 21
49.1931
 31
0.0
  0
LINE
  8
0
 62
     0
 10
83.3949
 20
49.1931
 30
0.0
 11
67.7954
 21
49.1931
 31
0.0
  0
LINE
  8
0
 62
     0
 10
67.7954
 20
49.1931
 30
0.0
 11
67.7954
 21
61.9936
 31
0.0
  0
LINE
  8
0
 62
     0
 10
86.7943
 20
61.9936
 30
0.0
 11
102.395
 21
61.9936
 31
0.0
  0
LINE
  8
0
 62
     0
 10
102.395
 20
61.9936
 30
0.0
 11
102.395
 21
49.1931
 31
0.0
  0
LINE
  8
0
 62
     0
 10
102.395
 20
49.1931
 30
0.0
 11
86.7943
 21
49.1931
 31
0.0
  0
LINE
  8
0
 62
     0
 10
86.7943
 20
49.1931
 30
0.0
 11
86.7943
 21
61.9936
 31
0.0
  0
LINE
  8
0
 62
     0
 10
105.795
 20
61.9936
 30
0.0
 11
121.394
 21
61.9936
 31
0.0
  0
LINE
  8
0
 62
     0
 10
121.394
 20
61.9936
 30
0.0
 11
121.394
 21
49.1931
 31
0.0
  0
LINE
  8
0
 62
     0
 10
121.394
 20
49.1931
 30
0.0
 11
105.795
 21
49.1931
 31
0.0
  0
LINE
  8
0
 62
     0
 10
105.795
 20
49.1931
 30
0.0
 11
105.795
 21
61.9936
 31
0.0
  0
LINE
  8
0
 62
     0
 10
124.794
 20
61.9936
 30
0.0
 11
140.395
 21
61.9936
 31
0.0
  0
LINE
  8
0
 62
     0
 10
140.395
 20
61.9936
 30
0.0
 11
140.395
 21
49.1931
 31
0.0
  0
LINE
  8
0
 62
     0
 10
140.395
 20
49.1931
 30
0.0
 11
124.794
 21
49.1931
 31
0.0
  0
LINE
  8
0
 62
     0
 10
124.794
 20
49.1931
 30
0.0
 11
124.794
 21
61.9936
 31
0.0
  0
LINE
  8
0
 62
     0
 10
143.794
 20
61.9936
 30
0.0
 11
159.395
 21
61.9936
 31
0.0
  0
LINE
  8
0
 62
     0
 10
159.395
 20
61.9936
 30
0.0
 11
159.395
 21
49.1931
 31
0.0
  0
LINE
  8
0
 62
     0
 10
159.395
 20
49.1931
 30
0.0
 11
143.794
 21
49.1931
 31
0.0
  0
LINE
  8
0
 62
     0
 10
143.794
 20
49.1931
 30
0.0
 11
143.794
 21
61.9936
 31
0.0
  0
LINE
  8
0
 62
     0
 10
162.795
 20
61.9936
 30
0.0
 11
178.395
 21
61.9936
 31
0.0
  0
LINE
  8
0
 62
     0
 10
178.395
 20
61.9936
 30
0.0
 11
178.395
 21
49.1931
 31
0.0
  0
LINE
  8
0
 62
     0
 10
178.395
 20
49.1931
 30
0.0
 11
162.795
 21
49.1931
 31
0.0
  0
LINE
  8
0
 62
     0
 10
162.795
 20
49.1931
 30
0.0
 11
162.795
 21
61.9936
 31
0.0
  0
LINE
  8
0
 62
     0
 10
181.795
 20
61.9936
 30
0.0
 11
197.394
 21
61.9936
 31
0.0
  0
LINE
  8
0
 62
     0
 10
197.394
 20
61.9936
 30
0.0
 11
197.394
 21
49.1931
 31
0.0
  0
LINE
  8
0
 62
     0
 10
197.394
 20
49.1931
 30
0.0
 11
181.795
 21
49.1931
 31
0.0
  0
LINE
  8
0
 62
     0
 10
181.795
 20
49.1931
 30
0.0
 11
181.795
 21
61.9936
 31
0.0
  0
LINE
  8
0
 62
     0
 10
200.795
 20
61.9936
 30
0.0
 11
216.395
 21
61.9936
 31
0.0
  0
LINE
  8
0
 62
     0
 10
216.395
 20
61.9936
 30
0.0
 11
216.395
 21
49.1931
 31
0.0
  0
LINE
  8
0
 62
     0
 10
216.395
 20
49.1931
 30
0.0
 11
200.795
 21
49.1931
 31
0.0
  0
LINE
  8
0
 62
     0
 10
200.795
 20
49.1931
 30
0.0
 11
200.795
 21
61.9936
 31
0.0
  0
LINE
  8
0
 62
     0
 10
219.794
 20
61.9936
 30
0.0
 11
235.395
 21
61.9936
 31
0.0
  0
LINE
  8
0
 62
     0
 10
235.395
 20
61.9936
 30
0.0
 11
235.395
 21
49.1931
 31
0.0
  0
LINE
  8
0
 62
     0
 10
235.395
 20
49.1931
 30
0.0
 11
219.794
 21
49.1931
 31
0.0
  0
LINE
  8
0
 62
     0
 10
219.794
 20
49.1931
 30
0.0
 11
219.794
 21
61.9936
 31
0.0
  0
LINE
  8
0
 62
     0
 10
10.7942
 20
80.9928
 30
0.0
 11
26.3949
 21
80.9928
 31
0.0
  0
LINE
  8
0
 62
     0
 10
26.3949
 20
80.9928
 30
0.0
 11
26.3949
 21
68.1937
 31
0.0
  0
LINE
  8
0
 62
     0
 10
26.3949
 20
68.1937
 30
0.0
 11
10.7942
 21
68.1937
 31
0.0
  0
LINE
  8
0
 62
     0
 10
10.7942
 20
68.1937
 30
0.0
 11
10.7942
 21
80.9928
 31
0.0
  0
LINE
  8
0
 62
     0
 10
29.7946
 20
80.9928
 30
0.0
 11
45.3954
 21
80.9928
 31
0.0
  0
LINE
  8
0
 62
     0
 10
45.3954
 20
80.9928
 30
0.0
 11
45.3954
 21
68.1937
 31
0.0
  0
LINE
  8
0
 62
     0
 10
45.3954
 20
68.1937
 30
0.0
 11
29.7946
 21
68.1937
 31
0.0
  0
LINE
  8
0
 62
     0
 10
29.7946
 20
68.1937
 30
0.0
 11
29.7946
 21
80.9928
 31
0.0
  0
LINE
  8
0
 62
     0
 10
48.7948
 20
80.9928
 30
0.0
 11
64.3943
 21
80.9928
 31
0.0
  0
LINE
  8
0
 62
     0
 10
64.3943
 20
80.9928
 30
0.0
 11
64.3943
 21
68.1937
 31
0.0
  0
LINE
  8
0
 62
     0
 10
64.3943
 20
68.1937
 30
0.0
 11
48.7948
 21
68.1937
 31
0.0
  0
LINE
  8
0
 62
     0
 10
48.7948
 20
68.1937
 30
0.0
 11
48.7948
 21
80.9928
 31
0.0
  0
LINE
  8
0
 62
     0
 10
67.7954
 20
80.9928
 30
0.0
 11
83.3949
 21
80.9928
 31
0.0
  0
LINE
  8
0
 62
     0
 10
83.3949
 20
80.9928
 30
0.0
 11
83.3949
 21
68.1937
 31
0.0
  0
LINE
  8
0
 62
     0
 10
83.3949
 20
68.1937
 30
0.0
 11
67.7954
 21
68.1937
 31
0.0
  0
LINE
  8
0
 62
     0
 10
67.7954
 20
68.1937
 30
0.0
 11
67.7954
 21
80.9928
 31
0.0
  0
LINE
  8
0
 62
     0
 10
86.7943
 20
80.9928
 30
0.0
 11
102.395
 21
80.9928
 31
0.0
  0
LINE
  8
0
 62
     0
 10
102.395
 20
80.9928
 30
0.0
 11
102.395
 21
68.1937
 31
0.0
  0
LINE
  8
0
 62
     0
 10
102.395
 20
68.1937
 30
0.0
 11
86.7943
 21
68.1937
 31
0.0
  0
LINE
  8
0
 62
     0
 10
86.7943
 20
68.1937
 30
0.0
 11
86.7943
 21
80.9928
 31
0.0
  0
LINE
  8
0
 62
     0
 10
105.795
 20
80.9928
 30
0.0
 11
121.394
 21
80.9928
 31
0.0
  0
LINE
  8
0
 62
     0
 10
121.394
 20
80.9928
 30
0.0
 11
121.394
 21
68.1937
 31
0.0
  0
LINE
  8
0
 62
     0
 10
121.394
 20
68.1937
 30
0.0
 11
105.795
 21
68.1937
 31
0.0
  0
LINE
  8
0
 62
     0
 10
105.795
 20
68.1937
 30
0.0
 11
105.795
 21
80.9928
 31
0.0
  0
LINE
  8
0
 62
     0
 10
124.794
 20
80.9928
 30
0.0
 11
140.395
 21
80.9928
 31
0.0
  0
LINE
  8
0
 62
     0
 10
140.395
 20
80.9928
 30
0.0
 11
140.395
 21
68.1937
 31
0.0
  0
LINE
  8
0
 62
     0
 10
140.395
 20
68.1937
 30
0.0
 11
124.794
 21
68.1937
 31
0.0
  0
LINE
  8
0
 62
     0
 10
124.794
 20
68.1937
 30
0.0
 11
124.794
 21
80.9928
 31
0.0
  0
LINE
  8
0
 62
     0
 10
143.794
 20
80.9928
 30
0.0
 11
159.395
 21
80.9928
 31
0.0
  0
LINE
  8
0
 62
     0
 10
159.395
 20
80.9928
 30
0.0
 11
159.395
 21
68.1937
 31
0.0
  0
LINE
  8
0
 62
     0
 10
159.395
 20
68.1937
 30
0.0
 11
143.794
 21
68.1937
 31
0.0
  0
LINE
  8
0
 62
     0
 10
143.794
 20
68.1937
 30
0.0
 11
143.794
 21
80.9928
 31
0.0
  0
LINE
  8
0
 62
     0
 10
162.795
 20
80.9928
 30
0.0
 11
178.395
 21
80.9928
 31
0.0
  0
LINE
  8
0
 62
     0
 10
178.395
 20
80.9928
 30
0.0
 11
178.395
 21
68.1937
 31
0.0
  0
LINE
  8
0
 62
     0
 10
178.395
 20
68.1937
 30
0.0
 11
162.795
 21
68.1937
 31
0.0
  0
LINE
  8
0
 62
     0
 10
162.795
 20
68.1937
 30
0.0
 11
162.795
 21
80.9928
 31
0.0
  0
LINE
  8
0
 62
     0
 10
181.795
 20
80.9928
 30
0.0
 11
197.394
 21
80.9928
 31
0.0
  0
LINE
  8
0
 62
     0
 10
197.394
 20
80.9928
 30
0.0
 11
197.394
 21
68.1937
 31
0.0
  0
LINE
  8
0
 62
     0
 10
197.394
 20
68.1937
 30
0.0
 11
181.795
 21
68.1937
 31
0.0
  0
LINE
  8
0
 62
     0
 10
181.795
 20
68.1937
 30
0.0
 11
181.795
 21
80.9928
 31
0.0
  0
LINE
  8
0
 62
     0
 10
200.795
 20
80.9928
 30
0.0
 11
216.395
 21
80.9928
 31
0.0
  0
LINE
  8
0
 62
     0
 10
216.395
 20
80.9928
 30
0.0
 11
216.395
 21
68.1937
 31
0.0
  0
LINE
  8
0
 62
     0
 10
216.395
 20
68.1937
 30
0.0
 11
200.795
 21
68.1937
 31
0.0
  0
LINE
  8
0
 62
     0
 10
200.795
 20
68.1937
 30
0.0
 11
200.795
 21
80.9928
 31
0.0
  0
LINE
  8
0
 62
     0
 10
219.794
 20
80.9928
 30
0.0
 11
235.395
 21
80.9928
 31
0.0
  0
LINE
  8
0
 62
     0
 10
235.395
 20
80.9928
 30
0.0
 11
235.395
 21
68.1937
 31
0.0
  0
LINE
  8
0
 62
     0
 10
235.395
 20
68.1937
 30
0.0
 11
219.794
 21
68.1937
 31
0.0
  0
LINE
  8
0
 62
     0
 10
219.794
 20
68.1937
 30
0.0
 11
219.794
 21
80.9928
 31
0.0
  0
LINE
  8
0
 62
     0
 10
83.119
 20
89.0446
 30
0.0
 11
82.8393
 21
88.9042
 31
0.0
  0
LINE
  8
0
 62
     0
 10
82.8393
 20
88.9042
 30
0.0
 11
82.6188
 21
88.6809
 31
0.0
  0
LINE
  8
0
 62
     0
 10
82.6188
 20
88.6809
 30
0.0
 11
82.477
 21
88.404
 31
0.0
  0
LINE
  8
0
 62
     0
 10
82.477
 20
88.404
 30
0.0
 11
82.4272
 21
88.0939
 31
0.0
  0
LINE
  8
0
 62
     0
 10
82.4272
 20
88.0939
 30
0.0
 11
82.477
 21
87.7838
 31
0.0
  0
LINE
  8
0
 62
     0
 10
82.477
 20
87.7838
 30
0.0
 11
82.6188
 21
87.5069
 31
0.0
  0
LINE
  8
0
 62
     0
 10
82.6188
 20
87.5069
 30
0.0
 11
82.8393
 21
87.2836
 31
0.0
  0
LINE
  8
0
 62
     0
 10
82.8393
 20
87.2836
 30
0.0
 11
83.119
 21
87.1418
 31
0.0
  0
LINE
  8
0
 62
     0
 10
83.119
 20
87.1418
 30
0.0
 11
83.4277
 21
87.0934
 31
0.0
  0
LINE
  8
0
 62
     0
 10
83.4277
 20
87.0934
 30
0.0
 11
83.7364
 21
87.1418
 31
0.0
  0
LINE
  8
0
 62
     0
 10
83.7364
 20
87.1418
 30
0.0
 11
84.0161
 21
87.2836
 31
0.0
  0
LINE
  8
0
 62
     0
 10
84.0161
 20
87.2836
 30
0.0
 11
84.2366
 21
87.5069
 31
0.0
  0
LINE
  8
0
 62
     0
 10
84.2366
 20
87.5069
 30
0.0
 11
84.3788
 21
87.7838
 31
0.0
  0
LINE
  8
0
 62
     0
 10
84.3788
 20
87.7838
 30
0.0
 11
84.4282
 21
88.0939
 31
0.0
  0
LINE
  8
0
 62
     0
 10
84.4282
 20
88.0939
 30
0.0
 11
84.3788
 21
88.404
 31
0.0
  0
LINE
  8
0
 62
     0
 10
84.3788
 20
88.404
 30
0.0
 11
84.2366
 21
88.6809
 31
0.0
  0
LINE
  8
0
 62
     0
 10
84.2366
 20
88.6809
 30
0.0
 11
84.0161
 21
88.9042
 31
0.0
  0
LINE
  8
0
 62
     0
 10
84.0161
 20
88.9042
 30
0.0
 11
83.7364
 21
89.0446
 31
0.0
  0
LINE
  8
0
 62
     0
 10
83.7364
 20
89.0446
 30
0.0
 11
83.4277
 21
89.093
 31
0.0
  0
LINE
  8
0
 62
     0
 10
83.4277
 20
89.093
 30
0.0
 11
83.119
 21
89.0446
 31
0.0
  0
LINE
  8
0
 62
     0
 10
162.453
 20
89.0446
 30
0.0
 11
162.174
 21
88.9042
 31
0.0
  0
LINE
  8
0
 62
     0
 10
162.174
 20
88.9042
 30
0.0
 11
161.953
 21
88.6809
 31
0.0
  0
LINE
  8
0
 62
     0
 10
161.953
 20
88.6809
 30
0.0
 11
161.811
 21
88.404
 31
0.0
  0
LINE
  8
0
 62
     0
 10
161.811
 20
88.404
 30
0.0
 11
161.762
 21
88.0939
 31
0.0
  0
LINE
  8
0
 62
     0
 10
161.762
 20
88.0939
 30
0.0
 11
161.811
 21
87.7838
 31
0.0
  0
LINE
  8
0
 62
     0
 10
161.811
 20
87.7838
 30
0.0
 11
161.953
 21
87.5069
 31
0.0
  0
LINE
  8
0
 62
     0
 10
161.953
 20
87.5069
 30
0.0
 11
162.174
 21
87.2836
 31
0.0
  0
LINE
  8
0
 62
     0
 10
162.174
 20
87.2836
 30
0.0
 11
162.453
 21
87.1418
 31
0.0
  0
LINE
  8
0
 62
     0
 10
162.453
 20
87.1418
 30
0.0
 11
162.761
 21
87.0934
 31
0.0
  0
LINE
  8
0
 62
     0
 10
162.761
 20
87.0934
 30
0.0
 11
163.07
 21
87.1418
 31
0.0
  0
LINE
  8
0
 62
     0
 10
163.07
 20
87.1418
 30
0.0
 11
163.35
 21
87.2836
 31
0.0
  0
LINE
  8
0
 62
     0
 10
163.35
 20
87.2836
 30
0.0
 11
163.57
 21
87.5069
 31
0.0
  0
LINE
  8
0
 62
     0
 10
163.57
 20
87.5069
 30
0.0
 11
163.712
 21
87.7838
 31
0.0
  0
LINE
  8
0
 62
     0
 10
163.712
 20
87.7838
 30
0.0
 11
163.762
 21
88.0939
 31
0.0
  0
LINE
  8
0
 62
     0
 10
163.762
 20
88.0939
 30
0.0
 11
163.712
 21
88.404
 31
0.0
  0
LINE
  8
0
 62
     0
 10
163.712
 20
88.404
 30
0.0
 11
163.57
 21
88.6809
 31
0.0
  0
LINE
  8
0
 62
     0
 10
163.57
 20
88.6809
 30
0.0
 11
163.35
 21
88.9042
 31
0.0
  0
LINE
  8
0
 62
     0
 10
163.35
 20
88.9042
 30
0.0
 11
163.07
 21
89.0446
 31
0.0
  0
LINE
  8
0
 62
     0
 10
163.07
 20
89.0446
 30
0.0
 11
162.761
 21
89.093
 31
0.0
  0
LINE
  8
0
 62
     0
 10
162.761
 20
89.093
 30
0.0
 11
162.453
 21
89.0446
 31
0.0
  0
LINE
  8
0
 62
     0
 10
241.785
 20
89.0446
 30
0.0
 11
241.508
 21
88.9042
 31
0.0
  0
LINE
  8
0
 62
     0
 10
241.508
 20
88.9042
 30
0.0
 11
241.286
 21
88.6809
 31
0.0
  0
LINE
  8
0
 62
     0
 10
241.286
 20
88.6809
 30
0.0
 11
241.144
 21
88.404
 31
0.0
  0
LINE
  8
0
 62
     0
 10
241.144
 20
88.404
 30
0.0
 11
241.096
 21
88.0939
 31
0.0
  0
LINE
  8
0
 62
     0
 10
241.096
 20
88.0939
 30
0.0
 11
241.144
 21
87.7838
 31
0.0
  0
LINE
  8
0
 62
     0
 10
241.144
 20
87.7838
 30
0.0
 11
241.286
 21
87.5069
 31
0.0
  0
LINE
  8
0
 62
     0
 10
241.286
 20
87.5069
 30
0.0
 11
241.508
 21
87.2836
 31
0.0
  0
LINE
  8
0
 62
     0
 10
241.508
 20
87.2836
 30
0.0
 11
241.785
 21
87.1418
 31
0.0
  0
LINE
  8
0
 62
     0
 10
241.785
 20
87.1418
 30
0.0
 11
242.095
 21
87.0934
 31
0.0
  0
LINE
  8
0
 62
     0
 10
242.095
 20
87.0934
 30
0.0
 11
242.405
 21
87.1418
 31
0.0
  0
LINE
  8
0
 62
     0
 10
242.405
 20
87.1418
 30
0.0
 11
242.682
 21
87.2836
 31
0.0
  0
LINE
  8
0
 62
     0
 10
242.682
 20
87.2836
 30
0.0
 11
242.906
 21
87.5069
 31
0.0
  0
LINE
  8
0
 62
     0
 10
242.906
 20
87.5069
 30
0.0
 11
243.047
 21
87.7838
 31
0.0
  0
LINE
  8
0
 62
     0
 10
243.047
 20
87.7838
 30
0.0
 11
243.096
 21
88.0939
 31
0.0
  0
LINE
  8
0
 62
     0
 10
243.096
 20
88.0939
 30
0.0
 11
243.047
 21
88.404
 31
0.0
  0
LINE
  8
0
 62
     0
 10
243.047
 20
88.404
 30
0.0
 11
242.906
 21
88.6809
 31
0.0
  0
LINE
  8
0
 62
     0
 10
242.906
 20
88.6809
 30
0.0
 11
242.682
 21
88.9042
 31
0.0
  0
LINE
  8
0
 62
     0
 10
242.682
 20
88.9042
 30
0.0
 11
242.405
 21
89.0446
 31
0.0
  0
LINE
  8
0
 62
     0
 10
242.405
 20
89.0446
 30
0.0
 11
242.095
 21
89.093
 31
0.0
  0
LINE
  8
0
 62
     0
 10
242.095
 20
89.093
 30
0.0
 11
241.785
 21
89.0446
 31
0.0
  0
LINE
  8
0
 62
     0
 10
3.78411
 20
89.0446
 30
0.0
 11
3.50711
 21
88.9042
 31
0.0
  0
LINE
  8
0
 62
     0
 10
3.50711
 20
88.9042
 30
0.0
 11
3.28386
 21
88.6809
 31
0.0
  0
LINE
  8
0
 62
     0
 10
3.28386
 20
88.6809
 30
0.0
 11
3.14331
 21
88.404
 31
0.0
  0
LINE
  8
0
 62
     0
 10
3.14331
 20
88.404
 30
0.0
 11
3.09507
 21
88.0939
 31
0.0
  0
LINE
  8
0
 62
     0
 10
3.09507
 20
88.0939
 30
0.0
 11
3.14331
 21
87.7838
 31
0.0
  0
LINE
  8
0
 62
     0
 10
3.14331
 20
87.7838
 30
0.0
 11
3.28386
 21
87.5069
 31
0.0
  0
LINE
  8
0
 62
     0
 10
3.28386
 20
87.5069
 30
0.0
 11
3.50711
 21
87.2836
 31
0.0
  0
LINE
  8
0
 62
     0
 10
3.50711
 20
87.2836
 30
0.0
 11
3.78411
 21
87.1418
 31
0.0
  0
LINE
  8
0
 62
     0
 10
3.78411
 20
87.1418
 30
0.0
 11
4.09416
 21
87.0934
 31
0.0
  0
LINE
  8
0
 62
     0
 10
4.09416
 20
87.0934
 30
0.0
 11
4.40422
 21
87.1418
 31
0.0
  0
LINE
  8
0
 62
     0
 10
4.40422
 20
87.1418
 30
0.0
 11
4.68118
 21
87.2836
 31
0.0
  0
LINE
  8
0
 62
     0
 10
4.68118
 20
87.2836
 30
0.0
 11
4.90442
 21
87.5069
 31
0.0
  0
LINE
  8
0
 62
     0
 10
4.90442
 20
87.5069
 30
0.0
 11
5.04638
 21
87.7838
 31
0.0
  0
LINE
  8
0
 62
     0
 10
5.04638
 20
87.7838
 30
0.0
 11
5.0946
 21
88.0939
 31
0.0
  0
LINE
  8
0
 62
     0
 10
5.0946
 20
88.0939
 30
0.0
 11
5.04638
 21
88.404
 31
0.0
  0
LINE
  8
0
 62
     0
 10
5.04638
 20
88.404
 30
0.0
 11
4.90442
 21
88.6809
 31
0.0
  0
LINE
  8
0
 62
     0
 10
4.90442
 20
88.6809
 30
0.0
 11
4.68118
 21
88.9042
 31
0.0
  0
LINE
  8
0
 62
     0
 10
4.68118
 20
88.9042
 30
0.0
 11
4.40422
 21
89.0446
 31
0.0
  0
LINE
  8
0
 62
     0
 10
4.40422
 20
89.0446
 30
0.0
 11
4.09416
 21
89.093
 31
0.0
  0
LINE
  8
0
 62
     0
 10
4.09416
 20
89.093
 30
0.0
 11
3.78411
 21
89.0446
 31
0.0
  0
ENDSEC
  0
EOF
