  0
SECTION
  2
HEADER
  9
$ACADVER
  1
AC1009
  9
$EXTMIN
 10
0.0
 20
0.0
 30
0.0
  9
$EXTMAX
 10
1000.0
 20
1000.0
 30
0.0
  9
$FILLMODE
 70
 0
  9
$SPLFRAME
 70
 1
  0
ENDSEC
  0
SECTION
  2
TABLES
  0
TABLE
  2
LAYER
 70
1
  0
LAYER
  2
0
 70
     0
 62
     7
  6
CONTINUOUS
  0
ENDTAB
  0
ENDSEC
  0
SECTION
  2
ENTITIES
  0
LINE
  8
0
 62
     0
 10
242.696
 20
92.2803
 30
0.0
 11
243.009
 21
92.2694
 31
0.0
  0
LINE
  8
0
 62
     0
 10
243.009
 20
92.2694
 30
0.0
 11
243.32
 21
92.232
 31
0.0
  0
LINE
  8
0
 62
     0
 10
243.32
 20
92.232
 30
0.0
 11
243.629
 21
92.1702
 31
0.0
  0
LINE
  8
0
 62
     0
 10
243.629
 20
92.1702
 30
0.0
 11
243.932
 21
92.0859
 31
0.0
  0
LINE
  8
0
 62
     0
 10
243.932
 20
92.0859
 30
0.0
 11
244.226
 21
91.9773
 31
0.0
  0
LINE
  8
0
 62
     0
 10
244.226
 20
91.9773
 30
0.0
 11
244.511
 21
91.8464
 31
0.0
  0
LINE
  8
0
 62
     0
 10
244.511
 20
91.8464
 30
0.0
 11
244.785
 21
91.6919
 31
0.0
  0
LINE
  8
0
 62
     0
 10
244.785
 20
91.6919
 30
0.0
 11
245.047
 21
91.5183
 31
0.0
  0
LINE
  8
0
 62
     0
 10
245.047
 20
91.5183
 30
0.0
 11
245.292
 21
91.3225
 31
0.0
  0
LINE
  8
0
 62
     0
 10
245.292
 20
91.3225
 30
0.0
 11
245.524
 21
91.1091
 31
0.0
  0
LINE
  8
0
 62
     0
 10
245.524
 20
91.1091
 30
0.0
 11
245.737
 21
90.8787
 31
0.0
  0
LINE
  8
0
 62
     0
 10
245.737
 20
90.8787
 30
0.0
 11
245.932
 21
90.6321
 31
0.0
  0
LINE
  8
0
 62
     0
 10
245.932
 20
90.6321
 30
0.0
 11
246.105
 21
90.3704
 31
0.0
  0
LINE
  8
0
 62
     0
 10
246.105
 20
90.3704
 30
0.0
 11
246.26
 21
90.0963
 31
0.0
  0
LINE
  8
0
 62
     0
 10
246.26
 20
90.0963
 30
0.0
 11
246.391
 21
89.8123
 31
0.0
  0
LINE
  8
0
 62
     0
 10
246.391
 20
89.8123
 30
0.0
 11
246.499
 21
89.5174
 31
0.0
  0
LINE
  8
0
 62
     0
 10
246.499
 20
89.5174
 30
0.0
 11
246.585
 21
89.2143
 31
0.0
  0
LINE
  8
0
 62
     0
 10
246.585
 20
89.2143
 30
0.0
 11
246.645
 21
88.9071
 31
0.0
  0
LINE
  8
0
 62
     0
 10
246.645
 20
88.9071
 30
0.0
 11
246.683
 21
88.5941
 31
0.0
  0
LINE
  8
0
 62
     0
 10
246.683
 20
88.5941
 30
0.0
 11
246.695
 21
88.2812
 31
0.0
  0
LINE
  8
0
 62
     0
 10
246.695
 20
88.2812
 30
0.0
 11
246.696
 21
4.07899
 31
0.0
  0
LINE
  8
0
 62
     0
 10
246.696
 20
4.07899
 30
0.0
 11
246.683
 21
3.76619
 31
0.0
  0
LINE
  8
0
 62
     0
 10
246.683
 20
3.76619
 30
0.0
 11
246.645
 21
3.45474
 31
0.0
  0
LINE
  8
0
 62
     0
 10
246.645
 20
3.45474
 30
0.0
 11
246.585
 21
3.14606
 31
0.0
  0
LINE
  8
0
 62
     0
 10
246.585
 20
3.14606
 30
0.0
 11
246.499
 21
2.84427
 31
0.0
  0
LINE
  8
0
 62
     0
 10
246.499
 20
2.84427
 30
0.0
 11
246.391
 21
2.54937
 31
0.0
  0
LINE
  8
0
 62
     0
 10
246.391
 20
2.54937
 30
0.0
 11
246.26
 21
2.26412
 31
0.0
  0
LINE
  8
0
 62
     0
 10
246.26
 20
2.26412
 30
0.0
 11
246.105
 21
1.99126
 31
0.0
  0
LINE
  8
0
 62
     0
 10
246.105
 20
1.99126
 30
0.0
 11
245.932
 21
1.72806
 31
0.0
  0
LINE
  8
0
 62
     0
 10
245.932
 20
1.72806
 30
0.0
 11
245.737
 21
1.48277
 31
0.0
  0
LINE
  8
0
 62
     0
 10
245.737
 20
1.48277
 30
0.0
 11
245.524
 21
1.25126
 31
0.0
  0
LINE
  8
0
 62
     0
 10
245.524
 20
1.25126
 30
0.0
 11
245.292
 21
1.03904
 31
0.0
  0
LINE
  8
0
 62
     0
 10
245.292
 20
1.03904
 30
0.0
 11
245.047
 21
0.843361
 31
0.0
  0
LINE
  8
0
 62
     0
 10
245.047
 20
0.843361
 30
0.0
 11
244.785
 21
0.669727
 31
0.0
  0
LINE
  8
0
 62
     0
 10
244.785
 20
0.669727
 30
0.0
 11
244.511
 21
0.515387
 31
0.0
  0
LINE
  8
0
 62
     0
 10
244.511
 20
0.515387
 30
0.0
 11
244.226
 21
0.384471
 31
0.0
  0
LINE
  8
0
 62
     0
 10
244.226
 20
0.384471
 30
0.0
 11
243.932
 21
0.275608
 31
0.0
  0
LINE
  8
0
 62
     0
 10
243.932
 20
0.275608
 30
0.0
 11
243.629
 21
0.190169
 31
0.0
  0
LINE
  8
0
 62
     0
 10
243.629
 20
0.190169
 30
0.0
 11
243.32
 21
0.129536
 31
0.0
  0
LINE
  8
0
 62
     0
 10
243.32
 20
0.129536
 30
0.0
 11
243.009
 21
0.0923286
 31
0.0
  0
LINE
  8
0
 62
     0
 10
243.009
 20
0.0923286
 30
0.0
 11
242.696
 21
0.0799264
 31
0.0
  0
LINE
  8
0
 62
     0
 10
242.696
 20
0.0799264
 30
0.0
 11
4.09416
 21
0.0799264
 31
0.0
  0
LINE
  8
0
 62
     0
 10
4.09416
 20
0.0799264
 30
0.0
 11
3.78135
 21
0.0923286
 31
0.0
  0
LINE
  8
0
 62
     0
 10
3.78135
 20
0.0923286
 30
0.0
 11
3.46852
 21
0.129536
 31
0.0
  0
LINE
  8
0
 62
     0
 10
3.46852
 20
0.129536
 30
0.0
 11
3.16122
 21
0.190169
 31
0.0
  0
LINE
  8
0
 62
     0
 10
3.16122
 20
0.190169
 30
0.0
 11
2.85805
 21
0.275608
 31
0.0
  0
LINE
  8
0
 62
     0
 10
2.85805
 20
0.275608
 30
0.0
 11
2.56315
 21
0.384471
 31
0.0
  0
LINE
  8
0
 62
     0
 10
2.56315
 20
0.384471
 30
0.0
 11
2.27928
 21
0.515387
 31
0.0
  0
LINE
  8
0
 62
     0
 10
2.27928
 20
0.515387
 30
0.0
 11
2.00504
 21
0.669727
 31
0.0
  0
LINE
  8
0
 62
     0
 10
2.00504
 20
0.669727
 30
0.0
 11
1.74322
 21
0.843361
 31
0.0
  0
LINE
  8
0
 62
     0
 10
1.74322
 20
0.843361
 30
0.0
 11
1.49655
 21
1.03904
 31
0.0
  0
LINE
  8
0
 62
     0
 10
1.49655
 20
1.03904
 30
0.0
 11
1.26642
 21
1.25126
 31
0.0
  0
LINE
  8
0
 62
     0
 10
1.26642
 20
1.25126
 30
0.0
 11
1.05282
 21
1.48277
 31
0.0
  0
LINE
  8
0
 62
     0
 10
1.05282
 20
1.48277
 30
0.0
 11
0.857141
 21
1.72806
 31
0.0
  0
LINE
  8
0
 62
     0
 10
0.857141
 20
1.72806
 30
0.0
 11
0.683507
 21
1.99126
 31
0.0
  0
LINE
  8
0
 62
     0
 10
0.683507
 20
1.99126
 30
0.0
 11
0.529167
 21
2.26412
 31
0.0
  0
LINE
  8
0
 62
     0
 10
0.529167
 20
2.26412
 30
0.0
 11
0.398254
 21
2.54937
 31
0.0
  0
LINE
  8
0
 62
     0
 10
0.398254
 20
2.54937
 30
0.0
 11
0.289388
 21
2.84427
 31
0.0
  0
LINE
  8
0
 62
     0
 10
0.289388
 20
2.84427
 30
0.0
 11
0.205328
 21
3.14606
 31
0.0
  0
LINE
  8
0
 62
     0
 10
0.205328
 20
3.14606
 30
0.0
 11
0.143316
 21
3.45474
 31
0.0
  0
LINE
  8
0
 62
     0
 10
0.143316
 20
3.45474
 30
0.0
 11
0.106109
 21
3.76619
 31
0.0
  0
LINE
  8
0
 62
     0
 10
0.106109
 20
3.76619
 30
0.0
 11
0.0937066
 21
4.08037
 31
0.0
  0
LINE
  8
0
 62
     0
 10
0.0937066
 20
4.08037
 30
0.0
 11
0.0950846
 21
88.2812
 31
0.0
  0
LINE
  8
0
 62
     0
 10
0.0950846
 20
88.2812
 30
0.0
 11
0.106109
 21
88.5941
 31
0.0
  0
LINE
  8
0
 62
     0
 10
0.106109
 20
88.5941
 30
0.0
 11
0.143316
 21
88.9071
 31
0.0
  0
LINE
  8
0
 62
     0
 10
0.143316
 20
88.9071
 30
0.0
 11
0.205328
 21
89.2143
 31
0.0
  0
LINE
  8
0
 62
     0
 10
0.205328
 20
89.2143
 30
0.0
 11
0.289388
 21
89.5174
 31
0.0
  0
LINE
  8
0
 62
     0
 10
0.289388
 20
89.5174
 30
0.0
 11
0.398254
 21
89.8123
 31
0.0
  0
LINE
  8
0
 62
     0
 10
0.398254
 20
89.8123
 30
0.0
 11
0.529167
 21
90.0963
 31
0.0
  0
LINE
  8
0
 62
     0
 10
0.529167
 20
90.0963
 30
0.0
 11
0.683507
 21
90.3704
 31
0.0
  0
LINE
  8
0
 62
     0
 10
0.683507
 20
90.3704
 30
0.0
 11
0.857141
 21
90.6321
 31
0.0
  0
LINE
  8
0
 62
     0
 10
0.857141
 20
90.6321
 30
0.0
 11
1.05282
 21
90.8787
 31
0.0
  0
LINE
  8
0
 62
     0
 10
1.05282
 20
90.8787
 30
0.0
 11
1.26642
 21
91.1091
 31
0.0
  0
LINE
  8
0
 62
     0
 10
1.26642
 20
91.1091
 30
0.0
 11
1.49655
 21
91.3225
 31
0.0
  0
LINE
  8
0
 62
     0
 10
1.49655
 20
91.3225
 30
0.0
 11
1.74322
 21
91.5183
 31
0.0
  0
LINE
  8
0
 62
     0
 10
1.74322
 20
91.5183
 30
0.0
 11
2.00504
 21
91.6919
 31
0.0
  0
LINE
  8
0
 62
     0
 10
2.00504
 20
91.6919
 30
0.0
 11
2.27928
 21
91.8464
 31
0.0
  0
LINE
  8
0
 62
     0
 10
2.27928
 20
91.8464
 30
0.0
 11
2.56315
 21
91.9773
 31
0.0
  0
LINE
  8
0
 62
     0
 10
2.56315
 20
91.9773
 30
0.0
 11
2.85805
 21
92.0859
 31
0.0
  0
LINE
  8
0
 62
     0
 10
2.85805
 20
92.0859
 30
0.0
 11
3.16122
 21
92.1702
 31
0.0
  0
LINE
  8
0
 62
     0
 10
3.16122
 20
92.1702
 30
0.0
 11
3.46852
 21
92.232
 31
0.0
  0
LINE
  8
0
 62
     0
 10
3.46852
 20
92.232
 30
0.0
 11
3.78135
 21
92.2694
 31
0.0
  0
LINE
  8
0
 62
     0
 10
3.78135
 20
92.2694
 30
0.0
 11
4.09416
 21
92.2817
 31
0.0
  0
LINE
  8
0
 62
     0
 10
4.09416
 20
92.2817
 30
0.0
 11
242.696
 21
92.2803
 31
0.0
  0
LINE
  8
0
 62
     0
 10
242.386
 20
5.03121
 30
0.0
 11
242.108
 21
4.88929
 31
0.0
  0
LINE
  8
0
 62
     0
 10
242.108
 20
4.88929
 30
0.0
 11
241.886
 21
4.66743
 31
0.0
  0
LINE
  8
0
 62
     0
 10
241.886
 20
4.66743
 30
0.0
 11
241.744
 21
4.38905
 31
0.0
  0
LINE
  8
0
 62
     0
 10
241.744
 20
4.38905
 30
0.0
 11
241.695
 21
4.07899
 31
0.0
  0
LINE
  8
0
 62
     0
 10
241.695
 20
4.07899
 30
0.0
 11
241.744
 21
3.77031
 31
0.0
  0
LINE
  8
0
 62
     0
 10
241.744
 20
3.77031
 30
0.0
 11
241.886
 21
3.49333
 31
0.0
  0
LINE
  8
0
 62
     0
 10
241.886
 20
3.49333
 30
0.0
 11
242.108
 21
3.27008
 31
0.0
  0
LINE
  8
0
 62
     0
 10
242.108
 20
3.27008
 30
0.0
 11
242.386
 21
3.12815
 31
0.0
  0
LINE
  8
0
 62
     0
 10
242.386
 20
3.12815
 30
0.0
 11
242.696
 21
3.07992
 31
0.0
  0
LINE
  8
0
 62
     0
 10
242.696
 20
3.07992
 30
0.0
 11
243.005
 21
3.12815
 31
0.0
  0
LINE
  8
0
 62
     0
 10
243.005
 20
3.12815
 30
0.0
 11
243.283
 21
3.27008
 31
0.0
  0
LINE
  8
0
 62
     0
 10
243.283
 20
3.27008
 30
0.0
 11
243.505
 21
3.49333
 31
0.0
  0
LINE
  8
0
 62
     0
 10
243.505
 20
3.49333
 30
0.0
 11
243.647
 21
3.77031
 31
0.0
  0
LINE
  8
0
 62
     0
 10
243.647
 20
3.77031
 30
0.0
 11
243.696
 21
4.07899
 31
0.0
  0
LINE
  8
0
 62
     0
 10
243.696
 20
4.07899
 30
0.0
 11
243.647
 21
4.38905
 31
0.0
  0
LINE
  8
0
 62
     0
 10
243.647
 20
4.38905
 30
0.0
 11
243.505
 21
4.66743
 31
0.0
  0
LINE
  8
0
 62
     0
 10
243.505
 20
4.66743
 30
0.0
 11
243.283
 21
4.88929
 31
0.0
  0
LINE
  8
0
 62
     0
 10
243.283
 20
4.88929
 30
0.0
 11
243.005
 21
5.03121
 31
0.0
  0
LINE
  8
0
 62
     0
 10
243.005
 20
5.03121
 30
0.0
 11
242.696
 21
5.07944
 31
0.0
  0
LINE
  8
0
 62
     0
 10
242.696
 20
5.07944
 30
0.0
 11
242.386
 21
5.03121
 31
0.0
  0
LINE
  8
0
 62
     0
 10
162.852
 20
5.03121
 30
0.0
 11
162.574
 21
4.88929
 31
0.0
  0
LINE
  8
0
 62
     0
 10
162.574
 20
4.88929
 30
0.0
 11
162.352
 21
4.66743
 31
0.0
  0
LINE
  8
0
 62
     0
 10
162.352
 20
4.66743
 30
0.0
 11
162.21
 21
4.38905
 31
0.0
  0
LINE
  8
0
 62
     0
 10
162.21
 20
4.38905
 30
0.0
 11
162.162
 21
4.07899
 31
0.0
  0
LINE
  8
0
 62
     0
 10
162.162
 20
4.07899
 30
0.0
 11
162.21
 21
3.77031
 31
0.0
  0
LINE
  8
0
 62
     0
 10
162.21
 20
3.77031
 30
0.0
 11
162.352
 21
3.49333
 31
0.0
  0
LINE
  8
0
 62
     0
 10
162.352
 20
3.49333
 30
0.0
 11
162.574
 21
3.27008
 31
0.0
  0
LINE
  8
0
 62
     0
 10
162.574
 20
3.27008
 30
0.0
 11
162.852
 21
3.12815
 31
0.0
  0
LINE
  8
0
 62
     0
 10
162.852
 20
3.12815
 30
0.0
 11
163.161
 21
3.07992
 31
0.0
  0
LINE
  8
0
 62
     0
 10
163.161
 20
3.07992
 30
0.0
 11
163.471
 21
3.12815
 31
0.0
  0
LINE
  8
0
 62
     0
 10
163.471
 20
3.12815
 30
0.0
 11
163.75
 21
3.27008
 31
0.0
  0
LINE
  8
0
 62
     0
 10
163.75
 20
3.27008
 30
0.0
 11
163.971
 21
3.49333
 31
0.0
  0
LINE
  8
0
 62
     0
 10
163.971
 20
3.49333
 30
0.0
 11
164.113
 21
3.77031
 31
0.0
  0
LINE
  8
0
 62
     0
 10
164.113
 20
3.77031
 30
0.0
 11
164.162
 21
4.07899
 31
0.0
  0
LINE
  8
0
 62
     0
 10
164.162
 20
4.07899
 30
0.0
 11
164.113
 21
4.38905
 31
0.0
  0
LINE
  8
0
 62
     0
 10
164.113
 20
4.38905
 30
0.0
 11
163.971
 21
4.66743
 31
0.0
  0
LINE
  8
0
 62
     0
 10
163.971
 20
4.66743
 30
0.0
 11
163.75
 21
4.88929
 31
0.0
  0
LINE
  8
0
 62
     0
 10
163.75
 20
4.88929
 30
0.0
 11
163.471
 21
5.03121
 31
0.0
  0
LINE
  8
0
 62
     0
 10
163.471
 20
5.03121
 30
0.0
 11
163.161
 21
5.07944
 31
0.0
  0
LINE
  8
0
 62
     0
 10
163.161
 20
5.07944
 30
0.0
 11
162.852
 21
5.03121
 31
0.0
  0
LINE
  8
0
 62
     0
 10
83.3191
 20
5.03121
 30
0.0
 11
83.0393
 21
4.88929
 31
0.0
  0
LINE
  8
0
 62
     0
 10
83.0393
 20
4.88929
 30
0.0
 11
82.8188
 21
4.66743
 31
0.0
  0
LINE
  8
0
 62
     0
 10
82.8188
 20
4.66743
 30
0.0
 11
82.6766
 21
4.38905
 31
0.0
  0
LINE
  8
0
 62
     0
 10
82.6766
 20
4.38905
 30
0.0
 11
82.6273
 21
4.07899
 31
0.0
  0
LINE
  8
0
 62
     0
 10
82.6273
 20
4.07899
 30
0.0
 11
82.6766
 21
3.77031
 31
0.0
  0
LINE
  8
0
 62
     0
 10
82.6766
 20
3.77031
 30
0.0
 11
82.8188
 21
3.49333
 31
0.0
  0
LINE
  8
0
 62
     0
 10
82.8188
 20
3.49333
 30
0.0
 11
83.0393
 21
3.27008
 31
0.0
  0
LINE
  8
0
 62
     0
 10
83.0393
 20
3.27008
 30
0.0
 11
83.3191
 21
3.12815
 31
0.0
  0
LINE
  8
0
 62
     0
 10
83.3191
 20
3.12815
 30
0.0
 11
83.6277
 21
3.07992
 31
0.0
  0
LINE
  8
0
 62
     0
 10
83.6277
 20
3.07992
 30
0.0
 11
83.9364
 21
3.12815
 31
0.0
  0
LINE
  8
0
 62
     0
 10
83.9364
 20
3.12815
 30
0.0
 11
84.2162
 21
3.27008
 31
0.0
  0
LINE
  8
0
 62
     0
 10
84.2162
 20
3.27008
 30
0.0
 11
84.4367
 21
3.49333
 31
0.0
  0
LINE
  8
0
 62
     0
 10
84.4367
 20
3.49333
 30
0.0
 11
84.5785
 21
3.77031
 31
0.0
  0
LINE
  8
0
 62
     0
 10
84.5785
 20
3.77031
 30
0.0
 11
84.6282
 21
4.07899
 31
0.0
  0
LINE
  8
0
 62
     0
 10
84.6282
 20
4.07899
 30
0.0
 11
84.5785
 21
4.38905
 31
0.0
  0
LINE
  8
0
 62
     0
 10
84.5785
 20
4.38905
 30
0.0
 11
84.4367
 21
4.66743
 31
0.0
  0
LINE
  8
0
 62
     0
 10
84.4367
 20
4.66743
 30
0.0
 11
84.2162
 21
4.88929
 31
0.0
  0
LINE
  8
0
 62
     0
 10
84.2162
 20
4.88929
 30
0.0
 11
83.9364
 21
5.03121
 31
0.0
  0
LINE
  8
0
 62
     0
 10
83.9364
 20
5.03121
 30
0.0
 11
83.6277
 21
5.07944
 31
0.0
  0
LINE
  8
0
 62
     0
 10
83.6277
 20
5.07944
 30
0.0
 11
83.3191
 21
5.03121
 31
0.0
  0
LINE
  8
0
 62
     0
 10
3.78411
 20
5.03121
 30
0.0
 11
3.50711
 21
4.88929
 31
0.0
  0
LINE
  8
0
 62
     0
 10
3.50711
 20
4.88929
 30
0.0
 11
3.28386
 21
4.66743
 31
0.0
  0
LINE
  8
0
 62
     0
 10
3.28386
 20
4.66743
 30
0.0
 11
3.14331
 21
4.38905
 31
0.0
  0
LINE
  8
0
 62
     0
 10
3.14331
 20
4.38905
 30
0.0
 11
3.0937
 21
4.07899
 31
0.0
  0
LINE
  8
0
 62
     0
 10
3.0937
 20
4.07899
 30
0.0
 11
3.14331
 21
3.77031
 31
0.0
  0
LINE
  8
0
 62
     0
 10
3.14331
 20
3.77031
 30
0.0
 11
3.28386
 21
3.49333
 31
0.0
  0
LINE
  8
0
 62
     0
 10
3.28386
 20
3.49333
 30
0.0
 11
3.50711
 21
3.27008
 31
0.0
  0
LINE
  8
0
 62
     0
 10
3.50711
 20
3.27008
 30
0.0
 11
3.78411
 21
3.12815
 31
0.0
  0
LINE
  8
0
 62
     0
 10
3.78411
 20
3.12815
 30
0.0
 11
4.09416
 21
3.07992
 31
0.0
  0
LINE
  8
0
 62
     0
 10
4.09416
 20
3.07992
 30
0.0
 11
4.40422
 21
3.12815
 31
0.0
  0
LINE
  8
0
 62
     0
 10
4.40422
 20
3.12815
 30
0.0
 11
4.68118
 21
3.27008
 31
0.0
  0
LINE
  8
0
 62
     0
 10
4.68118
 20
3.27008
 30
0.0
 11
4.90442
 21
3.49333
 31
0.0
  0
LINE
  8
0
 62
     0
 10
4.90442
 20
3.49333
 30
0.0
 11
5.04638
 21
3.77031
 31
0.0
  0
LINE
  8
0
 62
     0
 10
5.04638
 20
3.77031
 30
0.0
 11
5.09323
 21
4.07899
 31
0.0
  0
LINE
  8
0
 62
     0
 10
5.09323
 20
4.07899
 30
0.0
 11
5.04638
 21
4.38905
 31
0.0
  0
LINE
  8
0
 62
     0
 10
5.04638
 20
4.38905
 30
0.0
 11
4.90442
 21
4.66743
 31
0.0
  0
LINE
  8
0
 62
     0
 10
4.90442
 20
4.66743
 30
0.0
 11
4.68118
 21
4.88929
 31
0.0
  0
LINE
  8
0
 62
     0
 10
4.68118
 20
4.88929
 30
0.0
 11
4.40422
 21
5.03121
 31
0.0
  0
LINE
  8
0
 62
     0
 10
4.40422
 20
5.03121
 30
0.0
 11
4.09416
 21
5.07944
 31
0.0
  0
LINE
  8
0
 62
     0
 10
4.09416
 20
5.07944
 30
0.0
 11
3.78411
 21
5.03121
 31
0.0
  0
LINE
  8
0
 62
     0
 10
10.819
 20
24.0068
 30
0.0
 11
26.4197
 21
24.0068
 31
0.0
  0
LINE
  8
0
 62
     0
 10
26.4197
 20
24.0068
 30
0.0
 11
26.4197
 21
11.2062
 31
0.0
  0
LINE
  8
0
 62
     0
 10
26.4197
 20
11.2062
 30
0.0
 11
10.819
 21
11.2062
 31
0.0
  0
LINE
  8
0
 62
     0
 10
10.819
 20
11.2062
 30
0.0
 11
10.819
 21
24.0068
 31
0.0
  0
LINE
  8
0
 62
     0
 10
29.8704
 20
24.0068
 30
0.0
 11
45.4699
 21
24.0068
 31
0.0
  0
LINE
  8
0
 62
     0
 10
45.4699
 20
24.0068
 30
0.0
 11
45.4699
 21
11.2062
 31
0.0
  0
LINE
  8
0
 62
     0
 10
45.4699
 20
11.2062
 30
0.0
 11
29.8704
 21
11.2062
 31
0.0
  0
LINE
  8
0
 62
     0
 10
29.8704
 20
11.2062
 30
0.0
 11
29.8704
 21
24.0068
 31
0.0
  0
LINE
  8
0
 62
     0
 10
48.9204
 20
24.0068
 30
0.0
 11
64.5199
 21
24.0068
 31
0.0
  0
LINE
  8
0
 62
     0
 10
64.5199
 20
24.0068
 30
0.0
 11
64.5199
 21
11.2062
 31
0.0
  0
LINE
  8
0
 62
     0
 10
64.5199
 20
11.2062
 30
0.0
 11
48.9204
 21
11.2062
 31
0.0
  0
LINE
  8
0
 62
     0
 10
48.9204
 20
11.2062
 30
0.0
 11
48.9204
 21
24.0068
 31
0.0
  0
LINE
  8
0
 62
     0
 10
67.9704
 20
24.0068
 30
0.0
 11
83.5699
 21
24.0068
 31
0.0
  0
LINE
  8
0
 62
     0
 10
83.5699
 20
24.0068
 30
0.0
 11
83.5699
 21
11.2062
 31
0.0
  0
LINE
  8
0
 62
     0
 10
83.5699
 20
11.2062
 30
0.0
 11
67.9704
 21
11.2062
 31
0.0
  0
LINE
  8
0
 62
     0
 10
67.9704
 20
11.2062
 30
0.0
 11
67.9704
 21
24.0068
 31
0.0
  0
LINE
  8
0
 62
     0
 10
87.0204
 20
24.0068
 30
0.0
 11
102.618
 21
24.0068
 31
0.0
  0
LINE
  8
0
 62
     0
 10
102.618
 20
24.0068
 30
0.0
 11
102.618
 21
11.2062
 31
0.0
  0
LINE
  8
0
 62
     0
 10
102.618
 20
11.2062
 30
0.0
 11
87.0204
 21
11.2062
 31
0.0
  0
LINE
  8
0
 62
     0
 10
87.0204
 20
11.2062
 30
0.0
 11
87.0204
 21
24.0068
 31
0.0
  0
LINE
  8
0
 62
     0
 10
106.07
 20
24.0068
 30
0.0
 11
121.668
 21
24.0068
 31
0.0
  0
LINE
  8
0
 62
     0
 10
121.668
 20
24.0068
 30
0.0
 11
121.668
 21
11.2062
 31
0.0
  0
LINE
  8
0
 62
     0
 10
121.668
 20
11.2062
 30
0.0
 11
106.07
 21
11.2062
 31
0.0
  0
LINE
  8
0
 62
     0
 10
106.07
 20
11.2062
 30
0.0
 11
106.07
 21
24.0068
 31
0.0
  0
LINE
  8
0
 62
     0
 10
125.119
 20
24.0068
 30
0.0
 11
140.72
 21
24.0068
 31
0.0
  0
LINE
  8
0
 62
     0
 10
140.72
 20
24.0068
 30
0.0
 11
140.72
 21
11.2062
 31
0.0
  0
LINE
  8
0
 62
     0
 10
140.72
 20
11.2062
 30
0.0
 11
125.119
 21
11.2062
 31
0.0
  0
LINE
  8
0
 62
     0
 10
125.119
 20
11.2062
 30
0.0
 11
125.119
 21
24.0068
 31
0.0
  0
LINE
  8
0
 62
     0
 10
144.17
 20
24.0068
 30
0.0
 11
159.77
 21
24.0068
 31
0.0
  0
LINE
  8
0
 62
     0
 10
159.77
 20
24.0068
 30
0.0
 11
159.77
 21
11.2062
 31
0.0
  0
LINE
  8
0
 62
     0
 10
159.77
 20
11.2062
 30
0.0
 11
144.17
 21
11.2062
 31
0.0
  0
LINE
  8
0
 62
     0
 10
144.17
 20
11.2062
 30
0.0
 11
144.17
 21
24.0068
 31
0.0
  0
LINE
  8
0
 62
     0
 10
163.22
 20
24.0068
 30
0.0
 11
178.82
 21
24.0068
 31
0.0
  0
LINE
  8
0
 62
     0
 10
178.82
 20
24.0068
 30
0.0
 11
178.82
 21
11.2062
 31
0.0
  0
LINE
  8
0
 62
     0
 10
178.82
 20
11.2062
 30
0.0
 11
163.22
 21
11.2062
 31
0.0
  0
LINE
  8
0
 62
     0
 10
163.22
 20
11.2062
 30
0.0
 11
163.22
 21
24.0068
 31
0.0
  0
LINE
  8
0
 62
     0
 10
182.27
 20
24.0068
 30
0.0
 11
197.87
 21
24.0068
 31
0.0
  0
LINE
  8
0
 62
     0
 10
197.87
 20
24.0068
 30
0.0
 11
197.87
 21
11.2062
 31
0.0
  0
LINE
  8
0
 62
     0
 10
197.87
 20
11.2062
 30
0.0
 11
182.27
 21
11.2062
 31
0.0
  0
LINE
  8
0
 62
     0
 10
182.27
 20
11.2062
 30
0.0
 11
182.27
 21
24.0068
 31
0.0
  0
LINE
  8
0
 62
     0
 10
201.32
 20
24.0068
 30
0.0
 11
216.92
 21
24.0068
 31
0.0
  0
LINE
  8
0
 62
     0
 10
216.92
 20
24.0068
 30
0.0
 11
216.92
 21
11.2062
 31
0.0
  0
LINE
  8
0
 62
     0
 10
216.92
 20
11.2062
 30
0.0
 11
201.32
 21
11.2062
 31
0.0
  0
LINE
  8
0
 62
     0
 10
201.32
 20
11.2062
 30
0.0
 11
201.32
 21
24.0068
 31
0.0
  0
LINE
  8
0
 62
     0
 10
220.37
 20
24.0068
 30
0.0
 11
235.97
 21
24.0068
 31
0.0
  0
LINE
  8
0
 62
     0
 10
235.97
 20
24.0068
 30
0.0
 11
235.97
 21
11.2062
 31
0.0
  0
LINE
  8
0
 62
     0
 10
235.97
 20
11.2062
 30
0.0
 11
220.37
 21
11.2062
 31
0.0
  0
LINE
  8
0
 62
     0
 10
220.37
 20
11.2062
 30
0.0
 11
220.37
 21
24.0068
 31
0.0
  0
LINE
  8
0
 62
     0
 10
10.819
 20
43.0555
 30
0.0
 11
26.4197
 21
43.0555
 31
0.0
  0
LINE
  8
0
 62
     0
 10
26.4197
 20
43.0555
 30
0.0
 11
26.4197
 21
30.2562
 31
0.0
  0
LINE
  8
0
 62
     0
 10
26.4197
 20
30.2562
 30
0.0
 11
10.819
 21
30.2562
 31
0.0
  0
LINE
  8
0
 62
     0
 10
10.819
 20
30.2562
 30
0.0
 11
10.819
 21
43.0555
 31
0.0
  0
LINE
  8
0
 62
     0
 10
29.8704
 20
43.0555
 30
0.0
 11
45.4699
 21
43.0555
 31
0.0
  0
LINE
  8
0
 62
     0
 10
45.4699
 20
43.0555
 30
0.0
 11
45.4699
 21
30.2562
 31
0.0
  0
LINE
  8
0
 62
     0
 10
45.4699
 20
30.2562
 30
0.0
 11
29.8704
 21
30.2562
 31
0.0
  0
LINE
  8
0
 62
     0
 10
29.8704
 20
30.2562
 30
0.0
 11
29.8704
 21
43.0555
 31
0.0
  0
LINE
  8
0
 62
     0
 10
48.9204
 20
43.0555
 30
0.0
 11
64.5199
 21
43.0555
 31
0.0
  0
LINE
  8
0
 62
     0
 10
64.5199
 20
43.0555
 30
0.0
 11
64.5199
 21
30.2562
 31
0.0
  0
LINE
  8
0
 62
     0
 10
64.5199
 20
30.2562
 30
0.0
 11
48.9204
 21
30.2562
 31
0.0
  0
LINE
  8
0
 62
     0
 10
48.9204
 20
30.2562
 30
0.0
 11
48.9204
 21
43.0555
 31
0.0
  0
LINE
  8
0
 62
     0
 10
67.9704
 20
43.0555
 30
0.0
 11
83.5699
 21
43.0555
 31
0.0
  0
LINE
  8
0
 62
     0
 10
83.5699
 20
43.0555
 30
0.0
 11
83.5699
 21
30.2562
 31
0.0
  0
LINE
  8
0
 62
     0
 10
83.5699
 20
30.2562
 30
0.0
 11
67.9704
 21
30.2562
 31
0.0
  0
LINE
  8
0
 62
     0
 10
67.9704
 20
30.2562
 30
0.0
 11
67.9704
 21
43.0555
 31
0.0
  0
LINE
  8
0
 62
     0
 10
87.0204
 20
43.0555
 30
0.0
 11
102.618
 21
43.0555
 31
0.0
  0
LINE
  8
0
 62
     0
 10
102.618
 20
43.0555
 30
0.0
 11
102.618
 21
30.2562
 31
0.0
  0
LINE
  8
0
 62
     0
 10
102.618
 20
30.2562
 30
0.0
 11
87.0204
 21
30.2562
 31
0.0
  0
LINE
  8
0
 62
     0
 10
87.0204
 20
30.2562
 30
0.0
 11
87.0204
 21
43.0555
 31
0.0
  0
LINE
  8
0
 62
     0
 10
106.07
 20
43.0555
 30
0.0
 11
121.668
 21
43.0555
 31
0.0
  0
LINE
  8
0
 62
     0
 10
121.668
 20
43.0555
 30
0.0
 11
121.668
 21
30.2562
 31
0.0
  0
LINE
  8
0
 62
     0
 10
121.668
 20
30.2562
 30
0.0
 11
106.07
 21
30.2562
 31
0.0
  0
LINE
  8
0
 62
     0
 10
106.07
 20
30.2562
 30
0.0
 11
106.07
 21
43.0555
 31
0.0
  0
LINE
  8
0
 62
     0
 10
125.119
 20
43.0555
 30
0.0
 11
140.72
 21
43.0555
 31
0.0
  0
LINE
  8
0
 62
     0
 10
140.72
 20
43.0555
 30
0.0
 11
140.72
 21
30.2562
 31
0.0
  0
LINE
  8
0
 62
     0
 10
140.72
 20
30.2562
 30
0.0
 11
125.119
 21
30.2562
 31
0.0
  0
LINE
  8
0
 62
     0
 10
125.119
 20
30.2562
 30
0.0
 11
125.119
 21
43.0555
 31
0.0
  0
LINE
  8
0
 62
     0
 10
144.17
 20
43.0555
 30
0.0
 11
159.77
 21
43.0555
 31
0.0
  0
LINE
  8
0
 62
     0
 10
159.77
 20
43.0555
 30
0.0
 11
159.77
 21
30.2562
 31
0.0
  0
LINE
  8
0
 62
     0
 10
159.77
 20
30.2562
 30
0.0
 11
144.17
 21
30.2562
 31
0.0
  0
LINE
  8
0
 62
     0
 10
144.17
 20
30.2562
 30
0.0
 11
144.17
 21
43.0555
 31
0.0
  0
LINE
  8
0
 62
     0
 10
163.22
 20
43.0555
 30
0.0
 11
178.82
 21
43.0555
 31
0.0
  0
LINE
  8
0
 62
     0
 10
178.82
 20
43.0555
 30
0.0
 11
178.82
 21
30.2562
 31
0.0
  0
LINE
  8
0
 62
     0
 10
178.82
 20
30.2562
 30
0.0
 11
163.22
 21
30.2562
 31
0.0
  0
LINE
  8
0
 62
     0
 10
163.22
 20
30.2562
 30
0.0
 11
163.22
 21
43.0555
 31
0.0
  0
LINE
  8
0
 62
     0
 10
182.27
 20
43.0555
 30
0.0
 11
197.87
 21
43.0555
 31
0.0
  0
LINE
  8
0
 62
     0
 10
197.87
 20
43.0555
 30
0.0
 11
197.87
 21
30.2562
 31
0.0
  0
LINE
  8
0
 62
     0
 10
197.87
 20
30.2562
 30
0.0
 11
182.27
 21
30.2562
 31
0.0
  0
LINE
  8
0
 62
     0
 10
182.27
 20
30.2562
 30
0.0
 11
182.27
 21
43.0555
 31
0.0
  0
LINE
  8
0
 62
     0
 10
201.32
 20
43.0555
 30
0.0
 11
216.92
 21
43.0555
 31
0.0
  0
LINE
  8
0
 62
     0
 10
216.92
 20
43.0555
 30
0.0
 11
216.92
 21
30.2562
 31
0.0
  0
LINE
  8
0
 62
     0
 10
216.92
 20
30.2562
 30
0.0
 11
201.32
 21
30.2562
 31
0.0
  0
LINE
  8
0
 62
     0
 10
201.32
 20
30.2562
 30
0.0
 11
201.32
 21
43.0555
 31
0.0
  0
LINE
  8
0
 62
     0
 10
220.37
 20
43.0555
 30
0.0
 11
235.97
 21
43.0555
 31
0.0
  0
LINE
  8
0
 62
     0
 10
235.97
 20
43.0555
 30
0.0
 11
235.97
 21
30.2562
 31
0.0
  0
LINE
  8
0
 62
     0
 10
235.97
 20
30.2562
 30
0.0
 11
220.37
 21
30.2562
 31
0.0
  0
LINE
  8
0
 62
     0
 10
220.37
 20
30.2562
 30
0.0
 11
220.37
 21
43.0555
 31
0.0
  0
LINE
  8
0
 62
     0
 10
10.819
 20
62.1055
 30
0.0
 11
26.4197
 21
62.1055
 31
0.0
  0
LINE
  8
0
 62
     0
 10
26.4197
 20
62.1055
 30
0.0
 11
26.4197
 21
49.3063
 31
0.0
  0
LINE
  8
0
 62
     0
 10
26.4197
 20
49.3063
 30
0.0
 11
10.819
 21
49.3063
 31
0.0
  0
LINE
  8
0
 62
     0
 10
10.819
 20
49.3063
 30
0.0
 11
10.819
 21
62.1055
 31
0.0
  0
LINE
  8
0
 62
     0
 10
29.8704
 20
62.1055
 30
0.0
 11
45.4699
 21
62.1055
 31
0.0
  0
LINE
  8
0
 62
     0
 10
45.4699
 20
62.1055
 30
0.0
 11
45.4699
 21
49.3063
 31
0.0
  0
LINE
  8
0
 62
     0
 10
45.4699
 20
49.3063
 30
0.0
 11
29.8704
 21
49.3063
 31
0.0
  0
LINE
  8
0
 62
     0
 10
29.8704
 20
49.3063
 30
0.0
 11
29.8704
 21
62.1055
 31
0.0
  0
LINE
  8
0
 62
     0
 10
48.9204
 20
62.1055
 30
0.0
 11
64.5199
 21
62.1055
 31
0.0
  0
LINE
  8
0
 62
     0
 10
64.5199
 20
62.1055
 30
0.0
 11
64.5199
 21
49.3063
 31
0.0
  0
LINE
  8
0
 62
     0
 10
64.5199
 20
49.3063
 30
0.0
 11
48.9204
 21
49.3063
 31
0.0
  0
LINE
  8
0
 62
     0
 10
48.9204
 20
49.3063
 30
0.0
 11
48.9204
 21
62.1055
 31
0.0
  0
LINE
  8
0
 62
     0
 10
67.9704
 20
62.1055
 30
0.0
 11
83.5699
 21
62.1055
 31
0.0
  0
LINE
  8
0
 62
     0
 10
83.5699
 20
62.1055
 30
0.0
 11
83.5699
 21
49.3063
 31
0.0
  0
LINE
  8
0
 62
     0
 10
83.5699
 20
49.3063
 30
0.0
 11
67.9704
 21
49.3063
 31
0.0
  0
LINE
  8
0
 62
     0
 10
67.9704
 20
49.3063
 30
0.0
 11
67.9704
 21
62.1055
 31
0.0
  0
LINE
  8
0
 62
     0
 10
87.0204
 20
62.1055
 30
0.0
 11
102.618
 21
62.1055
 31
0.0
  0
LINE
  8
0
 62
     0
 10
102.618
 20
62.1055
 30
0.0
 11
102.618
 21
49.3063
 31
0.0
  0
LINE
  8
0
 62
     0
 10
102.618
 20
49.3063
 30
0.0
 11
87.0204
 21
49.3063
 31
0.0
  0
LINE
  8
0
 62
     0
 10
87.0204
 20
49.3063
 30
0.0
 11
87.0204
 21
62.1055
 31
0.0
  0
LINE
  8
0
 62
     0
 10
106.07
 20
62.1055
 30
0.0
 11
121.668
 21
62.1055
 31
0.0
  0
LINE
  8
0
 62
     0
 10
121.668
 20
62.1055
 30
0.0
 11
121.668
 21
49.3063
 31
0.0
  0
LINE
  8
0
 62
     0
 10
121.668
 20
49.3063
 30
0.0
 11
106.07
 21
49.3063
 31
0.0
  0
LINE
  8
0
 62
     0
 10
106.07
 20
49.3063
 30
0.0
 11
106.07
 21
62.1055
 31
0.0
  0
LINE
  8
0
 62
     0
 10
125.119
 20
62.1055
 30
0.0
 11
140.72
 21
62.1055
 31
0.0
  0
LINE
  8
0
 62
     0
 10
140.72
 20
62.1055
 30
0.0
 11
140.72
 21
49.3063
 31
0.0
  0
LINE
  8
0
 62
     0
 10
140.72
 20
49.3063
 30
0.0
 11
125.119
 21
49.3063
 31
0.0
  0
LINE
  8
0
 62
     0
 10
125.119
 20
49.3063
 30
0.0
 11
125.119
 21
62.1055
 31
0.0
  0
LINE
  8
0
 62
     0
 10
144.17
 20
62.1055
 30
0.0
 11
159.77
 21
62.1055
 31
0.0
  0
LINE
  8
0
 62
     0
 10
159.77
 20
62.1055
 30
0.0
 11
159.77
 21
49.3063
 31
0.0
  0
LINE
  8
0
 62
     0
 10
159.77
 20
49.3063
 30
0.0
 11
144.17
 21
49.3063
 31
0.0
  0
LINE
  8
0
 62
     0
 10
144.17
 20
49.3063
 30
0.0
 11
144.17
 21
62.1055
 31
0.0
  0
LINE
  8
0
 62
     0
 10
163.22
 20
62.1055
 30
0.0
 11
178.82
 21
62.1055
 31
0.0
  0
LINE
  8
0
 62
     0
 10
178.82
 20
62.1055
 30
0.0
 11
178.82
 21
49.3063
 31
0.0
  0
LINE
  8
0
 62
     0
 10
178.82
 20
49.3063
 30
0.0
 11
163.22
 21
49.3063
 31
0.0
  0
LINE
  8
0
 62
     0
 10
163.22
 20
49.3063
 30
0.0
 11
163.22
 21
62.1055
 31
0.0
  0
LINE
  8
0
 62
     0
 10
182.27
 20
62.1055
 30
0.0
 11
197.87
 21
62.1055
 31
0.0
  0
LINE
  8
0
 62
     0
 10
197.87
 20
62.1055
 30
0.0
 11
197.87
 21
49.3063
 31
0.0
  0
LINE
  8
0
 62
     0
 10
197.87
 20
49.3063
 30
0.0
 11
182.27
 21
49.3063
 31
0.0
  0
LINE
  8
0
 62
     0
 10
182.27
 20
49.3063
 30
0.0
 11
182.27
 21
62.1055
 31
0.0
  0
LINE
  8
0
 62
     0
 10
201.32
 20
62.1055
 30
0.0
 11
216.92
 21
62.1055
 31
0.0
  0
LINE
  8
0
 62
     0
 10
216.92
 20
62.1055
 30
0.0
 11
216.92
 21
49.3063
 31
0.0
  0
LINE
  8
0
 62
     0
 10
216.92
 20
49.3063
 30
0.0
 11
201.32
 21
49.3063
 31
0.0
  0
LINE
  8
0
 62
     0
 10
201.32
 20
49.3063
 30
0.0
 11
201.32
 21
62.1055
 31
0.0
  0
LINE
  8
0
 62
     0
 10
220.37
 20
62.1055
 30
0.0
 11
235.97
 21
62.1055
 31
0.0
  0
LINE
  8
0
 62
     0
 10
235.97
 20
62.1055
 30
0.0
 11
235.97
 21
49.3063
 31
0.0
  0
LINE
  8
0
 62
     0
 10
235.97
 20
49.3063
 30
0.0
 11
220.37
 21
49.3063
 31
0.0
  0
LINE
  8
0
 62
     0
 10
220.37
 20
49.3063
 30
0.0
 11
220.37
 21
62.1055
 31
0.0
  0
LINE
  8
0
 62
     0
 10
10.819
 20
81.1555
 30
0.0
 11
26.4197
 21
81.1555
 31
0.0
  0
LINE
  8
0
 62
     0
 10
26.4197
 20
81.1555
 30
0.0
 11
26.4197
 21
68.3563
 31
0.0
  0
LINE
  8
0
 62
     0
 10
26.4197
 20
68.3563
 30
0.0
 11
10.819
 21
68.3563
 31
0.0
  0
LINE
  8
0
 62
     0
 10
10.819
 20
68.3563
 30
0.0
 11
10.819
 21
81.1555
 31
0.0
  0
LINE
  8
0
 62
     0
 10
29.8704
 20
81.1555
 30
0.0
 11
45.4699
 21
81.1555
 31
0.0
  0
LINE
  8
0
 62
     0
 10
45.4699
 20
81.1555
 30
0.0
 11
45.4699
 21
68.3563
 31
0.0
  0
LINE
  8
0
 62
     0
 10
45.4699
 20
68.3563
 30
0.0
 11
29.8704
 21
68.3563
 31
0.0
  0
LINE
  8
0
 62
     0
 10
29.8704
 20
68.3563
 30
0.0
 11
29.8704
 21
81.1555
 31
0.0
  0
LINE
  8
0
 62
     0
 10
48.9204
 20
81.1555
 30
0.0
 11
64.5199
 21
81.1555
 31
0.0
  0
LINE
  8
0
 62
     0
 10
64.5199
 20
81.1555
 30
0.0
 11
64.5199
 21
68.3563
 31
0.0
  0
LINE
  8
0
 62
     0
 10
64.5199
 20
68.3563
 30
0.0
 11
48.9204
 21
68.3563
 31
0.0
  0
LINE
  8
0
 62
     0
 10
48.9204
 20
68.3563
 30
0.0
 11
48.9204
 21
81.1555
 31
0.0
  0
LINE
  8
0
 62
     0
 10
67.9704
 20
81.1555
 30
0.0
 11
83.5699
 21
81.1555
 31
0.0
  0
LINE
  8
0
 62
     0
 10
83.5699
 20
81.1555
 30
0.0
 11
83.5699
 21
68.3563
 31
0.0
  0
LINE
  8
0
 62
     0
 10
83.5699
 20
68.3563
 30
0.0
 11
67.9704
 21
68.3563
 31
0.0
  0
LINE
  8
0
 62
     0
 10
67.9704
 20
68.3563
 30
0.0
 11
67.9704
 21
81.1555
 31
0.0
  0
LINE
  8
0
 62
     0
 10
87.0204
 20
81.1555
 30
0.0
 11
102.618
 21
81.1555
 31
0.0
  0
LINE
  8
0
 62
     0
 10
102.618
 20
81.1555
 30
0.0
 11
102.618
 21
68.3563
 31
0.0
  0
LINE
  8
0
 62
     0
 10
102.618
 20
68.3563
 30
0.0
 11
87.0204
 21
68.3563
 31
0.0
  0
LINE
  8
0
 62
     0
 10
87.0204
 20
68.3563
 30
0.0
 11
87.0204
 21
81.1555
 31
0.0
  0
LINE
  8
0
 62
     0
 10
106.07
 20
81.1555
 30
0.0
 11
121.668
 21
81.1555
 31
0.0
  0
LINE
  8
0
 62
     0
 10
121.668
 20
81.1555
 30
0.0
 11
121.668
 21
68.3563
 31
0.0
  0
LINE
  8
0
 62
     0
 10
121.668
 20
68.3563
 30
0.0
 11
106.07
 21
68.3563
 31
0.0
  0
LINE
  8
0
 62
     0
 10
106.07
 20
68.3563
 30
0.0
 11
106.07
 21
81.1555
 31
0.0
  0
LINE
  8
0
 62
     0
 10
125.119
 20
81.1555
 30
0.0
 11
140.72
 21
81.1555
 31
0.0
  0
LINE
  8
0
 62
     0
 10
140.72
 20
81.1555
 30
0.0
 11
140.72
 21
68.3563
 31
0.0
  0
LINE
  8
0
 62
     0
 10
140.72
 20
68.3563
 30
0.0
 11
125.119
 21
68.3563
 31
0.0
  0
LINE
  8
0
 62
     0
 10
125.119
 20
68.3563
 30
0.0
 11
125.119
 21
81.1555
 31
0.0
  0
LINE
  8
0
 62
     0
 10
144.17
 20
81.1555
 30
0.0
 11
159.77
 21
81.1555
 31
0.0
  0
LINE
  8
0
 62
     0
 10
159.77
 20
81.1555
 30
0.0
 11
159.77
 21
68.3563
 31
0.0
  0
LINE
  8
0
 62
     0
 10
159.77
 20
68.3563
 30
0.0
 11
144.17
 21
68.3563
 31
0.0
  0
LINE
  8
0
 62
     0
 10
144.17
 20
68.3563
 30
0.0
 11
144.17
 21
81.1555
 31
0.0
  0
LINE
  8
0
 62
     0
 10
163.22
 20
81.1555
 30
0.0
 11
178.82
 21
81.1555
 31
0.0
  0
LINE
  8
0
 62
     0
 10
178.82
 20
81.1555
 30
0.0
 11
178.82
 21
68.3563
 31
0.0
  0
LINE
  8
0
 62
     0
 10
178.82
 20
68.3563
 30
0.0
 11
163.22
 21
68.3563
 31
0.0
  0
LINE
  8
0
 62
     0
 10
163.22
 20
68.3563
 30
0.0
 11
163.22
 21
81.1555
 31
0.0
  0
LINE
  8
0
 62
     0
 10
182.27
 20
81.1555
 30
0.0
 11
197.87
 21
81.1555
 31
0.0
  0
LINE
  8
0
 62
     0
 10
197.87
 20
81.1555
 30
0.0
 11
197.87
 21
68.3563
 31
0.0
  0
LINE
  8
0
 62
     0
 10
197.87
 20
68.3563
 30
0.0
 11
182.27
 21
68.3563
 31
0.0
  0
LINE
  8
0
 62
     0
 10
182.27
 20
68.3563
 30
0.0
 11
182.27
 21
81.1555
 31
0.0
  0
LINE
  8
0
 62
     0
 10
201.32
 20
81.1555
 30
0.0
 11
216.92
 21
81.1555
 31
0.0
  0
LINE
  8
0
 62
     0
 10
216.92
 20
81.1555
 30
0.0
 11
216.92
 21
68.3563
 31
0.0
  0
LINE
  8
0
 62
     0
 10
216.92
 20
68.3563
 30
0.0
 11
201.32
 21
68.3563
 31
0.0
  0
LINE
  8
0
 62
     0
 10
201.32
 20
68.3563
 30
0.0
 11
201.32
 21
81.1555
 31
0.0
  0
LINE
  8
0
 62
     0
 10
220.37
 20
81.1555
 30
0.0
 11
235.97
 21
81.1555
 31
0.0
  0
LINE
  8
0
 62
     0
 10
235.97
 20
81.1555
 30
0.0
 11
235.97
 21
68.3563
 31
0.0
  0
LINE
  8
0
 62
     0
 10
235.97
 20
68.3563
 30
0.0
 11
220.37
 21
68.3563
 31
0.0
  0
LINE
  8
0
 62
     0
 10
220.37
 20
68.3563
 30
0.0
 11
220.37
 21
81.1555
 31
0.0
  0
LINE
  8
0
 62
     0
 10
83.3191
 20
89.232
 30
0.0
 11
83.0393
 21
89.0916
 31
0.0
  0
LINE
  8
0
 62
     0
 10
83.0393
 20
89.0916
 30
0.0
 11
82.8188
 21
88.8683
 31
0.0
  0
LINE
  8
0
 62
     0
 10
82.8188
 20
88.8683
 30
0.0
 11
82.6766
 21
88.5913
 31
0.0
  0
LINE
  8
0
 62
     0
 10
82.6766
 20
88.5913
 30
0.0
 11
82.6273
 21
88.2812
 31
0.0
  0
LINE
  8
0
 62
     0
 10
82.6273
 20
88.2812
 30
0.0
 11
82.6766
 21
87.9711
 31
0.0
  0
LINE
  8
0
 62
     0
 10
82.6766
 20
87.9711
 30
0.0
 11
82.8188
 21
87.6942
 31
0.0
  0
LINE
  8
0
 62
     0
 10
82.8188
 20
87.6942
 30
0.0
 11
83.0393
 21
87.4709
 31
0.0
  0
LINE
  8
0
 62
     0
 10
83.0393
 20
87.4709
 30
0.0
 11
83.3191
 21
87.3291
 31
0.0
  0
LINE
  8
0
 62
     0
 10
83.3191
 20
87.3291
 30
0.0
 11
83.6277
 21
87.2808
 31
0.0
  0
LINE
  8
0
 62
     0
 10
83.6277
 20
87.2808
 30
0.0
 11
83.9364
 21
87.3291
 31
0.0
  0
LINE
  8
0
 62
     0
 10
83.9364
 20
87.3291
 30
0.0
 11
84.2162
 21
87.4709
 31
0.0
  0
LINE
  8
0
 62
     0
 10
84.2162
 20
87.4709
 30
0.0
 11
84.4367
 21
87.6942
 31
0.0
  0
LINE
  8
0
 62
     0
 10
84.4367
 20
87.6942
 30
0.0
 11
84.5785
 21
87.9711
 31
0.0
  0
LINE
  8
0
 62
     0
 10
84.5785
 20
87.9711
 30
0.0
 11
84.6282
 21
88.2812
 31
0.0
  0
LINE
  8
0
 62
     0
 10
84.6282
 20
88.2812
 30
0.0
 11
84.5785
 21
88.5913
 31
0.0
  0
LINE
  8
0
 62
     0
 10
84.5785
 20
88.5913
 30
0.0
 11
84.4367
 21
88.8683
 31
0.0
  0
LINE
  8
0
 62
     0
 10
84.4367
 20
88.8683
 30
0.0
 11
84.2162
 21
89.0916
 31
0.0
  0
LINE
  8
0
 62
     0
 10
84.2162
 20
89.0916
 30
0.0
 11
83.9364
 21
89.232
 31
0.0
  0
LINE
  8
0
 62
     0
 10
83.9364
 20
89.232
 30
0.0
 11
83.6277
 21
89.2803
 31
0.0
  0
LINE
  8
0
 62
     0
 10
83.6277
 20
89.2803
 30
0.0
 11
83.3191
 21
89.232
 31
0.0
  0
LINE
  8
0
 62
     0
 10
162.852
 20
89.232
 30
0.0
 11
162.574
 21
89.0916
 31
0.0
  0
LINE
  8
0
 62
     0
 10
162.574
 20
89.0916
 30
0.0
 11
162.352
 21
88.8683
 31
0.0
  0
LINE
  8
0
 62
     0
 10
162.352
 20
88.8683
 30
0.0
 11
162.21
 21
88.5913
 31
0.0
  0
LINE
  8
0
 62
     0
 10
162.21
 20
88.5913
 30
0.0
 11
162.162
 21
88.2812
 31
0.0
  0
LINE
  8
0
 62
     0
 10
162.162
 20
88.2812
 30
0.0
 11
162.21
 21
87.9711
 31
0.0
  0
LINE
  8
0
 62
     0
 10
162.21
 20
87.9711
 30
0.0
 11
162.352
 21
87.6942
 31
0.0
  0
LINE
  8
0
 62
     0
 10
162.352
 20
87.6942
 30
0.0
 11
162.574
 21
87.4709
 31
0.0
  0
LINE
  8
0
 62
     0
 10
162.574
 20
87.4709
 30
0.0
 11
162.852
 21
87.3291
 31
0.0
  0
LINE
  8
0
 62
     0
 10
162.852
 20
87.3291
 30
0.0
 11
163.161
 21
87.2808
 31
0.0
  0
LINE
  8
0
 62
     0
 10
163.161
 20
87.2808
 30
0.0
 11
163.471
 21
87.3291
 31
0.0
  0
LINE
  8
0
 62
     0
 10
163.471
 20
87.3291
 30
0.0
 11
163.75
 21
87.4709
 31
0.0
  0
LINE
  8
0
 62
     0
 10
163.75
 20
87.4709
 30
0.0
 11
163.971
 21
87.6942
 31
0.0
  0
LINE
  8
0
 62
     0
 10
163.971
 20
87.6942
 30
0.0
 11
164.113
 21
87.9711
 31
0.0
  0
LINE
  8
0
 62
     0
 10
164.113
 20
87.9711
 30
0.0
 11
164.162
 21
88.2812
 31
0.0
  0
LINE
  8
0
 62
     0
 10
164.162
 20
88.2812
 30
0.0
 11
164.113
 21
88.5913
 31
0.0
  0
LINE
  8
0
 62
     0
 10
164.113
 20
88.5913
 30
0.0
 11
163.971
 21
88.8683
 31
0.0
  0
LINE
  8
0
 62
     0
 10
163.971
 20
88.8683
 30
0.0
 11
163.75
 21
89.0916
 31
0.0
  0
LINE
  8
0
 62
     0
 10
163.75
 20
89.0916
 30
0.0
 11
163.471
 21
89.232
 31
0.0
  0
LINE
  8
0
 62
     0
 10
163.471
 20
89.232
 30
0.0
 11
163.161
 21
89.2803
 31
0.0
  0
LINE
  8
0
 62
     0
 10
163.161
 20
89.2803
 30
0.0
 11
162.852
 21
89.232
 31
0.0
  0
LINE
  8
0
 62
     0
 10
242.386
 20
89.232
 30
0.0
 11
242.108
 21
89.0916
 31
0.0
  0
LINE
  8
0
 62
     0
 10
242.108
 20
89.0916
 30
0.0
 11
241.886
 21
88.8683
 31
0.0
  0
LINE
  8
0
 62
     0
 10
241.886
 20
88.8683
 30
0.0
 11
241.744
 21
88.5913
 31
0.0
  0
LINE
  8
0
 62
     0
 10
241.744
 20
88.5913
 30
0.0
 11
241.695
 21
88.2812
 31
0.0
  0
LINE
  8
0
 62
     0
 10
241.695
 20
88.2812
 30
0.0
 11
241.744
 21
87.9711
 31
0.0
  0
LINE
  8
0
 62
     0
 10
241.744
 20
87.9711
 30
0.0
 11
241.886
 21
87.6942
 31
0.0
  0
LINE
  8
0
 62
     0
 10
241.886
 20
87.6942
 30
0.0
 11
242.108
 21
87.4709
 31
0.0
  0
LINE
  8
0
 62
     0
 10
242.108
 20
87.4709
 30
0.0
 11
242.386
 21
87.3291
 31
0.0
  0
LINE
  8
0
 62
     0
 10
242.386
 20
87.3291
 30
0.0
 11
242.696
 21
87.2808
 31
0.0
  0
LINE
  8
0
 62
     0
 10
242.696
 20
87.2808
 30
0.0
 11
243.005
 21
87.3291
 31
0.0
  0
LINE
  8
0
 62
     0
 10
243.005
 20
87.3291
 30
0.0
 11
243.283
 21
87.4709
 31
0.0
  0
LINE
  8
0
 62
     0
 10
243.283
 20
87.4709
 30
0.0
 11
243.505
 21
87.6942
 31
0.0
  0
LINE
  8
0
 62
     0
 10
243.505
 20
87.6942
 30
0.0
 11
243.647
 21
87.9711
 31
0.0
  0
LINE
  8
0
 62
     0
 10
243.647
 20
87.9711
 30
0.0
 11
243.696
 21
88.2812
 31
0.0
  0
LINE
  8
0
 62
     0
 10
243.696
 20
88.2812
 30
0.0
 11
243.647
 21
88.5913
 31
0.0
  0
LINE
  8
0
 62
     0
 10
243.647
 20
88.5913
 30
0.0
 11
243.505
 21
88.8683
 31
0.0
  0
LINE
  8
0
 62
     0
 10
243.505
 20
88.8683
 30
0.0
 11
243.283
 21
89.0916
 31
0.0
  0
LINE
  8
0
 62
     0
 10
243.283
 20
89.0916
 30
0.0
 11
243.005
 21
89.232
 31
0.0
  0
LINE
  8
0
 62
     0
 10
243.005
 20
89.232
 30
0.0
 11
242.696
 21
89.2803
 31
0.0
  0
LINE
  8
0
 62
     0
 10
242.696
 20
89.2803
 30
0.0
 11
242.386
 21
89.232
 31
0.0
  0
LINE
  8
0
 62
     0
 10
3.78411
 20
89.232
 30
0.0
 11
3.50711
 21
89.0916
 31
0.0
  0
LINE
  8
0
 62
     0
 10
3.50711
 20
89.0916
 30
0.0
 11
3.28386
 21
88.8683
 31
0.0
  0
LINE
  8
0
 62
     0
 10
3.28386
 20
88.8683
 30
0.0
 11
3.14331
 21
88.5913
 31
0.0
  0
LINE
  8
0
 62
     0
 10
3.14331
 20
88.5913
 30
0.0
 11
3.0937
 21
88.2812
 31
0.0
  0
LINE
  8
0
 62
     0
 10
3.0937
 20
88.2812
 30
0.0
 11
3.14331
 21
87.9711
 31
0.0
  0
LINE
  8
0
 62
     0
 10
3.14331
 20
87.9711
 30
0.0
 11
3.28386
 21
87.6942
 31
0.0
  0
LINE
  8
0
 62
     0
 10
3.28386
 20
87.6942
 30
0.0
 11
3.50711
 21
87.4709
 31
0.0
  0
LINE
  8
0
 62
     0
 10
3.50711
 20
87.4709
 30
0.0
 11
3.78411
 21
87.3291
 31
0.0
  0
LINE
  8
0
 62
     0
 10
3.78411
 20
87.3291
 30
0.0
 11
4.09416
 21
87.2808
 31
0.0
  0
LINE
  8
0
 62
     0
 10
4.09416
 20
87.2808
 30
0.0
 11
4.40422
 21
87.3291
 31
0.0
  0
LINE
  8
0
 62
     0
 10
4.40422
 20
87.3291
 30
0.0
 11
4.68118
 21
87.4709
 31
0.0
  0
LINE
  8
0
 62
     0
 10
4.68118
 20
87.4709
 30
0.0
 11
4.90442
 21
87.6942
 31
0.0
  0
LINE
  8
0
 62
     0
 10
4.90442
 20
87.6942
 30
0.0
 11
5.04638
 21
87.9711
 31
0.0
  0
LINE
  8
0
 62
     0
 10
5.04638
 20
87.9711
 30
0.0
 11
5.09323
 21
88.2812
 31
0.0
  0
LINE
  8
0
 62
     0
 10
5.09323
 20
88.2812
 30
0.0
 11
5.04638
 21
88.5913
 31
0.0
  0
LINE
  8
0
 62
     0
 10
5.04638
 20
88.5913
 30
0.0
 11
4.90442
 21
88.8683
 31
0.0
  0
LINE
  8
0
 62
     0
 10
4.90442
 20
88.8683
 30
0.0
 11
4.68118
 21
89.0916
 31
0.0
  0
LINE
  8
0
 62
     0
 10
4.68118
 20
89.0916
 30
0.0
 11
4.40422
 21
89.232
 31
0.0
  0
LINE
  8
0
 62
     0
 10
4.40422
 20
89.232
 30
0.0
 11
4.09416
 21
89.2803
 31
0.0
  0
LINE
  8
0
 62
     0
 10
4.09416
 20
89.2803
 30
0.0
 11
3.78411
 21
89.232
 31
0.0
  0
ENDSEC
  0
EOF
